<?xml version="1.0" encoding="UTF-8"?> <svg xmlns="http://www.w3.org/2000/svg" viewBox="0 0 423.76 260.25"><defs><style>.d{fill:#fff;}</style></defs><g id="a"></g><g id="b"><g id="c"><g><g><path class="d" d="M172.77,.38c-.22,.17-.38,35.49-.38,78.44v78.06h39.49v-26.33h-13.16V0h-12.78c-7.07,0-13,.17-13.16,.38h0Z"></path><path class="d" d="M211.55,.71c-.11,.38-.16,6.36-.11,13.27l.17,12.62,6.31,.06,6.31,.05,.17,19.31,.11,19.25h-13.16v26.33h13.16v65.28h13.71l.93-1.86c.55-1.04,1.81-3.57,2.8-5.65,.99-2.03,2.03-4.11,2.3-4.55,.55-.88,2.96-5.76,3.84-7.79,.33-.71,1.21-2.36,1.92-3.67l1.37-2.42v-39.22l-6.64-6.58-6.58-6.58,6.58-6.64,6.64-6.58V26.82l-6.69-13.38-6.69-13.44h-13.06c-10.09,0-13.16,.17-13.39,.71h0Z"></path></g><g><path class="d" d="M254.14,198.04c-2.91,.88-6.64,3.07-8.23,4.77-3.29,3.51-4.77,10.7-3.29,15.85,1.7,5.81,5.43,8.23,17.99,11.79,14.26,4,16.95,5.98,16.95,12.67,0,2.03-.33,4.17-.82,5.05-2.14,4.23-7.51,6.36-15.03,5.98-6.09-.33-10.09-2.08-13.06-5.82-1.1-1.42-2.19-2.8-2.42-3.07-.38-.44-5.43,2.25-5.43,2.91,0,1.76,6.31,8.07,9.54,9.6,7.41,3.51,20.02,3.24,26.44-.49,5.37-3.13,7.51-7.24,7.57-14.26,0-6.14-1.26-9.22-5.26-12.34-3.07-2.47-6.31-3.78-16.02-6.36-11.96-3.24-14.04-4.88-14.04-10.91,0-4.5,1.65-7.07,6.03-9.38,2.74-1.48,11.52-1.42,14.26,0,3.13,1.7,4.83,3.13,6.36,5.38,.82,1.15,1.7,2.08,1.97,2.08,.82,0,4.83-2.85,4.83-3.46,0-1.04-3.9-5.32-6.42-7.02-3.84-2.69-8.17-3.78-14.32-3.73-2.96,0-6.36,.33-7.62,.77h0Z"></path><path class="d" d="M0,228.81v30.5l13.06-.22c15.47-.27,18.38-.93,23.04-5.16,3.67-3.24,5.05-6.86,4.99-12.73-.05-7.73-3.13-12.29-9.76-14.54l-2.47-.82,1.7-.82c5.92-3.07,8.61-13.27,5.21-19.91-2.74-5.37-7.68-6.8-24.08-6.8H0v30.5Zm26.27-23.64c3.02,1.75,4.11,3.67,4.34,7.57,.27,4.55-1.32,7.79-4.83,9.71-2.25,1.26-3.13,1.37-10.97,1.54l-8.5,.22v-20.51l9.05,.22c7.84,.17,9.33,.33,10.91,1.26h0Zm3.29,26.6c3.62,2.08,4.66,3.73,4.88,8.28,.27,4.55-.82,8.12-3.07,9.87-3.24,2.52-4.88,2.85-15.19,3.13l-9.87,.22v-23.26l10.42,.22c9.93,.17,10.53,.22,12.83,1.54h0Z"></path><path class="d" d="M84.2,198.97c-2.41,6.64-20.57,59.41-20.57,59.74,0,.77,5.82,.6,6.42-.22,.27-.33,1.75-4.28,3.24-8.78l2.69-8.06,12.56,.11,12.62,.17,.93,2.74c.55,1.48,1.86,5.38,2.96,8.61l2.03,5.92h3.24c2.03,0,3.24-.22,3.24-.6,0-.33-4.55-13.71-10.15-29.78-5.59-16.02-10.31-29.46-10.42-29.84-.17-.44-1.54-.66-4.39-.66s-4.22,.22-4.39,.66h0Zm9.54,21.5c2.74,8.12,4.99,14.98,4.99,15.2,0,.27-4.66,.49-10.42,.49s-10.42-.06-10.42-.17c0-.17,9.33-27.64,10.15-29.95,.17-.44,.38-.66,.49-.55,.11,.11,2.47,6.86,5.21,14.97h0Z"></path><path class="d" d="M139.33,228.76v30.44h17.28c11.14,0,17.28-.22,17.33-.55,.05-.33,.05-1.15,.05-1.92,0-3.95,1.48-3.57-14.21-3.57h-14.15v-54.58l-3.13-.17-3.18-.17v30.5Z"></path><path class="d" d="M194.73,201.06v2.74h8.23v49.37h-8.23v6.03l11.41-.11,11.35-.17,.17-2.08c.27-3.07-.5-3.67-4.61-3.67h-3.51v-24.68c0-23.15,.06-24.68,.99-24.74,.49,0,2.3-.05,3.95-.11l3.02-.11,.17-2.63,.17-2.58h-23.09v2.74Z"></path><path class="d" d="M324.62,207.2c-1.7,4.94-3.84,11.03-4.77,13.6-3.51,9.98-13.22,38.01-13.22,38.23,0,.11,1.54,.17,3.4,.06l3.35-.17,2.14-6.31c1.15-3.46,2.47-7.35,2.96-8.67l.88-2.3h12.23c9.22,0,12.4,.17,12.73,.66,.22,.38,1.32,3.46,2.47,6.86,3.57,10.64,3.13,10.04,6.97,10.04,1.87,0,3.35-.11,3.35-.22,0-.17-10.64-30.61-17.39-49.7l-3.79-10.7-4.11-.17-4.06-.17-3.13,8.94Zm12.4,13.39l5.21,15.3-10.2,.17c-5.59,.05-10.31,0-10.48-.17-.17-.17,2.03-7.19,4.83-15.63,2.85-8.39,5.21-15.25,5.32-15.14,.06,.06,2.47,7.02,5.32,15.47h0Z"></path><path class="d" d="M382.33,228.76v30.5l3.18-.17,3.13-.17,.17-12.78,.11-12.73h12.34l7.68,12.78,7.74,12.73,3.73,.17c4.34,.17,4.34,.38,.88-4.94-1.21-1.92-4.77-7.51-7.84-12.51l-5.65-9.05,2.85-1.15c4.44-1.81,6.03-3.24,7.95-7.13,1.65-3.29,1.81-4.06,1.81-8.89,.06-4.88-.11-5.59-1.59-8.61-1.81-3.57-4.88-6.36-8.39-7.46-1.26-.44-7.02-.77-15.03-.88l-13.06-.27v30.55Zm23.81-24.41c2.47,.55,4.44,1.86,6.03,4.06,.99,1.32,1.15,2.31,1.15,7.08,0,6.58-.82,8.56-4.39,10.42-1.86,.99-3.46,1.21-11.14,1.48l-8.89,.27v-23.86h7.57c4.11,0,8.5,.27,9.65,.55h0Z"></path></g></g></g></g></svg> 