<?xml version="1.0" encoding="UTF-8"?> <svg xmlns="http://www.w3.org/2000/svg" viewBox="0 0 465.9 342.75"><defs><style>.d{fill:#fff;}</style></defs><g id="a"></g><g id="b"><g id="c"><g><rect class="d" width="465.9" height="342.75"></rect><g><path d="M161.65,29.07c-.4,.3-.7,64.7-.7,143v142.3h72v-48h-24V28.37h-23.3c-12.9,0-23.7,.3-24,.7h0Z"></path><path d="M232.35,29.68c-.2,.7-.3,11.6-.2,24.2l.3,23,11.5,.1,11.5,.1,.3,35.2,.2,35.1h-24v48h24v119h25l1.7-3.4c1-1.9,3.3-6.5,5.1-10.3,1.8-3.7,3.7-7.5,4.2-8.3,1-1.6,5.4-10.5,7-14.2,.6-1.3,2.2-4.3,3.5-6.7l2.5-4.4v-71.5l-12.1-12-12-12,12-12.1,12.1-12V77.27l-12.2-24.4-12.2-24.5h-23.8c-18.4,0-24,.3-24.4,1.3h0Z"></path></g></g></g></g></svg> 