<?xml version="1.0" encoding="UTF-8"?> <svg xmlns="http://www.w3.org/2000/svg" width="1704" height="991" viewBox="0 0 1704 991"><defs><style> .cls-1 { fill: #fff; stroke: #fff; stroke-linecap: round; stroke-dasharray: 0.001 2; } .cls-1, .cls-4 { stroke-width: 1px; } .cls-2 { fill: #af1037; } .cls-2, .cls-3, .cls-4 { fill-rule: evenodd; } .cls-4 { fill: none; stroke: #000; } </style></defs><g id="Монтажная_область_1" data-name="Монтажная область 1"><rect id="Прямоугольник_1" data-name="Прямоугольник 1" class="cls-1" width="1704" height="991"></rect><g id="бананы"><path id="A_B_C_копия_2" data-name="A | B | C | копия 2" class="cls-2" d="M387.011,1224.43h-5.779l-12.338,24.83h5.212l2.2-4.58h15.634l2.2,4.58h5.211Zm-4.4,7.23a10.816,10.816,0,0,0,1.241-4.22v-0.07h0.532v0.07a10.8,10.8,0,0,0,1.241,4.22l4.431,9.15H378.183Zm36.978-8.65h-4.574v33.7h4.574v-33.7Zm-27.246,64.78a5.732,5.732,0,0,0,3.669-1.75,5.286,5.286,0,0,0,1.365-3.74,5.457,5.457,0,0,0-2.056-4.47c-1.371-1.12-3.416-1.67-6.133-1.67H370.542v24.83h18.613q4.715,0,6.913-1.74a5.919,5.919,0,0,0,2.2-4.93,5.561,5.561,0,0,0-1.56-4.11,6.764,6.764,0,0,0-4.361-1.81v-0.61Zm-3.9-7.66a4.494,4.494,0,0,1,2.978.87,3.223,3.223,0,0,1,0,4.72,4.494,4.494,0,0,1-2.978.87H375.364v-6.46h13.082Zm-13.082,16.89v-6.81h13.543a5.188,5.188,0,0,1,3.333.9,3.1,3.1,0,0,1,1.1,2.54,3.011,3.011,0,0,1-1.1,2.48,5.251,5.251,0,0,1-3.333.89H375.364Zm45.025-22.28h-4.573v33.7h4.573v-33.7Zm-36.268,78.41q7.161,0,11.2-2.82a11.171,11.171,0,0,0,4.857-7.43h-4.928a7.449,7.449,0,0,1-3.439,4.4,14.216,14.216,0,0,1-7.693,1.77,14.457,14.457,0,0,1-6.062-1.15,8.781,8.781,0,0,1-3.812-3.14,8.368,8.368,0,0,1,0-8.94,8.713,8.713,0,0,1,3.812-3.14,14.457,14.457,0,0,1,6.062-1.15,14.216,14.216,0,0,1,7.693,1.77,7.421,7.421,0,0,1,3.439,4.4h4.928a11.433,11.433,0,0,0-2.5-5.25,13.043,13.043,0,0,0-5.371-3.66,22.617,22.617,0,0,0-8.19-1.34,20.866,20.866,0,0,0-8.739,1.66,12.513,12.513,0,0,0-5.5,4.6,12.557,12.557,0,0,0,0,13.16,12.43,12.43,0,0,0,5.5,4.59,20.862,20.862,0,0,0,8.739,1.67h0Zm36.906-26.68h-4.573v33.7h4.573v-33.7Z" transform="translate(-188 -981)"></path><path id="Обхват_талии_Обхват_бедер_Длина_по_внутреннему_шву_копия_2" data-name="Обхват талии Обхват бедер Длина по внутреннему шву копия 2" class="cls-3" d="M460.341,1238.75a11.675,11.675,0,1,0-3.409,8.31,11.324,11.324,0,0,0,3.409-8.31h0Zm-20.456,0a8.615,8.615,0,0,1,2.5-6.29,8.887,8.887,0,0,1,12.441,0,9.112,9.112,0,0,1,0,12.55,8.887,8.887,0,0,1-12.441,0,8.563,8.563,0,0,1-2.5-6.26h0Zm37.518,9.59a7.191,7.191,0,0,0,2.262-5.45,7.155,7.155,0,0,0-7.271-7.4,8.354,8.354,0,0,0-3.1.61,6.18,6.18,0,0,0-2.585,1.91,5.587,5.587,0,0,1,1.47-2.46,11.011,11.011,0,0,1,3.216-1.91c0.129-.06.473-0.21,1.034-0.43s0.921-.38,1.082-0.46,0.474-.22.937-0.43a8.378,8.378,0,0,0,.938-0.49c0.161-.11.42-0.27,0.775-0.5a3.2,3.2,0,0,0,.76-0.63q0.225-.285.533-0.69a3.2,3.2,0,0,0,.468-0.85,5.647,5.647,0,0,0,.259-0.95l-2.262-1.29a4.409,4.409,0,0,1-.5,1.31,3.471,3.471,0,0,1-1.018,1.03,11.936,11.936,0,0,1-1.228.75c-0.367.18-.943,0.44-1.729,0.79s-1.406.62-1.858,0.84c-2.5,1.21-4.152,2.55-4.96,4.04a13.573,13.573,0,0,0-1.212,6.37,8.284,8.284,0,0,0,2.327,6.08A8.676,8.676,0,0,0,477.4,1248.34Zm-11.051-5.61a4.162,4.162,0,0,1,1.664-3.44,5.842,5.842,0,0,1,3.732-1.31,5.047,5.047,0,0,1,3.7,1.37,4.747,4.747,0,0,1,1.406,3.54,4.591,4.591,0,0,1-1.47,3.49,5.2,5.2,0,0,1-3.733,1.39,5.31,5.31,0,0,1-3.781-1.42,4.751,4.751,0,0,1-1.518-3.62h0Zm23.654-1,5.817-7.83h-3.3l-4.169,5.63-4.168-5.63h-3.329l5.849,7.86-6.2,8.31h3.3l4.556-6.11,4.524,6.11h3.3Zm21.942-3.43a4.12,4.12,0,0,0-1.325-3.19,5.392,5.392,0,0,0-3.748-1.21h-7.433v16.17h8.079a5.343,5.343,0,0,0,3.829-1.28,4.32,4.32,0,0,0,1.341-3.28,3.748,3.748,0,0,0-2.488-3.75,3.846,3.846,0,0,0,1.745-3.46h0Zm-2.747.19c0,1.45-.819,2.17-2.456,2.17h-4.556v-4.24h4.556q2.456,0,2.456,2.07h0Zm-7.012,9.02v-4.36h5.17a2.869,2.869,0,0,1,1.891.56,1.973,1.973,0,0,1,.662,1.57,2.087,2.087,0,0,1-.662,1.65,2.766,2.766,0,0,1-1.891.58h-5.17Zm27.565-10.83a6.864,6.864,0,0,0-6.108-3.2,7.779,7.779,0,0,0-5.784,2.47,8.812,8.812,0,0,0,0,12.07,7.779,7.779,0,0,0,5.784,2.47,6.864,6.864,0,0,0,6.108-3.2v2.78h2.811V1233.9h-2.811v2.78Zm-9.824,9.43a5.987,5.987,0,0,1,0-8.25,5.864,5.864,0,0,1,8.176,0,5.987,5.987,0,0,1,0,8.25A5.864,5.864,0,0,1,519.93,1246.11Zm15.737-12.21v2.72h5.526v13.45h2.812v-13.45H549.5v-2.72H535.667Zm23.849,0v2.72h5.526v13.45h2.811v-13.45h5.494v-2.72H559.516Zm29.665,2.78a6.861,6.861,0,0,0-6.107-3.2,7.781,7.781,0,0,0-5.785,2.47,8.812,8.812,0,0,0,0,12.07,7.781,7.781,0,0,0,5.785,2.47,6.861,6.861,0,0,0,6.107-3.2v2.78h2.812V1233.9h-2.812v2.78Zm-9.823,9.43a5.984,5.984,0,0,1,0-8.25,5.862,5.862,0,0,1,8.175,0,5.987,5.987,0,0,1,0,8.25A5.862,5.862,0,0,1,579.358,1246.11Zm19.033-12.21v9.25a5.6,5.6,0,0,1-.824,3.54,2.579,2.579,0,0,1-2.472.73v2.65a5.46,5.46,0,0,0,4.508-1.31c1.066-1.05,1.6-2.89,1.6-5.55v-6.59h6.366v13.45h2.811V1233.9H598.391Zm19.68,11.35V1233.9h-2.779v16.17h2.262l8.951-11.35v11.35h2.779V1233.9h-2.262Zm18.9,0V1233.9H634.2v16.17h2.262l8.952-11.35v11.35h2.779V1233.9h-2.262Zm-176.634,45.23a11.675,11.675,0,1,0-3.409,8.31,11.324,11.324,0,0,0,3.409-8.31h0Zm-20.456,0a8.577,8.577,0,0,1,2.5-6.28,8.887,8.887,0,0,1,12.441,0,9.1,9.1,0,0,1,0,12.54,8.887,8.887,0,0,1-12.441,0,8.563,8.563,0,0,1-2.5-6.26h0Zm37.518,9.59a7.733,7.733,0,0,0,.146-10.78,7.1,7.1,0,0,0-5.155-2.07,8.354,8.354,0,0,0-3.1.61,6.18,6.18,0,0,0-2.585,1.91,5.587,5.587,0,0,1,1.47-2.46,11.02,11.02,0,0,1,3.216-1.9c0.129-.07.473-0.21,1.034-0.44s0.921-.38,1.082-0.45,0.474-.22.937-0.44a8.861,8.861,0,0,0,.938-0.48q0.241-.165.775-0.51a2.789,2.789,0,0,0,.76-0.63q0.225-.285.533-0.69a3.309,3.309,0,0,0,.468-0.84,5.771,5.771,0,0,0,.259-0.96l-2.262-1.29a4.306,4.306,0,0,1-.5,1.31A3.5,3.5,0,0,1,474.4,1281a10.19,10.19,0,0,1-1.228.74c-0.367.18-.943,0.45-1.729,0.79s-1.406.63-1.858,0.84q-3.749,1.815-4.96,4.04a13.573,13.573,0,0,0-1.212,6.37,8.284,8.284,0,0,0,2.327,6.08A8.676,8.676,0,0,0,477.4,1300.07Zm-11.051-5.61a4.162,4.162,0,0,1,1.664-3.44,5.9,5.9,0,0,1,3.732-1.31,5.088,5.088,0,0,1,3.7,1.37,4.747,4.747,0,0,1,1.406,3.54,4.628,4.628,0,0,1-1.47,3.5,5.247,5.247,0,0,1-3.733,1.39,5.318,5.318,0,0,1-3.781-1.43,4.736,4.736,0,0,1-1.518-3.62h0Zm23.654-1,5.817-7.83h-3.3l-4.169,5.63-4.168-5.63h-3.329l5.849,7.86-6.2,8.31h3.3l4.556-6.11,4.524,6.11h3.3Zm21.942-3.43a4.113,4.113,0,0,0-1.325-3.18,5.347,5.347,0,0,0-3.748-1.22h-7.433v16.17h8.079a5.3,5.3,0,0,0,3.829-1.28,4.32,4.32,0,0,0,1.341-3.28,3.748,3.748,0,0,0-2.488-3.75,3.835,3.835,0,0,0,1.745-3.46h0Zm-2.747.2q0,2.16-2.456,2.16h-4.556v-4.23h4.556q2.456,0,2.456,2.07h0Zm-7.012,9.02v-4.37h5.17a2.816,2.816,0,0,1,1.891.57,1.959,1.959,0,0,1,.662,1.57,2.087,2.087,0,0,1-.662,1.65,2.818,2.818,0,0,1-1.891.58h-5.17Zm27.565-10.83a6.851,6.851,0,0,0-6.108-3.21,7.751,7.751,0,0,0-5.784,2.48,8.8,8.8,0,0,0,0,12.06,7.742,7.742,0,0,0,5.784,2.47,6.864,6.864,0,0,0,6.108-3.2v2.78h2.811v-16.17h-2.811v2.79Zm-9.824,9.42a5.974,5.974,0,0,1,0-8.24,5.838,5.838,0,0,1,8.176,0,5.974,5.974,0,0,1,0,8.24A5.838,5.838,0,0,1,519.93,1297.84Zm15.737-12.21v2.72h5.526v13.45h2.812v-13.45H549.5v-2.72H535.667Zm38.746,14.44a7.733,7.733,0,0,0,.146-10.78,7.1,7.1,0,0,0-5.155-2.07,8.354,8.354,0,0,0-3.1.61,6.18,6.18,0,0,0-2.585,1.91,5.587,5.587,0,0,1,1.47-2.46,11.02,11.02,0,0,1,3.216-1.9c0.129-.07.473-0.21,1.034-0.44s0.921-.38,1.082-0.45,0.474-.22.937-0.44a8.966,8.966,0,0,0,.938-0.48q0.241-.165.775-0.51a2.789,2.789,0,0,0,.76-0.63q0.225-.285.533-0.69a3.309,3.309,0,0,0,.468-0.84,5.771,5.771,0,0,0,.259-0.96l-2.262-1.29a4.306,4.306,0,0,1-.5,1.31,3.5,3.5,0,0,1-1.018,1.04,10.19,10.19,0,0,1-1.228.74c-0.367.18-.943,0.45-1.729,0.79s-1.406.63-1.858,0.84q-3.748,1.815-4.96,4.04a13.573,13.573,0,0,0-1.212,6.37,8.284,8.284,0,0,0,2.327,6.08A8.676,8.676,0,0,0,574.413,1300.07Zm-11.051-5.61a4.162,4.162,0,0,1,1.664-3.44,5.9,5.9,0,0,1,3.732-1.31,5.088,5.088,0,0,1,3.7,1.37,4.747,4.747,0,0,1,1.406,3.54,4.628,4.628,0,0,1-1.47,3.5,5.247,5.247,0,0,1-3.733,1.39,5.318,5.318,0,0,1-3.781-1.43,4.736,4.736,0,0,1-1.518-3.62h0Zm32.444,0.55a8.423,8.423,0,0,0,.1-1.26,8.721,8.721,0,0,0-2.246-6.03,7.438,7.438,0,0,0-5.8-2.51,8.133,8.133,0,0,0-6.107,2.43,8.368,8.368,0,0,0-2.359,6.08,8.238,8.238,0,0,0,2.407,6.09,8.441,8.441,0,0,0,6.253,2.41,7.9,7.9,0,0,0,7.11-3.65l-2.392-1.36a5.061,5.061,0,0,1-4.653,2.36,6.165,6.165,0,0,1-3.862-1.2,5.289,5.289,0,0,1-1.987-3.36h13.54Zm-4.557-5.95a5.389,5.389,0,0,1,1.81,3.49H582.266a5.355,5.355,0,0,1,5.59-4.68A5.16,5.16,0,0,1,591.249,1289.06Zm21.781-3.43H601.106v7.51a10.02,10.02,0,0,1-1.552,5.98h-1.971v7.01h2.779v-4.33H612.48v4.33h2.78v-7.01h-2.23v-13.49Zm-9.145,7.51v-4.89h6.366v10.87h-7.5a13.883,13.883,0,0,0,1.131-5.98h0Zm29.923,1.87a8.423,8.423,0,0,0,.1-1.26,8.72,8.72,0,0,0-2.245-6.03,7.438,7.438,0,0,0-5.8-2.51,8.136,8.136,0,0,0-6.108,2.43,8.372,8.372,0,0,0-2.359,6.08,8.238,8.238,0,0,0,2.408,6.09,8.441,8.441,0,0,0,6.253,2.41,7.9,7.9,0,0,0,7.109-3.65l-2.391-1.36a5.064,5.064,0,0,1-4.654,2.36,6.164,6.164,0,0,1-3.861-1.2,5.29,5.29,0,0,1-1.988-3.36h13.54Zm-4.556-5.95a5.4,5.4,0,0,1,1.81,3.49H620.268a5.355,5.355,0,0,1,5.591-4.68A5.16,5.16,0,0,1,629.252,1289.06Zm11.343-.64v-2.79h-2.812v22.64H640.6v-9.25a6.861,6.861,0,0,0,6.107,3.2,7.746,7.746,0,0,0,5.785-2.47,8.8,8.8,0,0,0,0-12.06,7.755,7.755,0,0,0-5.785-2.48,6.848,6.848,0,0,0-6.107,3.21h0Zm1.648,9.42a5.974,5.974,0,0,1,0-8.24,5.837,5.837,0,0,1,8.175,0,5.974,5.974,0,0,1,0,8.24A5.837,5.837,0,0,1,642.243,1297.84ZM454.686,1330.9H440.241v11.84q0,5.325-2.1,7.95h-1.971v7.18h3.006v-4.34H454.1v4.34h3v-7.18h-2.423V1330.9Zm-11.44,11.9v-9.09h8.435v16.98H441.534q1.712-2.745,1.712-7.89h0Zm19.163-5.43v9.25a5.6,5.6,0,0,1-.824,3.54,2.6,2.6,0,0,1-2.472.72v2.65a5.394,5.394,0,0,0,4.508-1.31q1.6-1.56,1.6-5.54v-6.6h6.366v13.45H474.4v-16.16H462.409Zm19.68,11.35v-11.35H479.31v16.16h2.262l8.951-11.34v11.34H493.3v-16.16H491.04Zm27.306-4.63h-8.369v-6.72h-2.812v16.16h2.812v-6.75H509.4v6.75h2.812v-16.16H509.4v6.72Zm21.1-3.94a6.841,6.841,0,0,0-6.107-3.2,7.743,7.743,0,0,0-5.785,2.47,8.8,8.8,0,0,0,0,12.06,7.743,7.743,0,0,0,5.785,2.47,6.841,6.841,0,0,0,6.107-3.2v2.78h2.811v-16.16H530.5v2.78Zm-9.824,9.42a5.974,5.974,0,0,1,0-8.24,5.838,5.838,0,0,1,8.176,0,5.974,5.974,0,0,1,0,8.24A5.838,5.838,0,0,1,520.673,1349.57Zm26.272-12.2v16.16h2.812v-13.48h8.369v13.48h2.812v-16.16H546.945Zm35.03,8.08a8.184,8.184,0,0,0-2.488-6.05,8.658,8.658,0,0,0-12.07,0A8.545,8.545,0,1,0,581.975,1345.45Zm-12.571,4.11a5.949,5.949,0,0,1,0-8.22,5.836,5.836,0,0,1,8.112,0,5.949,5.949,0,0,1,0,8.22A5.81,5.81,0,0,1,569.4,1349.56Zm-119.081,18.07a4.113,4.113,0,0,0-1.325-3.18,5.346,5.346,0,0,0-3.748-1.22h-7.433v16.17H445.9a5.3,5.3,0,0,0,3.829-1.28,4.321,4.321,0,0,0,1.342-3.28,3.749,3.749,0,0,0-2.489-3.75,3.835,3.835,0,0,0,1.745-3.46h0Zm-2.747.2q0,2.16-2.455,2.16h-4.557v-4.23h4.557q2.454,0,2.455,2.07h0Zm-7.012,9.02v-4.37h5.171a2.815,2.815,0,0,1,1.89.57,1.945,1.945,0,0,1,.662,1.57,2.052,2.052,0,0,1-.662,1.64,2.768,2.768,0,0,1-1.89.59h-5.171Zm25.367-6.89h-8.369v-6.73H454.75v16.17h2.812v-6.76h8.369v6.76h2.812v-16.17h-2.812v6.73Zm14.348,5.95-5.526-12.68H471.78l7.013,16.2-0.259.59q-1.389,3.45-4.362,3.23v2.62a6.091,6.091,0,0,0,4.265-1.28,9.166,9.166,0,0,0,2.909-4.19l6.592-17.17h-3Zm8.952-12.68v2.72h5.526v13.45h2.811v-13.45h5.494v-2.72H489.231Zm19.744,2.79v-2.79h-2.811v22.64h2.811v-9.25a6.862,6.862,0,0,0,6.108,3.2,7.742,7.742,0,0,0,5.784-2.47,8.8,8.8,0,0,0,0-12.06,7.751,7.751,0,0,0-5.784-2.48,6.849,6.849,0,0,0-6.108,3.21h0Zm1.648,9.42a5.974,5.974,0,0,1,0-8.24,5.838,5.838,0,0,1,8.176,0,5.974,5.974,0,0,1,0,8.24A5.838,5.838,0,0,1,510.623,1375.44Zm32.154-2.83a8.558,8.558,0,0,0,.1-1.26,8.721,8.721,0,0,0-2.246-6.03,7.438,7.438,0,0,0-5.8-2.51,8.133,8.133,0,0,0-6.107,2.43,8.368,8.368,0,0,0-2.359,6.08,8.238,8.238,0,0,0,2.407,6.09,8.441,8.441,0,0,0,6.253,2.41,7.9,7.9,0,0,0,7.109-3.65l-2.391-1.36a5.061,5.061,0,0,1-4.653,2.36,6.165,6.165,0,0,1-3.862-1.2,5.284,5.284,0,0,1-1.987-3.36h13.54Zm-4.557-5.95a5.389,5.389,0,0,1,1.81,3.49H529.237a5.355,5.355,0,0,1,5.59-4.68A5.16,5.16,0,0,1,538.22,1366.66Zm19.713,3.3h-8.37v-6.73h-2.811v16.17h2.811v-6.76h8.37v6.76h2.811v-16.17h-2.811v6.73Zm18.9,0h-8.37v-6.73h-2.811v16.17h2.811v-6.76h8.37v6.76h2.811v-16.17h-2.811v6.73Zm23.234,2.65a8.423,8.423,0,0,0,.1-1.26,8.72,8.72,0,0,0-2.245-6.03,7.438,7.438,0,0,0-5.8-2.51,8.136,8.136,0,0,0-6.108,2.43,8.372,8.372,0,0,0-2.359,6.08,8.238,8.238,0,0,0,2.408,6.09,8.441,8.441,0,0,0,6.253,2.41,7.9,7.9,0,0,0,7.109-3.65l-2.391-1.36a5.064,5.064,0,0,1-4.654,2.36,6.164,6.164,0,0,1-3.861-1.2,5.29,5.29,0,0,1-1.988-3.36h13.54Zm-4.556-5.95a5.394,5.394,0,0,1,1.81,3.49H586.531a5.355,5.355,0,0,1,5.591-4.68A5.16,5.16,0,0,1,595.515,1366.66Zm21.684-3.43-5.074,8.18-5.073-8.18h-3.006v16.17h2.779v-11.74l5.138,8.28h0.356l5.138-8.28v11.74H620.2v-16.17h-3Zm14.574,12.68-5.526-12.68h-2.973l7.012,16.2-0.258.59q-1.39,3.45-4.363,3.23v2.62a6.1,6.1,0,0,0,4.266-1.28,9.172,9.172,0,0,0,2.908-4.19l6.592-17.17h-3Zm-174.631,26.67h-6.851V1389.1H447.48v13.48h-6.851V1389.1h-2.812v16.17h22.136V1389.1h-2.811v13.48Zm20.261-9.08a4.117,4.117,0,0,0-1.325-3.19,5.39,5.39,0,0,0-3.748-1.21H464.9v16.17h8.079a5.343,5.343,0,0,0,3.829-1.28,4.321,4.321,0,0,0,1.342-3.28,3.749,3.749,0,0,0-2.489-3.75,3.846,3.846,0,0,0,1.745-3.46h0Zm-2.746.19c0,1.45-.819,2.17-2.456,2.17h-4.557v-4.24H472.2q2.456,0,2.456,2.07h0Zm-7.013,9.02v-4.36h5.171a2.868,2.868,0,0,1,1.89.56,1.959,1.959,0,0,1,.662,1.57,2.087,2.087,0,0,1-.662,1.65,2.765,2.765,0,0,1-1.89.58h-5.171Zm20.165-.93-5.526-12.68H479.31l7.012,16.2-0.258.58q-1.391,3.465-4.363,3.24v2.61a6.088,6.088,0,0,0,4.266-1.27,9.226,9.226,0,0,0,2.908-4.19l6.592-17.17h-3Z" transform="translate(-188 -981)"></path><path id="A_B_C_копия_3" data-name="A | B | C | копия 3" class="cls-2" d="M387.011,1673.43h-5.779l-12.338,24.83h5.212l2.2-4.58h15.634l2.2,4.58h5.211Zm-4.4,7.23a10.816,10.816,0,0,0,1.241-4.22v-0.07h0.532v0.07a10.8,10.8,0,0,0,1.241,4.22l4.431,9.15H378.183Zm36.978-8.65h-4.574v33.7h4.574v-33.7Zm-27.246,64.78a5.732,5.732,0,0,0,3.669-1.75,5.286,5.286,0,0,0,1.365-3.74,5.457,5.457,0,0,0-2.056-4.47c-1.371-1.12-3.416-1.67-6.133-1.67H370.542v24.83h18.613q4.715,0,6.913-1.74a5.919,5.919,0,0,0,2.2-4.93,5.561,5.561,0,0,0-1.56-4.11,6.764,6.764,0,0,0-4.361-1.81v-0.61Zm-3.9-7.66a4.494,4.494,0,0,1,2.978.87,3.223,3.223,0,0,1,0,4.72,4.494,4.494,0,0,1-2.978.87H375.364v-6.46h13.082Zm-13.082,16.89v-6.81h13.543a5.188,5.188,0,0,1,3.333.9,3.1,3.1,0,0,1,1.1,2.54,3.011,3.011,0,0,1-1.1,2.48,5.251,5.251,0,0,1-3.333.89H375.364Zm45.025-22.28h-4.573v33.7h4.573v-33.7Zm-36.268,78.41q7.161,0,11.2-2.82a11.171,11.171,0,0,0,4.857-7.43h-4.928a7.449,7.449,0,0,1-3.439,4.4,14.216,14.216,0,0,1-7.693,1.77,14.457,14.457,0,0,1-6.062-1.15,8.781,8.781,0,0,1-3.812-3.14,8.368,8.368,0,0,1,0-8.94,8.713,8.713,0,0,1,3.812-3.14,14.457,14.457,0,0,1,6.062-1.15,14.216,14.216,0,0,1,7.693,1.77,7.421,7.421,0,0,1,3.439,4.4h4.928a11.433,11.433,0,0,0-2.5-5.25,13.043,13.043,0,0,0-5.371-3.66,22.617,22.617,0,0,0-8.19-1.34,20.866,20.866,0,0,0-8.739,1.66,12.513,12.513,0,0,0-5.5,4.6,12.557,12.557,0,0,0,0,13.16,12.43,12.43,0,0,0,5.5,4.59,20.862,20.862,0,0,0,8.739,1.67h0Zm36.906-26.68h-4.573v33.7h4.573v-33.7Z" transform="translate(-188 -981)"></path><path id="Обхват_талии_Обхват_бедер_Длина_по_внутреннему_шву_копия_3" data-name="Обхват талии Обхват бедер Длина по внутреннему шву копия 3" class="cls-3" d="M460.341,1687.75a11.675,11.675,0,1,0-3.409,8.31,11.324,11.324,0,0,0,3.409-8.31h0Zm-20.456,0a8.615,8.615,0,0,1,2.5-6.29,8.887,8.887,0,0,1,12.441,0,9.112,9.112,0,0,1,0,12.55,8.887,8.887,0,0,1-12.441,0,8.563,8.563,0,0,1-2.5-6.26h0Zm37.518,9.59a7.191,7.191,0,0,0,2.262-5.45,7.155,7.155,0,0,0-7.271-7.4,8.354,8.354,0,0,0-3.1.61,6.18,6.18,0,0,0-2.585,1.91,5.587,5.587,0,0,1,1.47-2.46,11.011,11.011,0,0,1,3.216-1.91c0.129-.06.473-0.21,1.034-0.43s0.921-.38,1.082-0.46,0.474-.22.937-0.43a8.378,8.378,0,0,0,.938-0.49c0.161-.11.42-0.27,0.775-0.5a3.2,3.2,0,0,0,.76-0.63q0.225-.285.533-0.69a3.2,3.2,0,0,0,.468-0.85,5.647,5.647,0,0,0,.259-0.95l-2.262-1.29a4.409,4.409,0,0,1-.5,1.31,3.471,3.471,0,0,1-1.018,1.03,11.936,11.936,0,0,1-1.228.75c-0.367.18-.943,0.44-1.729,0.79s-1.406.62-1.858,0.84c-2.5,1.21-4.152,2.55-4.96,4.04a13.573,13.573,0,0,0-1.212,6.37,8.284,8.284,0,0,0,2.327,6.08A8.676,8.676,0,0,0,477.4,1697.34Zm-11.051-5.61a4.162,4.162,0,0,1,1.664-3.44,5.842,5.842,0,0,1,3.732-1.31,5.047,5.047,0,0,1,3.7,1.37,4.747,4.747,0,0,1,1.406,3.54,4.591,4.591,0,0,1-1.47,3.49,5.2,5.2,0,0,1-3.733,1.39,5.31,5.31,0,0,1-3.781-1.42,4.751,4.751,0,0,1-1.518-3.62h0Zm23.654-1,5.817-7.83h-3.3l-4.169,5.63-4.168-5.63h-3.329l5.849,7.86-6.2,8.31h3.3l4.556-6.11,4.524,6.11h3.3Zm21.942-3.43a4.12,4.12,0,0,0-1.325-3.19,5.392,5.392,0,0,0-3.748-1.21h-7.433v16.17h8.079a5.343,5.343,0,0,0,3.829-1.28,4.32,4.32,0,0,0,1.341-3.28,3.748,3.748,0,0,0-2.488-3.75,3.846,3.846,0,0,0,1.745-3.46h0Zm-2.747.19c0,1.45-.819,2.17-2.456,2.17h-4.556v-4.24h4.556q2.456,0,2.456,2.07h0Zm-7.012,9.02v-4.36h5.17a2.869,2.869,0,0,1,1.891.56,1.973,1.973,0,0,1,.662,1.57,2.087,2.087,0,0,1-.662,1.65,2.766,2.766,0,0,1-1.891.58h-5.17Zm27.565-10.83a6.864,6.864,0,0,0-6.108-3.2,7.779,7.779,0,0,0-5.784,2.47,8.812,8.812,0,0,0,0,12.07,7.779,7.779,0,0,0,5.784,2.47,6.864,6.864,0,0,0,6.108-3.2v2.78h2.811V1682.9h-2.811v2.78Zm-9.824,9.43a5.987,5.987,0,0,1,0-8.25,5.864,5.864,0,0,1,8.176,0,5.987,5.987,0,0,1,0,8.25A5.864,5.864,0,0,1,519.93,1695.11Zm15.737-12.21v2.72h5.526v13.45h2.812v-13.45H549.5v-2.72H535.667Zm23.849,0v2.72h5.526v13.45h2.811v-13.45h5.494v-2.72H559.516Zm29.665,2.78a6.861,6.861,0,0,0-6.107-3.2,7.781,7.781,0,0,0-5.785,2.47,8.812,8.812,0,0,0,0,12.07,7.781,7.781,0,0,0,5.785,2.47,6.861,6.861,0,0,0,6.107-3.2v2.78h2.812V1682.9h-2.812v2.78Zm-9.823,9.43a5.984,5.984,0,0,1,0-8.25,5.862,5.862,0,0,1,8.175,0,5.987,5.987,0,0,1,0,8.25A5.862,5.862,0,0,1,579.358,1695.11Zm19.033-12.21v9.25a5.6,5.6,0,0,1-.824,3.54,2.579,2.579,0,0,1-2.472.73v2.65a5.46,5.46,0,0,0,4.508-1.31c1.066-1.05,1.6-2.89,1.6-5.55v-6.59h6.366v13.45h2.811V1682.9H598.391Zm19.68,11.35V1682.9h-2.779v16.17h2.262l8.951-11.35v11.35h2.779V1682.9h-2.262Zm18.9,0V1682.9H634.2v16.17h2.262l8.952-11.35v11.35h2.779V1682.9h-2.262Zm-176.634,45.23a11.675,11.675,0,1,0-3.409,8.31,11.324,11.324,0,0,0,3.409-8.31h0Zm-20.456,0a8.577,8.577,0,0,1,2.5-6.28,8.887,8.887,0,0,1,12.441,0,9.1,9.1,0,0,1,0,12.54,8.887,8.887,0,0,1-12.441,0,8.563,8.563,0,0,1-2.5-6.26h0Zm37.518,9.59a7.733,7.733,0,0,0,.146-10.78,7.1,7.1,0,0,0-5.155-2.07,8.354,8.354,0,0,0-3.1.61,6.18,6.18,0,0,0-2.585,1.91,5.587,5.587,0,0,1,1.47-2.46,11.02,11.02,0,0,1,3.216-1.9c0.129-.07.473-0.21,1.034-0.44s0.921-.38,1.082-0.45,0.474-.22.937-0.44a8.861,8.861,0,0,0,.938-0.48q0.241-.165.775-0.51a2.789,2.789,0,0,0,.76-0.63q0.225-.285.533-0.69a3.309,3.309,0,0,0,.468-0.84,5.771,5.771,0,0,0,.259-0.96l-2.262-1.29a4.306,4.306,0,0,1-.5,1.31A3.5,3.5,0,0,1,474.4,1730a10.19,10.19,0,0,1-1.228.74c-0.367.18-.943,0.45-1.729,0.79s-1.406.63-1.858,0.84q-3.749,1.815-4.96,4.04a13.573,13.573,0,0,0-1.212,6.37,8.284,8.284,0,0,0,2.327,6.08A8.676,8.676,0,0,0,477.4,1749.07Zm-11.051-5.61a4.162,4.162,0,0,1,1.664-3.44,5.9,5.9,0,0,1,3.732-1.31,5.088,5.088,0,0,1,3.7,1.37,4.747,4.747,0,0,1,1.406,3.54,4.628,4.628,0,0,1-1.47,3.5,5.247,5.247,0,0,1-3.733,1.39,5.318,5.318,0,0,1-3.781-1.43,4.736,4.736,0,0,1-1.518-3.62h0Zm23.654-1,5.817-7.83h-3.3l-4.169,5.63-4.168-5.63h-3.329l5.849,7.86-6.2,8.31h3.3l4.556-6.11,4.524,6.11h3.3Zm21.942-3.43a4.113,4.113,0,0,0-1.325-3.18,5.347,5.347,0,0,0-3.748-1.22h-7.433v16.17h8.079a5.3,5.3,0,0,0,3.829-1.28,4.32,4.32,0,0,0,1.341-3.28,3.748,3.748,0,0,0-2.488-3.75,3.835,3.835,0,0,0,1.745-3.46h0Zm-2.747.2q0,2.16-2.456,2.16h-4.556v-4.23h4.556q2.456,0,2.456,2.07h0Zm-7.012,9.02v-4.37h5.17a2.816,2.816,0,0,1,1.891.57,1.959,1.959,0,0,1,.662,1.57,2.087,2.087,0,0,1-.662,1.65,2.818,2.818,0,0,1-1.891.58h-5.17Zm27.565-10.83a6.851,6.851,0,0,0-6.108-3.21,7.751,7.751,0,0,0-5.784,2.48,8.8,8.8,0,0,0,0,12.06,7.742,7.742,0,0,0,5.784,2.47,6.864,6.864,0,0,0,6.108-3.2v2.78h2.811v-16.17h-2.811v2.79Zm-9.824,9.42a5.974,5.974,0,0,1,0-8.24,5.838,5.838,0,0,1,8.176,0,5.974,5.974,0,0,1,0,8.24A5.838,5.838,0,0,1,519.93,1746.84Zm15.737-12.21v2.72h5.526v13.45h2.812v-13.45H549.5v-2.72H535.667Zm38.746,14.44a7.733,7.733,0,0,0,.146-10.78,7.1,7.1,0,0,0-5.155-2.07,8.354,8.354,0,0,0-3.1.61,6.18,6.18,0,0,0-2.585,1.91,5.587,5.587,0,0,1,1.47-2.46,11.02,11.02,0,0,1,3.216-1.9c0.129-.07.473-0.21,1.034-0.44s0.921-.38,1.082-0.45,0.474-.22.937-0.44a8.966,8.966,0,0,0,.938-0.48q0.241-.165.775-0.51a2.789,2.789,0,0,0,.76-0.63q0.225-.285.533-0.69a3.309,3.309,0,0,0,.468-0.84,5.771,5.771,0,0,0,.259-0.96l-2.262-1.29a4.306,4.306,0,0,1-.5,1.31,3.5,3.5,0,0,1-1.018,1.04,10.19,10.19,0,0,1-1.228.74c-0.367.18-.943,0.45-1.729,0.79s-1.406.63-1.858,0.84q-3.748,1.815-4.96,4.04a13.573,13.573,0,0,0-1.212,6.37,8.284,8.284,0,0,0,2.327,6.08A8.676,8.676,0,0,0,574.413,1749.07Zm-11.051-5.61a4.162,4.162,0,0,1,1.664-3.44,5.9,5.9,0,0,1,3.732-1.31,5.088,5.088,0,0,1,3.7,1.37,4.747,4.747,0,0,1,1.406,3.54,4.628,4.628,0,0,1-1.47,3.5,5.247,5.247,0,0,1-3.733,1.39,5.318,5.318,0,0,1-3.781-1.43,4.736,4.736,0,0,1-1.518-3.62h0Zm32.444,0.55a8.423,8.423,0,0,0,.1-1.26,8.721,8.721,0,0,0-2.246-6.03,7.438,7.438,0,0,0-5.8-2.51,8.133,8.133,0,0,0-6.107,2.43,8.368,8.368,0,0,0-2.359,6.08,8.238,8.238,0,0,0,2.407,6.09,8.441,8.441,0,0,0,6.253,2.41,7.9,7.9,0,0,0,7.11-3.65l-2.392-1.36a5.061,5.061,0,0,1-4.653,2.36,6.165,6.165,0,0,1-3.862-1.2,5.289,5.289,0,0,1-1.987-3.36h13.54Zm-4.557-5.95a5.389,5.389,0,0,1,1.81,3.49H582.266a5.355,5.355,0,0,1,5.59-4.68A5.16,5.16,0,0,1,591.249,1738.06Zm21.781-3.43H601.106v7.51a10.02,10.02,0,0,1-1.552,5.98h-1.971v7.01h2.779v-4.33H612.48v4.33h2.78v-7.01h-2.23v-13.49Zm-9.145,7.51v-4.89h6.366v10.87h-7.5a13.883,13.883,0,0,0,1.131-5.98h0Zm29.923,1.87a8.423,8.423,0,0,0,.1-1.26,8.72,8.72,0,0,0-2.245-6.03,7.438,7.438,0,0,0-5.8-2.51,8.136,8.136,0,0,0-6.108,2.43,8.372,8.372,0,0,0-2.359,6.08,8.238,8.238,0,0,0,2.408,6.09,8.441,8.441,0,0,0,6.253,2.41,7.9,7.9,0,0,0,7.109-3.65l-2.391-1.36a5.064,5.064,0,0,1-4.654,2.36,6.164,6.164,0,0,1-3.861-1.2,5.29,5.29,0,0,1-1.988-3.36h13.54Zm-4.556-5.95a5.4,5.4,0,0,1,1.81,3.49H620.268a5.355,5.355,0,0,1,5.591-4.68A5.16,5.16,0,0,1,629.252,1738.06Zm11.343-.64v-2.79h-2.812v22.64H640.6v-9.25a6.861,6.861,0,0,0,6.107,3.2,7.746,7.746,0,0,0,5.785-2.47,8.8,8.8,0,0,0,0-12.06,7.755,7.755,0,0,0-5.785-2.48,6.848,6.848,0,0,0-6.107,3.21h0Zm1.648,9.42a5.974,5.974,0,0,1,0-8.24,5.837,5.837,0,0,1,8.175,0,5.974,5.974,0,0,1,0,8.24A5.837,5.837,0,0,1,642.243,1746.84ZM454.686,1779.9H440.241v11.84q0,5.325-2.1,7.95h-1.971v7.18h3.006v-4.34H454.1v4.34h3v-7.18h-2.423V1779.9Zm-11.44,11.9v-9.09h8.435v16.98H441.534q1.712-2.745,1.712-7.89h0Zm19.163-5.43v9.25a5.6,5.6,0,0,1-.824,3.54,2.6,2.6,0,0,1-2.472.72v2.65a5.394,5.394,0,0,0,4.508-1.31q1.6-1.56,1.6-5.54v-6.6h6.366v13.45H474.4v-16.16H462.409Zm19.68,11.35v-11.35H479.31v16.16h2.262l8.951-11.34v11.34H493.3v-16.16H491.04Zm27.306-4.63h-8.369v-6.72h-2.812v16.16h2.812v-6.75H509.4v6.75h2.812v-16.16H509.4v6.72Zm21.1-3.94a6.841,6.841,0,0,0-6.107-3.2,7.743,7.743,0,0,0-5.785,2.47,8.8,8.8,0,0,0,0,12.06,7.743,7.743,0,0,0,5.785,2.47,6.841,6.841,0,0,0,6.107-3.2v2.78h2.811v-16.16H530.5v2.78Zm-9.824,9.42a5.974,5.974,0,0,1,0-8.24,5.838,5.838,0,0,1,8.176,0,5.974,5.974,0,0,1,0,8.24A5.838,5.838,0,0,1,520.673,1798.57Zm26.272-12.2v16.16h2.812v-13.48h8.369v13.48h2.812v-16.16H546.945Zm35.03,8.08a8.184,8.184,0,0,0-2.488-6.05,8.658,8.658,0,0,0-12.07,0A8.545,8.545,0,1,0,581.975,1794.45Zm-12.571,4.11a5.949,5.949,0,0,1,0-8.22,5.836,5.836,0,0,1,8.112,0,5.949,5.949,0,0,1,0,8.22A5.81,5.81,0,0,1,569.4,1798.56Zm-119.081,18.07a4.113,4.113,0,0,0-1.325-3.18,5.346,5.346,0,0,0-3.748-1.22h-7.433v16.17H445.9a5.3,5.3,0,0,0,3.829-1.28,4.321,4.321,0,0,0,1.342-3.28,3.749,3.749,0,0,0-2.489-3.75,3.835,3.835,0,0,0,1.745-3.46h0Zm-2.747.2q0,2.16-2.455,2.16h-4.557v-4.23h4.557q2.454,0,2.455,2.07h0Zm-7.012,9.02v-4.37h5.171a2.815,2.815,0,0,1,1.89.57,1.945,1.945,0,0,1,.662,1.57,2.052,2.052,0,0,1-.662,1.64,2.768,2.768,0,0,1-1.89.59h-5.171Zm25.367-6.89h-8.369v-6.73H454.75v16.17h2.812v-6.76h8.369v6.76h2.812v-16.17h-2.812v6.73Zm14.348,5.95-5.526-12.68H471.78l7.013,16.2-0.259.59q-1.389,3.45-4.362,3.23v2.62a6.091,6.091,0,0,0,4.265-1.28,9.166,9.166,0,0,0,2.909-4.19l6.592-17.17h-3Zm8.952-12.68v2.72h5.526v13.45h2.811v-13.45h5.494v-2.72H489.231Zm19.744,2.79v-2.79h-2.811v22.64h2.811v-9.25a6.862,6.862,0,0,0,6.108,3.2,7.742,7.742,0,0,0,5.784-2.47,8.8,8.8,0,0,0,0-12.06,7.751,7.751,0,0,0-5.784-2.48,6.849,6.849,0,0,0-6.108,3.21h0Zm1.648,9.42a5.974,5.974,0,0,1,0-8.24,5.838,5.838,0,0,1,8.176,0,5.974,5.974,0,0,1,0,8.24A5.838,5.838,0,0,1,510.623,1824.44Zm32.154-2.83a8.558,8.558,0,0,0,.1-1.26,8.721,8.721,0,0,0-2.246-6.03,7.438,7.438,0,0,0-5.8-2.51,8.133,8.133,0,0,0-6.107,2.43,8.368,8.368,0,0,0-2.359,6.08,8.238,8.238,0,0,0,2.407,6.09,8.441,8.441,0,0,0,6.253,2.41,7.9,7.9,0,0,0,7.109-3.65l-2.391-1.36a5.061,5.061,0,0,1-4.653,2.36,6.165,6.165,0,0,1-3.862-1.2,5.284,5.284,0,0,1-1.987-3.36h13.54Zm-4.557-5.95a5.389,5.389,0,0,1,1.81,3.49H529.237a5.355,5.355,0,0,1,5.59-4.68A5.16,5.16,0,0,1,538.22,1815.66Zm19.713,3.3h-8.37v-6.73h-2.811v16.17h2.811v-6.76h8.37v6.76h2.811v-16.17h-2.811v6.73Zm18.9,0h-8.37v-6.73h-2.811v16.17h2.811v-6.76h8.37v6.76h2.811v-16.17h-2.811v6.73Zm23.234,2.65a8.423,8.423,0,0,0,.1-1.26,8.72,8.72,0,0,0-2.245-6.03,7.438,7.438,0,0,0-5.8-2.51,8.136,8.136,0,0,0-6.108,2.43,8.372,8.372,0,0,0-2.359,6.08,8.238,8.238,0,0,0,2.408,6.09,8.441,8.441,0,0,0,6.253,2.41,7.9,7.9,0,0,0,7.109-3.65l-2.391-1.36a5.064,5.064,0,0,1-4.654,2.36,6.164,6.164,0,0,1-3.861-1.2,5.29,5.29,0,0,1-1.988-3.36h13.54Zm-4.556-5.95a5.394,5.394,0,0,1,1.81,3.49H586.531a5.355,5.355,0,0,1,5.591-4.68A5.16,5.16,0,0,1,595.515,1815.66Zm21.684-3.43-5.074,8.18-5.073-8.18h-3.006v16.17h2.779v-11.74l5.138,8.28h0.356l5.138-8.28v11.74H620.2v-16.17h-3Zm14.574,12.68-5.526-12.68h-2.973l7.012,16.2-0.258.59q-1.39,3.45-4.363,3.23v2.62a6.1,6.1,0,0,0,4.266-1.28,9.172,9.172,0,0,0,2.908-4.19l6.592-17.17h-3Zm-174.631,26.67h-6.851V1838.1H447.48v13.48h-6.851V1838.1h-2.812v16.17h22.136V1838.1h-2.811v13.48Zm20.261-9.08a4.117,4.117,0,0,0-1.325-3.19,5.39,5.39,0,0,0-3.748-1.21H464.9v16.17h8.079a5.343,5.343,0,0,0,3.829-1.28,4.321,4.321,0,0,0,1.342-3.28,3.749,3.749,0,0,0-2.489-3.75,3.846,3.846,0,0,0,1.745-3.46h0Zm-2.746.19c0,1.45-.819,2.17-2.456,2.17h-4.557v-4.24H472.2q2.456,0,2.456,2.07h0Zm-7.013,9.02v-4.36h5.171a2.868,2.868,0,0,1,1.89.56,1.959,1.959,0,0,1,.662,1.57,2.087,2.087,0,0,1-.662,1.65,2.765,2.765,0,0,1-1.89.58h-5.171Zm20.165-.93-5.526-12.68H479.31l7.012,16.2-0.258.58q-1.391,3.465-4.363,3.24v2.61a6.088,6.088,0,0,0,4.266-1.27,9.226,9.226,0,0,0,2.908-4.19l6.592-17.17h-3Z" transform="translate(-188 -981)"></path><g id="цифры"><path id="M_44-46" data-name="M 44-46" class="cls-3" d="M1163.59,1086.6l-6.85,11.32-6.82-11.32h-4.01v22.63h3.72v-16.16l6.88,11.41h0.45l6.89-11.38v16.13h3.71V1086.6h-3.97Zm-37.45,66.83v-5.88h-3.75v5.88h-7.08l7.79-15.1h-4.04l-7.79,15.1v3.46h11.12v4.08h3.75v-4.08h2.58v-3.46h-2.58Zm19.39,0v-5.88h-3.75v5.88h-7.08l7.79-15.1h-4.04l-7.79,15.1v3.46h11.12v4.08h3.75v-4.08h2.58v-3.46h-2.58Zm17.67-.61v-3.36h-11.95v3.36h11.95Zm18.2,0.61v-5.88h-3.75v5.88h-7.08l7.79-15.1h-4.04l-7.79,15.1v3.46h11.12v4.08h3.75v-4.08h2.58v-3.46h-2.58Zm12.34-7.5,5.17-7.6h-4.23l-7.18,10.77a7.9,7.9,0,0,0-1.35,4.56,7.4,7.4,0,0,0,2.23,5.58,8.8,8.8,0,0,0,11.53,0,8.1,8.1,0,0,0,0-11.16,7.938,7.938,0,0,0-5.75-2.15h-0.42Zm-2.68,10.79a4.489,4.489,0,0,1,0-6.11,4.713,4.713,0,0,1,6.17,0,4.489,4.489,0,0,1,0,6.11A4.744,4.744,0,0,1,1191.06,1156.72Z" transform="translate(-188 -981)"></path><path id="M_46" data-name="M 46" class="cls-3" d="M1267.27,1086.6l-6.85,11.32-6.82-11.32h-4v22.63h3.71v-16.16l6.89,11.41h0.45l6.88-11.38v16.13h3.72V1086.6h-3.98Zm-9.82,66.83v-5.88h-3.75v5.88h-7.08l7.79-15.1h-4.04l-7.79,15.1v3.46h11.12v4.08h3.75v-4.08h2.58v-3.46h-2.58Zm12.34-7.5,5.17-7.6h-4.23l-7.17,10.77a7.834,7.834,0,0,0-1.36,4.56,7.4,7.4,0,0,0,2.23,5.58,8.818,8.818,0,0,0,11.54,0,8.1,8.1,0,0,0,0-11.16,7.979,7.979,0,0,0-5.76-2.15h-0.42Zm-2.68,10.79a4.516,4.516,0,0,1,0-6.11,4.276,4.276,0,0,1,3.1-1.15,4.22,4.22,0,0,1,3.07,1.15,4.489,4.489,0,0,1,0,6.11,4.255,4.255,0,0,1-3.07,1.14A4.311,4.311,0,0,1,1267.11,1156.72Z" transform="translate(-188 -981)"></path><path id="M_L_46-48" data-name="M/L 46-48" class="cls-3" d="M1354.31,1086.6l-6.85,11.32-6.81-11.32h-4.01v22.63h3.71v-16.16l6.89,11.41h0.45l6.88-11.38v16.13h3.72V1086.6h-3.98Zm22.4-3.23h-1.78l-12.92,29.1h1.77Zm7.43,3.23h-3.71v22.63h12.92v-3.55h-9.21V1086.6Zm-50.25,66.83v-5.88h-3.75v5.88h-7.07l7.78-15.1h-4.04l-7.78,15.1v3.46h11.11v4.08h3.75v-4.08h2.59v-3.46h-2.59Zm12.35-7.5,5.17-7.6h-4.24L1340,1149.1a7.834,7.834,0,0,0-1.36,4.56,7.434,7.434,0,0,0,2.23,5.58,8.817,8.817,0,0,0,11.54,0,8.1,8.1,0,0,0,0-11.16,7.971,7.971,0,0,0-5.75-2.15h-0.42Zm-2.69,10.79a4.516,4.516,0,0,1,0-6.11,4.284,4.284,0,0,1,3.11-1.15,4.236,4.236,0,0,1,3.07,1.15,4.516,4.516,0,0,1,0,6.11,4.271,4.271,0,0,1-3.07,1.14A4.319,4.319,0,0,1,1343.55,1156.72Zm26.44-3.9v-3.36h-11.96v3.36h11.96Zm18.19,0.61v-5.88h-3.75v5.88h-7.07l7.78-15.1h-4.04l-7.78,15.1v3.46h11.11v4.08h3.75v-4.08h2.59v-3.46h-2.59Zm19.87-9.02a5.831,5.831,0,0,0-2.08-4.8,8.5,8.5,0,0,0-10.2,0,5.875,5.875,0,0,0-2.06,4.8,5.406,5.406,0,0,0,2.55,4.79,6.45,6.45,0,0,0-2.46,2.31,6.464,6.464,0,0,0,1.31,8.08,8.793,8.793,0,0,0,5.77,1.8,8.7,8.7,0,0,0,5.75-1.8,6,6,0,0,0,2.17-4.89,5.928,5.928,0,0,0-3.33-5.5A5.39,5.39,0,0,0,1408.05,1144.41Zm-4.7-2.16a2.822,2.822,0,0,1,.99,2.32,2.869,2.869,0,0,1-1,2.3,4.037,4.037,0,0,1-4.93,0,3.212,3.212,0,0,1-.02-4.62A4.2,4.2,0,0,1,1403.35,1142.25Zm-5.54,14.69a3.494,3.494,0,0,1,0-5.2,4.778,4.778,0,0,1,3.07-.92,4.728,4.728,0,0,1,3.04.92,3.494,3.494,0,0,1,0,5.2,4.728,4.728,0,0,1-3.04.92A4.778,4.778,0,0,1,1397.81,1156.94Z" transform="translate(-188 -981)"></path><path id="L_48" data-name="L 48" class="cls-3" d="M1465.14,1086.6h-3.72v22.63h12.93v-3.55h-9.21V1086.6Zm-1.21,66.83v-5.88h-3.75v5.88h-7.08l7.79-15.1h-4.04l-7.79,15.1v3.46h11.12v4.08h3.75v-4.08h2.58v-3.46h-2.58Zm19.87-9.02a5.831,5.831,0,0,0-2.08-4.8,8.5,8.5,0,0,0-10.2,0,5.853,5.853,0,0,0-2.07,4.8,5.415,5.415,0,0,0,2.56,4.79,6.379,6.379,0,0,0-2.46,2.31,6.464,6.464,0,0,0,1.31,8.08,10.116,10.116,0,0,0,11.52,0,6.024,6.024,0,0,0,2.17-4.89,5.928,5.928,0,0,0-3.33-5.5A5.39,5.39,0,0,0,1483.8,1144.41Zm-4.7-2.16a3.168,3.168,0,0,1-.02,4.62,4.022,4.022,0,0,1-4.92,0,3.212,3.212,0,0,1-.02-4.62A4.2,4.2,0,0,1,1479.1,1142.25Zm-5.54,14.69a3.474,3.474,0,0,1,0-5.2,5.532,5.532,0,0,1,6.11,0,3.494,3.494,0,0,1,0,5.2A5.532,5.532,0,0,1,1473.56,1156.94Z" transform="translate(-188 -981)"></path><path id="L_48-50" data-name="L 48-50" class="cls-3" d="M1568.82,1086.6h-3.71v22.63h12.92v-3.55h-9.21V1086.6Zm-28.79,66.83v-5.88h-3.75v5.88h-7.07l7.78-15.1h-4.04l-7.78,15.1v3.46h11.11v4.08h3.75v-4.08h2.59v-3.46h-2.59Zm19.87-9.02a5.831,5.831,0,0,0-2.08-4.8,8.485,8.485,0,0,0-10.19,0,5.853,5.853,0,0,0-2.07,4.8,5.406,5.406,0,0,0,2.55,4.79,6.45,6.45,0,0,0-2.46,2.31,6.464,6.464,0,0,0,1.31,8.08,8.793,8.793,0,0,0,5.77,1.8,8.7,8.7,0,0,0,5.75-1.8,6,6,0,0,0,2.17-4.89,5.928,5.928,0,0,0-3.33-5.5A5.39,5.39,0,0,0,1559.9,1144.41Zm-4.7-2.16a2.822,2.822,0,0,1,.99,2.32,2.869,2.869,0,0,1-1,2.3,4.037,4.037,0,0,1-4.93,0,3.212,3.212,0,0,1-.02-4.62A4.2,4.2,0,0,1,1555.2,1142.25Zm-5.54,14.69a3.494,3.494,0,0,1,0-5.2,4.778,4.778,0,0,1,3.07-.92,4.728,4.728,0,0,1,3.04.92,3.494,3.494,0,0,1,0,5.2,4.728,4.728,0,0,1-3.04.92A4.778,4.778,0,0,1,1549.66,1156.94Zm26.66-4.12v-3.36h-11.96v3.36h11.96Zm8.63-5.95,0.39-5.04h9.17v-3.5h-12.6l-0.87,12.16h6.59a4.515,4.515,0,0,1,3.01.97,3.325,3.325,0,0,1,1.13,2.65,3.364,3.364,0,0,1-1.15,2.67,4.5,4.5,0,0,1-3.05.99c-2.39,0-3.89-1.03-4.5-3.07l-3.19,1.84a6.824,6.824,0,0,0,2.94,3.6,9,9,0,0,0,4.75,1.25,8.421,8.421,0,0,0,5.62-1.94,7.415,7.415,0,0,0,.06-10.66,8.054,8.054,0,0,0-5.46-1.92h-2.84Zm30.7,2.78a14.116,14.116,0,0,0-2.34-8.53,8.277,8.277,0,0,0-13.09,0,16.735,16.735,0,0,0,0,17.07,8.293,8.293,0,0,0,13.09,0A14.169,14.169,0,0,0,1615.65,1149.65Zm-12.72,6.02a14.17,14.17,0,0,1,0-12.03,4.561,4.561,0,0,1,7.68,0,14.365,14.365,0,0,1,0,12.03A4.561,4.561,0,0,1,1602.93,1155.67Z" transform="translate(-188 -981)"></path><path id="L_50" data-name="L 50" class="cls-3" d="M1672.51,1086.6h-3.72v22.63h12.93v-3.55h-9.21V1086.6Zm-11.12,60.27,0.39-5.04h9.18v-3.5h-12.61l-0.87,12.16h6.59a4.515,4.515,0,0,1,3.01.97,3.673,3.673,0,0,1-.02,5.32,4.5,4.5,0,0,1-3.05.99c-2.39,0-3.89-1.03-4.49-3.07l-3.2,1.84a6.824,6.824,0,0,0,2.94,3.6,9.029,9.029,0,0,0,4.75,1.25,8.421,8.421,0,0,0,5.62-1.94,7.4,7.4,0,0,0,.07-10.66,8.1,8.1,0,0,0-5.47-1.92h-2.84Zm30.7,2.78a14.116,14.116,0,0,0-2.34-8.53,8.277,8.277,0,0,0-13.09,0,16.735,16.735,0,0,0,0,17.07,8.293,8.293,0,0,0,13.09,0A14.169,14.169,0,0,0,1692.09,1149.65Zm-12.72,6.02a14.17,14.17,0,0,1,0-12.03,4.561,4.561,0,0,1,7.68,0,14.365,14.365,0,0,1,0,12.03A4.561,4.561,0,0,1,1679.37,1155.67Z" transform="translate(-188 -981)"></path><path id="S_M_42-44" data-name="S/M 42-44" class="cls-3" d="M932.892,1108.43a5.945,5.945,0,0,0,2.214-4.87,6.943,6.943,0,0,0-.259-1.97,3.9,3.9,0,0,0-.889-1.56,13.912,13.912,0,0,0-1.179-1.13,6.7,6.7,0,0,0-1.632-.9q-1.083-.45-1.68-0.66c-0.4-.14-1.029-0.36-1.891-0.64a13.017,13.017,0,0,1-3.571-1.53,2.348,2.348,0,0,1-.985-1.99,2.46,2.46,0,0,1,.969-2.05,4.055,4.055,0,0,1,2.585-.76,4.867,4.867,0,0,1,4.751,3.17l3.134-1.81a8.668,8.668,0,0,0-3.134-3.66,8.539,8.539,0,0,0-4.751-1.32,7.777,7.777,0,0,0-5.138,1.76,5.85,5.85,0,0,0-2.133,4.77,6.017,6.017,0,0,0,.55,2.65,4.868,4.868,0,0,0,1.664,1.89,11.906,11.906,0,0,0,2.117,1.18c0.667,0.28,1.54.58,2.617,0.91a17.249,17.249,0,0,1,4.007,1.6,2.353,2.353,0,0,1,1.131,2.11,2.6,2.6,0,0,1-1.05,2.15,5.045,5.045,0,0,1-3.151.83,5.413,5.413,0,0,1-5.622-3.82l-3.2,1.88a7.822,7.822,0,0,0,3.183,4.07,9.933,9.933,0,0,0,5.542,1.49A8.96,8.96,0,0,0,932.892,1108.43Zm19.341-24.5h-1.778l-12.926,29.1h1.778Zm21.392,3.24-6.851,11.31-6.818-11.31h-4.007v22.63h3.716v-16.17l6.883,11.42H967l6.883-11.38v16.13H977.6v-22.63h-3.975ZM918.479,1154v-5.89h-3.748V1154h-7.077l7.788-15.1H911.4l-7.788,15.1v3.46h11.117v4.07h3.748v-4.07h2.585V1154h-2.585Zm19.357,7.53v-3.59h-9.371l5.105-5.11q3.846-3.9,3.846-7.37a6.464,6.464,0,0,0-2.133-5.11,7.468,7.468,0,0,0-5.106-1.87,8.244,8.244,0,0,0-4.3,1.16,7.717,7.717,0,0,0-3,3.43l3.135,1.84a4.435,4.435,0,0,1,4.2-2.81,3.54,3.54,0,0,1,2.5.92,3.353,3.353,0,0,1,.986,2.57q0,2.1-2.876,4.98l-7.885,8.05v2.91h14.9Zm15.737-8.15v-3.36H941.617v3.36h11.956Zm18.194,0.62v-5.89h-3.749V1154h-7.077l7.788-15.1H964.69L956.9,1154v3.46h11.116v4.07h3.749v-4.07h2.585V1154h-2.585Zm19.389,0v-5.89h-3.749V1154H980.33l7.788-15.1h-4.039l-7.788,15.1v3.46h11.116v4.07h3.749v-4.07h2.585V1154h-2.585Z" transform="translate(-188 -981)"></path><path id="M_44" data-name="M 44" class="cls-3" d="M1059.23,1087.29l-6.85,11.32-6.82-11.32h-4v22.64h3.71v-16.17l6.88,11.42h0.46l6.88-11.39v16.14h3.72v-22.64h-3.98Zm-10.31,66.84v-5.89h-3.75v5.89h-7.07l7.79-15.1h-4.04l-7.79,15.1v3.46h11.11v4.07h3.75v-4.07h2.59v-3.46h-2.59Zm19.39,0v-5.89h-3.75v5.89h-7.07l7.78-15.1h-4.03l-7.79,15.1v3.46h11.11v4.07h3.75v-4.07h2.59v-3.46h-2.59Z" transform="translate(-188 -981)"></path><path id="S_42" data-name="S 42" class="cls-3" d="M852.6,1108.64a5.942,5.942,0,0,0,2.214-4.87,6.943,6.943,0,0,0-.259-1.97,3.854,3.854,0,0,0-.888-1.55,12.494,12.494,0,0,0-1.18-1.13,6.33,6.33,0,0,0-1.632-.91q-1.083-.45-1.68-0.66t-1.891-.63a12.969,12.969,0,0,1-3.57-1.54,2.334,2.334,0,0,1-.986-1.99,2.473,2.473,0,0,1,.969-2.05,4.058,4.058,0,0,1,2.586-.76,4.879,4.879,0,0,1,4.75,3.17l3.135-1.81a8.738,8.738,0,0,0-3.135-3.66,8.536,8.536,0,0,0-4.75-1.32,7.827,7.827,0,0,0-5.138,1.76,5.877,5.877,0,0,0-2.133,4.77,6,6,0,0,0,.549,2.65,4.732,4.732,0,0,0,1.664,1.89,11.941,11.941,0,0,0,2.117,1.18,26.122,26.122,0,0,0,2.617.91,17.261,17.261,0,0,1,4.008,1.6,2.36,2.36,0,0,1,1.131,2.12,2.612,2.612,0,0,1-1.051,2.15,5.044,5.044,0,0,1-3.15.82,5.417,5.417,0,0,1-5.623-3.81l-3.2,1.87a7.836,7.836,0,0,0,3.183,4.08,9.924,9.924,0,0,0,5.542,1.48A8.959,8.959,0,0,0,852.6,1108.64Zm-8.676,45.57v-5.88h-3.749v5.88H833.1l7.788-15.1h-4.039l-7.788,15.1v3.46h11.116v4.08h3.749v-4.08h2.585v-3.46h-2.585Zm19.356,7.54v-3.59h-9.371l5.106-5.11q3.845-3.915,3.845-7.37a6.45,6.45,0,0,0-2.133-5.11,7.474,7.474,0,0,0-5.105-1.88,8.157,8.157,0,0,0-4.3,1.17,7.634,7.634,0,0,0-3.006,3.42l3.135,1.85a4.431,4.431,0,0,1,4.2-2.82,3.54,3.54,0,0,1,2.5.92,3.376,3.376,0,0,1,.986,2.58q0,2.1-2.876,4.97l-7.885,8.06v2.91h14.9Z" transform="translate(-188 -981)"></path><path id="XS_S_40-42" data-name="XS/S 40-42" class="cls-3" d="M717.965,1097.71l6.689-11h-4.233l-4.589,7.54-4.588-7.54h-4.2l6.689,11-7.109,11.64h4.233l4.976-8.18,4.977,8.18h4.233Zm22.508,10.26a5.924,5.924,0,0,0,2.213-4.86,7.017,7.017,0,0,0-.258-1.98,3.936,3.936,0,0,0-.889-1.55,12.374,12.374,0,0,0-1.18-1.13,6.672,6.672,0,0,0-1.631-.9c-0.722-.31-1.282-0.53-1.681-0.67s-1.029-.35-1.89-0.63a13.337,13.337,0,0,1-3.571-1.53,2.349,2.349,0,0,1-.986-1.99,2.49,2.49,0,0,1,.97-2.06,4.114,4.114,0,0,1,2.585-.76,4.878,4.878,0,0,1,4.75,3.17l3.135-1.81a8.643,8.643,0,0,0-3.135-3.65,8.54,8.54,0,0,0-4.75-1.33,7.783,7.783,0,0,0-5.138,1.77,5.844,5.844,0,0,0-2.133,4.76,6.046,6.046,0,0,0,.549,2.66,4.87,4.87,0,0,0,1.665,1.89,12.567,12.567,0,0,0,2.116,1.18,26.463,26.463,0,0,0,2.618.9,18.2,18.2,0,0,1,4.007,1.6,2.369,2.369,0,0,1,1.131,2.12,2.6,2.6,0,0,1-1.05,2.15,5.047,5.047,0,0,1-3.151.83,5.425,5.425,0,0,1-5.623-3.82l-3.2,1.88a7.817,7.817,0,0,0,3.183,4.07,9.933,9.933,0,0,0,5.542,1.49A8.909,8.909,0,0,0,740.473,1107.97Zm19.34-24.49h-1.777l-12.926,29.1h1.777Zm17.046,24.49a5.922,5.922,0,0,0,2.214-4.86,6.979,6.979,0,0,0-.259-1.98,3.921,3.921,0,0,0-.888-1.55,12.494,12.494,0,0,0-1.18-1.13,6.662,6.662,0,0,0-1.632-.9c-0.722-.31-1.282-0.53-1.68-0.67s-1.029-.35-1.89-0.63a13.337,13.337,0,0,1-3.571-1.53,2.346,2.346,0,0,1-.986-1.99,2.49,2.49,0,0,1,.97-2.06,4.114,4.114,0,0,1,2.585-.76,4.879,4.879,0,0,1,4.75,3.17l3.135-1.81a8.65,8.65,0,0,0-3.135-3.65,8.542,8.542,0,0,0-4.75-1.33,7.783,7.783,0,0,0-5.138,1.77,5.844,5.844,0,0,0-2.133,4.76,6.046,6.046,0,0,0,.549,2.66,4.868,4.868,0,0,0,1.664,1.89,12.612,12.612,0,0,0,2.117,1.18,26.463,26.463,0,0,0,2.618.9,18.227,18.227,0,0,1,4.007,1.6,2.369,2.369,0,0,1,1.131,2.12,2.6,2.6,0,0,1-1.05,2.15,5.047,5.047,0,0,1-3.151.83,5.425,5.425,0,0,1-5.623-3.82l-3.2,1.88a7.817,7.817,0,0,0,3.183,4.07,9.933,9.933,0,0,0,5.542,1.49A8.9,8.9,0,0,0,776.859,1107.97Zm-64.517,45.58v-5.89h-3.748v5.89h-7.077l7.788-15.1h-4.04l-7.788,15.1v3.46h11.117v4.07h3.748v-4.07h2.586v-3.46h-2.586Zm22.524-3.79a14.124,14.124,0,0,0-2.343-8.53,8.291,8.291,0,0,0-13.088,0,16.723,16.723,0,0,0,0,17.07,8.291,8.291,0,0,0,13.088,0A14.135,14.135,0,0,0,734.866,1149.76Zm-12.716,6.02a14.161,14.161,0,0,1,0-12.03,4.556,4.556,0,0,1,7.675,0,14.315,14.315,0,0,1,0,12.03A4.556,4.556,0,0,1,722.15,1155.78Zm28.55-2.85v-3.36H738.744v3.36H750.7Zm18.194,0.62v-5.89h-3.749v5.89h-7.077l7.788-15.1h-4.039l-7.788,15.1v3.46h11.116v4.07h3.749v-4.07h2.585v-3.46h-2.585Zm19.356,7.53v-3.59h-9.371l5.106-5.11c2.563-2.61,3.845-5.06,3.845-7.37a6.466,6.466,0,0,0-2.132-5.11,7.468,7.468,0,0,0-5.106-1.87,8.149,8.149,0,0,0-4.3,1.16,7.711,7.711,0,0,0-3,3.43l3.134,1.84a4.436,4.436,0,0,1,4.2-2.81,3.544,3.544,0,0,1,2.5.92,3.342,3.342,0,0,1,.985,2.57q0,2.1-2.876,4.98l-7.885,8.05v2.91h14.9Z" transform="translate(-188 -981)"></path><path id="_63_89_74" data-name="63 89 74" class="cls-3" d="M732.32,1234.72l5.559-8.27h-2.553l-7.4,11.02a7.687,7.687,0,0,0-1.39,4.53,7.188,7.188,0,0,0,2.133,5.38,8.18,8.18,0,0,0,10.922,0,7.851,7.851,0,0,0,0-10.76,7.488,7.488,0,0,0-5.461-2.09,8.277,8.277,0,0,0-1.81.19h0ZM728.8,1242a5.147,5.147,0,0,1,1.47-3.82,5.868,5.868,0,0,1,7.724,0,5.685,5.685,0,0,1,0,7.63,5.838,5.838,0,0,1-7.724,0A5.124,5.124,0,0,1,728.8,1242Zm29.245-13.42v-2.13H744.794v2.13h10.632l-5.623,7.7,0.969,1.48h0.614l0.033-.03v0.03a5.8,5.8,0,0,1,3.829,1.25,4.838,4.838,0,0,1,0,7.01,5.8,5.8,0,0,1-3.829,1.25,6.531,6.531,0,0,1-3.426-.86,4.439,4.439,0,0,1-1.971-2.54l-1.874,1.1a6.272,6.272,0,0,0,2.779,3.33,8.63,8.63,0,0,0,4.492,1.17,8.084,8.084,0,0,0,5.38-1.86,6.3,6.3,0,0,0,2.214-5.09,6.126,6.126,0,0,0-1.761-4.58,7.57,7.57,0,0,0-4.476-2.08Zm-17.175,55.48a5.615,5.615,0,0,0-2.02-4.65,7.917,7.917,0,0,0-9.6,0,5.612,5.612,0,0,0-2.02,4.65,5.5,5.5,0,0,0,3,5.08,6.851,6.851,0,0,0-2.73,2.25,5.532,5.532,0,0,0-1.018,3.28,5.792,5.792,0,0,0,2.165,4.8,9.282,9.282,0,0,0,10.793,0,5.8,5.8,0,0,0,2.165-4.8,5.532,5.532,0,0,0-1.018-3.28,6.858,6.858,0,0,0-2.73-2.25,5.5,5.5,0,0,0,3-5.08h0Zm-2.262,0a3.618,3.618,0,0,1-1.341,3.01,5.367,5.367,0,0,1-6.431,0,4.15,4.15,0,0,1-.032-6.08,5.773,5.773,0,0,1,6.5,0,3.633,3.633,0,0,1,1.309,3.07h0Zm-9.856,10.61a3.826,3.826,0,0,1,1.454-3.22,7.216,7.216,0,0,1,7.691,0,4.292,4.292,0,0,1,0,6.44,7.216,7.216,0,0,1-7.691,0A3.826,3.826,0,0,1,728.75,1294.67Zm28.825-14.79a8.181,8.181,0,0,0-10.923,0,7.854,7.854,0,0,0,0,10.76,7.49,7.49,0,0,0,5.462,2.09,8.268,8.268,0,0,0,1.809-.19l-5.558,8.27h2.553l7.4-11.02a7.694,7.694,0,0,0,1.39-4.53A7.188,7.188,0,0,0,757.575,1279.88Zm-5.461.11a5.254,5.254,0,0,1,3.861,1.46,5.683,5.683,0,0,1,0,7.63,5.867,5.867,0,0,1-7.723,0,5.685,5.685,0,0,1,0-7.63A5.254,5.254,0,0,1,752.114,1279.99Zm-25.174,52.06h11.537l-8.532,20.5H732.3l8.532-20.5v-2.14h-13.9v2.14Zm28.922,13.84v-6.92H753.6v6.92h-9.468l8.4-15.98h-2.489l-8.4,15.98v2.13H753.6v4.53h2.262v-4.53h2.908v-2.13h-2.908Z" transform="translate(-188 -981)"></path><path id="_66_92_74" data-name="66 92 74" class="cls-3" d="M835.31,1234.72l5.558-8.27h-2.553l-7.4,11.02a7.693,7.693,0,0,0-1.389,4.53,7.191,7.191,0,0,0,2.132,5.38,8.181,8.181,0,0,0,10.923,0,7.851,7.851,0,0,0,0-10.76,7.491,7.491,0,0,0-5.461-2.09,8.277,8.277,0,0,0-1.81.19h0Zm-3.522,7.28a5.147,5.147,0,0,1,1.47-3.82,5.867,5.867,0,0,1,7.723,0,5.683,5.683,0,0,1,0,7.63,5.837,5.837,0,0,1-7.723,0A5.124,5.124,0,0,1,831.788,1242Zm21.295-7.28,5.559-8.27h-2.553l-7.4,11.02a7.687,7.687,0,0,0-1.39,4.53,7.188,7.188,0,0,0,2.133,5.38,8.18,8.18,0,0,0,10.922,0,7.851,7.851,0,0,0,0-10.76,7.489,7.489,0,0,0-5.461-2.09,8.277,8.277,0,0,0-1.81.19h0Zm-3.522,7.28a5.147,5.147,0,0,1,1.47-3.82,5.868,5.868,0,0,1,7.724,0,5.685,5.685,0,0,1,0,7.63,5.838,5.838,0,0,1-7.724,0A5.124,5.124,0,0,1,849.561,1242Zm-6.9,37.88a8.181,8.181,0,0,0-10.923,0,7.851,7.851,0,0,0,0,10.76,7.489,7.489,0,0,0,5.461,2.09,8.277,8.277,0,0,0,1.81-.19l-5.558,8.27h2.553l7.4-11.02a7.693,7.693,0,0,0,1.389-4.53A7.187,7.187,0,0,0,842.662,1279.88Zm-5.462.11a5.258,5.258,0,0,1,3.862,1.46,5.685,5.685,0,0,1,0,7.63,5.867,5.867,0,0,1-7.723,0,5.683,5.683,0,0,1,0-7.63A5.254,5.254,0,0,1,837.2,1279.99Zm24.883,20.82v-2.2H850.934l6.463-6.43a20.873,20.873,0,0,0,3.1-3.82,7.149,7.149,0,0,0,1.1-3.78,6.306,6.306,0,0,0-2.052-4.96,6.942,6.942,0,0,0-4.766-1.83,7.815,7.815,0,0,0-4.072,1.09,7.518,7.518,0,0,0-2.908,3.18l1.906,1.13a5.3,5.3,0,0,1,5.074-3.2A4.619,4.619,0,0,1,858,1281.2a4.334,4.334,0,0,1,1.341,3.38c0,1.66-1.163,3.66-3.49,5.98l-8.143,8.22v2.03h14.38Zm-32.073,31.24h11.537l-8.531,20.5h2.359l8.531-20.5v-2.14h-13.9v2.14Zm28.922,13.84v-6.92H856.67v6.92H847.2l8.4-15.98h-2.488l-8.4,15.98v2.13H856.67v4.53h2.262v-4.53h2.909v-2.13h-2.909Z" transform="translate(-188 -981)"></path><path id="_68_94_74" data-name="68 94 74" class="cls-3" d="M937.9,1234.72l5.558-8.27H940.9l-7.4,11.02a7.687,7.687,0,0,0-1.39,4.53,7.188,7.188,0,0,0,2.133,5.38,8.18,8.18,0,0,0,10.922,0,7.851,7.851,0,0,0,0-10.76,7.488,7.488,0,0,0-5.461-2.09,8.261,8.261,0,0,0-1.809.19h0Zm-3.523,7.28a5.144,5.144,0,0,1,1.471-3.82,5.867,5.867,0,0,1,7.723,0,5.685,5.685,0,0,1,0,7.63,5.837,5.837,0,0,1-7.723,0A5.12,5.12,0,0,1,934.376,1242Zm30.215-9.67a5.6,5.6,0,0,0-2.02-4.65,7.917,7.917,0,0,0-9.6,0,5.6,5.6,0,0,0-2.02,4.65,5.512,5.512,0,0,0,3,5.08,6.912,6.912,0,0,0-2.73,2.24,5.563,5.563,0,0,0-1.018,3.29,5.8,5.8,0,0,0,2.165,4.8,9.282,9.282,0,0,0,10.793,0,5.808,5.808,0,0,0,2.165-4.8,5.563,5.563,0,0,0-1.018-3.29,6.915,6.915,0,0,0-2.731-2.24,5.511,5.511,0,0,0,3.006-5.08h0Zm-2.262,0a3.634,3.634,0,0,1-1.341,3.01,5.367,5.367,0,0,1-6.431,0,4.15,4.15,0,0,1-.032-6.08,5.773,5.773,0,0,1,6.5,0,3.624,3.624,0,0,1,1.309,3.07h0Zm-9.856,10.61a3.811,3.811,0,0,1,1.454-3.22,7.162,7.162,0,0,1,7.691,0,4.281,4.281,0,0,1,0,6.43,7.162,7.162,0,0,1-7.691,0A3.792,3.792,0,0,1,952.473,1242.94Zm-7.5,36.94a8.181,8.181,0,0,0-10.923,0,7.851,7.851,0,0,0,0,10.76,7.489,7.489,0,0,0,5.461,2.09,8.277,8.277,0,0,0,1.81-.19l-5.558,8.27h2.553l7.4-11.02a7.693,7.693,0,0,0,1.389-4.53A7.191,7.191,0,0,0,944.976,1279.88Zm-5.462.11a5.258,5.258,0,0,1,3.862,1.46,5.685,5.685,0,0,1,0,7.63,5.867,5.867,0,0,1-7.723,0,5.683,5.683,0,0,1,0-7.63A5.254,5.254,0,0,1,939.514,1279.99Zm23.59,14.16v-6.92h-2.262v6.92h-9.468l8.4-15.97h-2.488l-8.4,15.97v2.14h11.956v4.52H963.1v-4.52h2.909v-2.14H963.1Zm-30.214,37.9h11.536l-8.531,20.5h2.359l8.531-20.5v-2.14H932.89v2.14Zm28.922,13.84v-6.92H959.55v6.92h-9.469l8.4-15.98H956l-8.4,15.98v2.13H959.55v4.53h2.262v-4.53h2.908v-2.13h-2.908Z" transform="translate(-188 -981)"></path><path id="_71_97_74" data-name="71 97 74" class="cls-3" d="M1039.53,1228.58h11.54l-8.53,20.5h2.36l8.53-20.5v-2.13h-13.9v2.13Zm16.32-.06,0.58,1.94,5.08-1.52v20.14h2.26v-22.63h-1.94Zm-5.85,51.36a8.177,8.177,0,0,0-10.92,0,7.859,7.859,0,0,0,0,10.76,7.482,7.482,0,0,0,5.46,2.09,8.232,8.232,0,0,0,1.81-.19l-5.56,8.27h2.56l7.4-11.02a7.737,7.737,0,0,0,1.39-4.53A7.2,7.2,0,0,0,1050,1279.88Zm-5.46.11a5.242,5.242,0,0,1,3.86,1.46,5.685,5.685,0,0,1,0,7.63,5.863,5.863,0,0,1-7.72,0,5.685,5.685,0,0,1,0-7.63A5.258,5.258,0,0,1,1044.54,1279.99Zm9.53,0.32h11.54l-8.53,20.5h2.36l8.53-20.5v-2.13h-13.9v2.13Zm-17.45,51.74h11.54l-8.53,20.5h2.36l8.53-20.5v-2.14h-13.9v2.14Zm28.93,13.84v-6.92h-2.27v6.92h-9.46l8.4-15.98h-2.49l-8.4,15.98v2.13h11.95v4.53h2.27v-4.53h2.9v-2.13h-2.9Z" transform="translate(-188 -981)"></path><path id="_73_99_74" data-name="73 99 74" class="cls-3" d="M1140.15,1228.58h11.53l-8.53,20.5h2.36l8.53-20.5v-2.13h-13.89v2.13Zm30.7,0v-2.13H1157.6v2.13h10.63l-5.62,7.7,0.96,1.48h0.62l0.03-.03v0.03a5.8,5.8,0,0,1,3.83,1.25,4.845,4.845,0,0,1,0,7.01,5.8,5.8,0,0,1-3.83,1.25,6.5,6.5,0,0,1-3.42-.86,4.461,4.461,0,0,1-1.98-2.54l-1.87,1.1a6.257,6.257,0,0,0,2.78,3.33,8.615,8.615,0,0,0,4.49,1.17,8.075,8.075,0,0,0,5.38-1.86,6.292,6.292,0,0,0,2.22-5.09,6.109,6.109,0,0,0-1.77-4.58,7.539,7.539,0,0,0-4.47-2.08Zm-17.97,51.3a8.177,8.177,0,0,0-10.92,0,7.833,7.833,0,0,0,0,10.76,7.482,7.482,0,0,0,5.46,2.09,8.3,8.3,0,0,0,1.81-.19l-5.56,8.27h2.55l7.4-11.02a7.666,7.666,0,0,0,1.39-4.53A7.194,7.194,0,0,0,1152.88,1279.88Zm-5.46.11a5.258,5.258,0,0,1,3.86,1.46,5.685,5.685,0,0,1,0,7.63,5.863,5.863,0,0,1-7.72,0,5.685,5.685,0,0,1,0-7.63A5.242,5.242,0,0,1,1147.42,1279.99Zm23.23-.11a8.177,8.177,0,0,0-10.92,0,7.859,7.859,0,0,0,0,10.76,7.482,7.482,0,0,0,5.46,2.09,8.3,8.3,0,0,0,1.81-.19l-5.56,8.27h2.55l7.4-11.02a7.666,7.666,0,0,0,1.39-4.53A7.194,7.194,0,0,0,1170.65,1279.88Zm-5.46.11a5.258,5.258,0,0,1,3.86,1.46,5.685,5.685,0,0,1,0,7.63,5.863,5.863,0,0,1-7.72,0,5.685,5.685,0,0,1,0-7.63A5.258,5.258,0,0,1,1165.19,1279.99Zm-24.88,52.06h11.53l-8.53,20.5h2.36l8.53-20.5v-2.14h-13.89v2.14Zm28.92,13.84v-6.92h-2.26v6.92h-9.47l8.4-15.98h-2.49l-8.4,15.98v2.13h11.96v4.53h2.26v-4.53h2.91v-2.13h-2.91Z" transform="translate(-188 -981)"></path><path id="_76_102_74" data-name="76 102 74" class="cls-3" d="M1245.27,1228.58h11.53l-8.53,20.5h2.36l8.53-20.5v-2.13h-13.89v2.13Zm21.29,6.14,5.56-8.27h-2.55l-7.4,11.02a7.666,7.666,0,0,0-1.39,4.53,7.194,7.194,0,0,0,2.13,5.38,8.177,8.177,0,0,0,10.92,0,7.833,7.833,0,0,0,0-10.76,7.482,7.482,0,0,0-5.46-2.09,8.3,8.3,0,0,0-1.81.19h0Zm-3.52,7.28a5.147,5.147,0,0,1,1.47-3.82,5.863,5.863,0,0,1,7.72,0,5.685,5.685,0,0,1,0,7.63,5.833,5.833,0,0,1-7.72,0A5.124,5.124,0,0,1,1263.04,1242Zm-26.42,38.25,0.58,1.94,5.08-1.52v20.14h2.26v-22.63h-1.94Zm29.89,9.25c0-3.56-.74-6.4-2.24-8.52a7.856,7.856,0,0,0-12.64,0,17.323,17.323,0,0,0,0,17.04,7.87,7.87,0,0,0,12.64,0A14.521,14.521,0,0,0,1266.51,1289.5Zm-14.86,0a12.564,12.564,0,0,1,1.66-7.02,5.568,5.568,0,0,1,9.28,0,15.652,15.652,0,0,1,0,14.03,5.568,5.568,0,0,1-9.28,0A12.55,12.55,0,0,1,1251.65,1289.5Zm32.48,11.31v-2.2h-11.15l6.46-6.43a20.555,20.555,0,0,0,3.1-3.82,7.081,7.081,0,0,0,1.1-3.78,6.3,6.3,0,0,0-2.05-4.96,6.953,6.953,0,0,0-4.77-1.83,7.831,7.831,0,0,0-4.07,1.09,7.5,7.5,0,0,0-2.91,3.18l1.91,1.13a5.307,5.307,0,0,1,5.07-3.2,4.64,4.64,0,0,1,3.22,1.21,4.347,4.347,0,0,1,1.34,3.38c0,1.66-1.16,3.66-3.49,5.98l-8.14,8.22v2.03h14.38Zm-39.35,31.24h11.54l-8.53,20.5h2.36l8.53-20.5v-2.14h-13.9v2.14Zm28.92,13.84v-6.92h-2.26v6.92h-9.47l8.41-15.98h-2.49l-8.4,15.98v2.13h11.95v4.53h2.26v-4.53h2.91v-2.13h-2.91Z" transform="translate(-188 -981)"></path><path id="_78_104_74" data-name="78 104 74" class="cls-3" d="M1348.34,1228.58h11.53l-8.53,20.5h2.36l8.53-20.5v-2.13h-13.89v2.13Zm30.86,3.75a5.619,5.619,0,0,0-2.02-4.65,7.921,7.921,0,0,0-9.6,0,5.591,5.591,0,0,0-2.02,4.65,5.5,5.5,0,0,0,3.01,5.08,6.8,6.8,0,0,0-2.73,2.24,5.558,5.558,0,0,0-1.02,3.29,5.812,5.812,0,0,0,2.16,4.8,9.293,9.293,0,0,0,10.8,0,5.812,5.812,0,0,0,2.16-4.8,5.558,5.558,0,0,0-1.02-3.29,6.94,6.94,0,0,0-2.73-2.24,5.5,5.5,0,0,0,3.01-5.08h0Zm-2.26,0a3.642,3.642,0,0,1-1.34,3.01,5.38,5.38,0,0,1-6.44,0,4.15,4.15,0,0,1-.03-6.08,5.781,5.781,0,0,1,6.5,0,3.63,3.63,0,0,1,1.31,3.07h0Zm-9.86,10.61a3.808,3.808,0,0,1,1.45-3.22,7.177,7.177,0,0,1,7.7,0,4.289,4.289,0,0,1,0,6.43,7.177,7.177,0,0,1-7.7,0A3.789,3.789,0,0,1,1367.08,1242.94Zm-27.82,37.31,0.58,1.94,5.07-1.52v20.14h2.26v-22.63h-1.93Zm29.89,9.25a14.479,14.479,0,0,0-2.25-8.52,7.846,7.846,0,0,0-12.63,0,17.256,17.256,0,0,0,0,17.04,7.86,7.86,0,0,0,12.63,0A14.522,14.522,0,0,0,1369.15,1289.5Zm-14.87,0a12.56,12.56,0,0,1,1.67-7.02,5.559,5.559,0,0,1,9.27,0,15.569,15.569,0,0,1,0,14.03,5.559,5.559,0,0,1-9.27,0A12.547,12.547,0,0,1,1354.28,1289.5Zm32.16,4.65v-6.92h-2.27v6.92h-9.46l8.4-15.97h-2.49l-8.4,15.97v2.14h11.95v4.52h2.27v-4.52h2.91v-2.14h-2.91Zm-37.97,37.9H1360l-8.53,20.5h2.36l8.53-20.5v-2.14h-13.89v2.14Zm28.92,13.84v-6.92h-2.26v6.92h-9.47l8.4-15.98h-2.49l-8.4,15.98v2.13h11.96v4.53h2.26v-4.53h2.91v-2.13h-2.91Z" transform="translate(-188 -981)"></path><path id="_81_107_74" data-name="81 107 74" class="cls-3" d="M1467.89,1232.33a5.619,5.619,0,0,0-2.02-4.65,7.921,7.921,0,0,0-9.6,0,5.591,5.591,0,0,0-2.02,4.65,5.5,5.5,0,0,0,3.01,5.08,6.8,6.8,0,0,0-2.73,2.24,5.558,5.558,0,0,0-1.02,3.29,5.812,5.812,0,0,0,2.16,4.8,9.293,9.293,0,0,0,10.8,0,5.812,5.812,0,0,0,2.16-4.8,5.558,5.558,0,0,0-1.02-3.29,6.94,6.94,0,0,0-2.73-2.24,5.5,5.5,0,0,0,3.01-5.08h0Zm-2.26,0a3.642,3.642,0,0,1-1.34,3.01,5.38,5.38,0,0,1-6.44,0,4.15,4.15,0,0,1-.03-6.08,5.781,5.781,0,0,1,6.5,0,3.63,3.63,0,0,1,1.31,3.07h0Zm-9.86,10.61a3.808,3.808,0,0,1,1.45-3.22,7.177,7.177,0,0,1,7.7,0,4.289,4.289,0,0,1,0,6.43,7.177,7.177,0,0,1-7.7,0A3.789,3.789,0,0,1,1455.77,1242.94Zm14.64-14.42,0.58,1.94,5.07-1.52v20.14h2.27v-22.63h-1.94Zm-27.28,51.73,0.59,1.94,5.07-1.52v20.14h2.26v-22.63h-1.94Zm29.9,9.25a14.479,14.479,0,0,0-2.25-8.52,7.846,7.846,0,0,0-12.63,0,17.256,17.256,0,0,0,0,17.04,7.86,7.86,0,0,0,12.63,0A14.522,14.522,0,0,0,1473.03,1289.5Zm-14.87,0a12.56,12.56,0,0,1,1.67-7.02,5.559,5.559,0,0,1,9.27,0,15.652,15.652,0,0,1,0,14.03,5.559,5.559,0,0,1-9.27,0A12.547,12.547,0,0,1,1458.16,1289.5Zm17.13-9.19h11.53l-8.53,20.5h2.36l8.53-20.5v-2.13h-13.89v2.13Zm-24.72,51.74h11.53l-8.53,20.5h2.36l8.53-20.5v-2.14h-13.89v2.14Zm28.92,13.84v-6.92h-2.26v6.92h-9.47l8.4-15.98h-2.49l-8.4,15.98v2.13h11.96v4.53h2.26v-4.53h2.91v-2.13h-2.91Z" transform="translate(-188 -981)"></path><path id="_83_109_74" data-name="83 109 74" class="cls-3" d="M1568.34,1232.33a5.591,5.591,0,0,0-2.02-4.65,7.921,7.921,0,0,0-9.6,0,5.619,5.619,0,0,0-2.02,4.65,5.522,5.522,0,0,0,3.01,5.08,6.94,6.94,0,0,0-2.73,2.24,5.558,5.558,0,0,0-1.02,3.29,5.792,5.792,0,0,0,2.17,4.8,9.277,9.277,0,0,0,10.79,0,5.812,5.812,0,0,0,2.16-4.8,5.619,5.619,0,0,0-1.01-3.29,6.94,6.94,0,0,0-2.73-2.24,5.513,5.513,0,0,0,3-5.08h0Zm-2.26,0a3.642,3.642,0,0,1-1.34,3.01,5.365,5.365,0,0,1-6.43,0,4.16,4.16,0,0,1-.04-6.08,5.781,5.781,0,0,1,6.5,0,3.63,3.63,0,0,1,1.31,3.07h0Zm-9.86,10.61a3.815,3.815,0,0,1,1.46-3.22,7.16,7.16,0,0,1,7.69,0,4.289,4.289,0,0,1,0,6.43,7.16,7.16,0,0,1-7.69,0A3.8,3.8,0,0,1,1556.22,1242.94Zm29.34-14.36v-2.13h-13.24v2.13h10.63l-5.63,7.7,0.97,1.48h0.62l0.03-.03v0.03a5.8,5.8,0,0,1,3.83,1.25,4.845,4.845,0,0,1,0,7.01,5.8,5.8,0,0,1-3.83,1.25,6.54,6.54,0,0,1-3.43-.86,4.487,4.487,0,0,1-1.97-2.54l-1.87,1.1a6.257,6.257,0,0,0,2.78,3.33,8.615,8.615,0,0,0,4.49,1.17,8.093,8.093,0,0,0,5.38-1.86,6.284,6.284,0,0,0,2.21-5.09,6.1,6.1,0,0,0-1.76-4.58,7.539,7.539,0,0,0-4.47-2.08Zm-39.71,51.67,0.58,1.94,5.07-1.52v20.14h2.27v-22.63h-1.94Zm29.89,9.25a14.479,14.479,0,0,0-2.25-8.52,7.846,7.846,0,0,0-12.63,0,17.256,17.256,0,0,0,0,17.04,7.86,7.86,0,0,0,12.63,0A14.522,14.522,0,0,0,1575.74,1289.5Zm-14.86,0a12.564,12.564,0,0,1,1.66-7.02,5.559,5.559,0,0,1,9.27,0,15.569,15.569,0,0,1,0,14.03,5.559,5.559,0,0,1-9.27,0A12.55,12.55,0,0,1,1560.88,1289.5Zm31.15-9.62a8.19,8.19,0,0,0-10.93,0,7.859,7.859,0,0,0,0,10.76,7.522,7.522,0,0,0,5.47,2.09,8.362,8.362,0,0,0,1.81-.19l-5.56,8.27h2.55l7.4-11.02a7.666,7.666,0,0,0,1.39-4.53A7.194,7.194,0,0,0,1592.03,1279.88Zm-5.46.11a5.258,5.258,0,0,1,3.86,1.46,5.685,5.685,0,0,1,0,7.63,5.876,5.876,0,0,1-7.73,0,5.685,5.685,0,0,1,0-7.63A5.265,5.265,0,0,1,1586.57,1279.99Zm-32.32,52.06h11.54l-8.53,20.5h2.36l8.53-20.5v-2.14h-13.9v2.14Zm28.92,13.84v-6.92h-2.26v6.92h-9.47l8.4-15.98h-2.48l-8.41,15.98v2.13h11.96v4.53h2.26v-4.53h2.91v-2.13h-2.91Z" transform="translate(-188 -981)"></path><path id="_86_112_74" data-name="86 112 74" class="cls-3" d="M1671.7,1232.33a5.591,5.591,0,0,0-2.02-4.65,7.921,7.921,0,0,0-9.6,0,5.619,5.619,0,0,0-2.02,4.65,5.522,5.522,0,0,0,3.01,5.08,6.94,6.94,0,0,0-2.73,2.24,5.558,5.558,0,0,0-1.02,3.29,5.792,5.792,0,0,0,2.17,4.8,9.277,9.277,0,0,0,10.79,0,5.812,5.812,0,0,0,2.16-4.8,5.619,5.619,0,0,0-1.01-3.29,6.94,6.94,0,0,0-2.73-2.24,5.513,5.513,0,0,0,3-5.08h0Zm-2.26,0a3.642,3.642,0,0,1-1.34,3.01,5.365,5.365,0,0,1-6.43,0,4.16,4.16,0,0,1-.04-6.08,5.781,5.781,0,0,1,6.5,0,3.63,3.63,0,0,1,1.31,3.07h0Zm-9.86,10.61a3.815,3.815,0,0,1,1.46-3.22,7.16,7.16,0,0,1,7.69,0,4.289,4.289,0,0,1,0,6.43,7.16,7.16,0,0,1-7.69,0A3.8,3.8,0,0,1,1659.58,1242.94Zm21.88-8.22,5.56-8.27h-2.55l-7.4,11.02a7.666,7.666,0,0,0-1.39,4.53,7.194,7.194,0,0,0,2.13,5.38,8.177,8.177,0,0,0,10.92,0,7.859,7.859,0,0,0,0-10.76,7.482,7.482,0,0,0-5.46-2.09,8.232,8.232,0,0,0-1.81.19h0Zm-3.52,7.28a5.147,5.147,0,0,1,1.47-3.82,5.863,5.863,0,0,1,7.72,0,5.685,5.685,0,0,1,0,7.63,5.833,5.833,0,0,1-7.72,0A5.124,5.124,0,0,1,1677.94,1242Zm-23.64,38.25,0.58,1.94,5.07-1.52v20.14h2.27v-22.63h-1.94Zm11.63,0,0.58,1.94,5.08-1.52v20.14h2.26v-22.63h-1.94Zm26.82,20.56v-2.2h-11.14l6.46-6.43a20.971,20.971,0,0,0,3.1-3.82,7.17,7.17,0,0,0,1.1-3.78,6.3,6.3,0,0,0-2.05-4.96,6.953,6.953,0,0,0-4.77-1.83,7.805,7.805,0,0,0-4.07,1.09,7.5,7.5,0,0,0-2.91,3.18l1.91,1.13a5.288,5.288,0,0,1,5.07-3.2,4.64,4.64,0,0,1,3.22,1.21,4.347,4.347,0,0,1,1.34,3.38c0,1.66-1.17,3.66-3.49,5.98l-8.15,8.22v2.03h14.38Zm-34.82,31.24h11.54l-8.53,20.5h2.36l8.53-20.5v-2.14h-13.9v2.14Zm28.93,13.84v-6.92h-2.27v6.92h-9.46l8.4-15.98h-2.49l-8.4,15.98v2.13h11.95v4.53h2.27v-4.53h2.9v-2.13h-2.9Z" transform="translate(-188 -981)"></path></g><g id="Группа_2" data-name="Группа 2"><path id="L_XL_50-52" data-name="L/XL 50-52" class="cls-3" d="M712.674,1535.59h-3.716v22.64h12.926v-3.56h-9.21v-19.08Zm25.852-3.23h-1.777l-12.926,29.1H725.6Zm13.282,14.23,6.689-11h-4.234l-4.588,7.54-4.589-7.54h-4.2l6.689,11-7.109,11.64H744.7l4.977-8.18,4.976,8.18h4.234Zm13.863-11h-3.717v22.64H774.88v-3.56h-9.209v-19.08Zm-63.451,60.27,0.388-5.04h9.177v-3.49h-12.6l-0.872,12.15H704.9a4.492,4.492,0,0,1,3,.97,3.676,3.676,0,0,1-.016,5.32,4.513,4.513,0,0,1-3.054.99c-2.391,0-3.888-1.03-4.491-3.07l-3.2,1.84a6.839,6.839,0,0,0,2.941,3.6,9.032,9.032,0,0,0,4.75,1.25,8.431,8.431,0,0,0,5.623-1.94,7.4,7.4,0,0,0,.065-10.65,8.038,8.038,0,0,0-5.461-1.93H702.22Zm30.7,2.78a14.124,14.124,0,0,0-2.343-8.53,8.29,8.29,0,0,0-13.087,0,16.717,16.717,0,0,0,0,17.07,8.29,8.29,0,0,0,13.087,0A14.156,14.156,0,0,0,732.919,1598.64Zm-12.716,6.02a14.161,14.161,0,0,1,0-12.03,4.556,4.556,0,0,1,7.675,0,14.315,14.315,0,0,1,0,12.03A4.556,4.556,0,0,1,720.2,1604.66Zm28.551-2.85v-3.36H736.8v3.36h11.957Zm8.628-5.95,0.388-5.04h9.177v-3.49h-12.6l-0.872,12.15h6.592a4.492,4.492,0,0,1,3,.97,3.676,3.676,0,0,1-.016,5.32,4.513,4.513,0,0,1-3.054.99c-2.391,0-3.889-1.03-4.491-3.07l-3.2,1.84a6.839,6.839,0,0,0,2.941,3.6,9.032,9.032,0,0,0,4.75,1.25,8.431,8.431,0,0,0,5.623-1.94,7.4,7.4,0,0,0,.065-10.65,8.038,8.038,0,0,0-5.461-1.93h-2.844Zm27.306,14.1v-3.59h-9.371l5.106-5.11c2.563-2.61,3.845-5.06,3.845-7.37a6.45,6.45,0,0,0-2.133-5.11,7.468,7.468,0,0,0-5.106-1.87,8.148,8.148,0,0,0-4.3,1.16,7.713,7.713,0,0,0-3.006,3.43l3.135,1.84a4.421,4.421,0,0,1,4.2-2.81,3.5,3.5,0,0,1,2.5.92,3.339,3.339,0,0,1,.986,2.57q0,2.1-2.876,4.98l-7.885,8.05v2.91h14.9Z" transform="translate(-188 -981)"></path><path id="_88_114_74" data-name="88 114 74" class="cls-3" d="M739.028,1681.32a5.6,5.6,0,0,0-2.02-4.65,7.917,7.917,0,0,0-9.6,0,5.6,5.6,0,0,0-2.02,4.65,5.512,5.512,0,0,0,3,5.08,6.851,6.851,0,0,0-2.73,2.25,5.532,5.532,0,0,0-1.018,3.28,5.792,5.792,0,0,0,2.165,4.8,9.282,9.282,0,0,0,10.793,0,5.8,5.8,0,0,0,2.165-4.8,5.532,5.532,0,0,0-1.018-3.28,6.858,6.858,0,0,0-2.73-2.25,5.512,5.512,0,0,0,3-5.08h0Zm-2.262,0a3.621,3.621,0,0,1-1.341,3.01,5.367,5.367,0,0,1-6.431,0,4.15,4.15,0,0,1-.032-6.08,5.773,5.773,0,0,1,6.5,0,3.621,3.621,0,0,1,1.309,3.07h0Zm-9.856,10.61a3.811,3.811,0,0,1,1.454-3.22,7.216,7.216,0,0,1,7.691,0,4.292,4.292,0,0,1,0,6.44,7.216,7.216,0,0,1-7.691,0A3.824,3.824,0,0,1,726.91,1691.93Zm30.473-10.61a5.6,5.6,0,0,0-2.02-4.65,7.917,7.917,0,0,0-9.6,0,5.6,5.6,0,0,0-2.02,4.65,5.512,5.512,0,0,0,3,5.08,6.851,6.851,0,0,0-2.73,2.25,5.532,5.532,0,0,0-1.018,3.28,5.792,5.792,0,0,0,2.165,4.8,9.282,9.282,0,0,0,10.793,0,5.8,5.8,0,0,0,2.165-4.8,5.532,5.532,0,0,0-1.018-3.28,6.858,6.858,0,0,0-2.73-2.25,5.512,5.512,0,0,0,3-5.08h0Zm-2.262,0a3.621,3.621,0,0,1-1.341,3.01,5.367,5.367,0,0,1-6.431,0,4.15,4.15,0,0,1-.032-6.08,5.773,5.773,0,0,1,6.5,0,3.621,3.621,0,0,1,1.309,3.07h0Zm-9.856,10.61a3.811,3.811,0,0,1,1.454-3.22,7.216,7.216,0,0,1,7.691,0,4.292,4.292,0,0,1,0,6.44,7.216,7.216,0,0,1-7.691,0A3.824,3.824,0,0,1,745.265,1691.93Zm-24.4,37.31,0.581,1.94,5.074-1.52v20.14h2.262v-22.63h-1.939Zm11.633,0,0.582,1.94,5.073-1.52v20.14h2.262v-22.63h-1.939Zm26.175,13.9v-6.92h-2.262v6.92h-9.468l8.4-15.97h-2.488l-8.4,15.97v2.14h11.956v4.52h2.262v-4.52h2.909v-2.14h-2.909Zm-33.284,37.9h11.536l-8.531,20.5h2.359l8.531-20.5v-2.14H725.391v2.14Zm28.922,13.84v-6.92h-2.262v6.92h-9.469l8.4-15.98H748.5l-8.4,15.98v2.13h11.957v4.53h2.262v-4.53h2.908v-2.13h-2.908Z" transform="translate(-188 -981)"></path><path id="XL_52" data-name="XL 52" class="cls-3" d="M836.474,1546.59l6.689-11H838.93l-4.589,7.54-4.588-7.54h-4.2l6.689,11-7.109,11.64h4.233l4.976-8.18,4.977,8.18h4.233Zm13.863-11h-3.716v22.64h12.926v-3.56h-9.21v-19.08Zm-19.227,60.27,0.388-5.04h9.177v-3.49h-12.6l-0.873,12.15h6.592a4.5,4.5,0,0,1,3.006.97,3.675,3.675,0,0,1-.017,5.32,4.51,4.51,0,0,1-3.053.99c-2.392,0-3.889-1.03-4.492-3.07l-3.2,1.84a6.833,6.833,0,0,0,2.94,3.6,9.033,9.033,0,0,0,4.751,1.25,8.433,8.433,0,0,0,5.623-1.94,7.4,7.4,0,0,0,.064-10.65,8.037,8.037,0,0,0-5.461-1.93H831.11Zm27.306,14.1v-3.59h-9.371l5.106-5.11c2.563-2.61,3.845-5.06,3.845-7.37a6.452,6.452,0,0,0-2.132-5.11,7.468,7.468,0,0,0-5.106-1.87,8.149,8.149,0,0,0-4.3,1.16,7.705,7.705,0,0,0-3,3.43l3.134,1.84a4.421,4.421,0,0,1,4.2-2.81,3.5,3.5,0,0,1,2.5.92,3.339,3.339,0,0,1,.986,2.57q0,2.1-2.876,4.98l-7.885,8.05v2.91h14.9Z" transform="translate(-188 -981)"></path><path id="_91_117_74" data-name="91 117 74" class="cls-3" d="M842.341,1677.14a8.181,8.181,0,0,0-10.923,0,7.851,7.851,0,0,0,0,10.76,7.49,7.49,0,0,0,5.462,2.09,8.275,8.275,0,0,0,1.809-.2l-5.558,8.28h2.553l7.4-11.02a7.694,7.694,0,0,0,1.39-4.53A7.188,7.188,0,0,0,842.341,1677.14Zm-5.461.11a5.247,5.247,0,0,1,3.861,1.45,5.685,5.685,0,0,1,0,7.63,5.837,5.837,0,0,1-7.723,0,5.685,5.685,0,0,1,0-7.63A5.248,5.248,0,0,1,836.88,1677.25Zm9.694,0.26,0.582,1.94,5.073-1.52v20.14h2.262v-22.63h-1.939Zm-22.944,51.73,0.582,1.94,5.073-1.52v20.14h2.262v-22.63h-1.939Zm11.633,0,0.582,1.94,5.074-1.52v20.14h2.262v-22.63h-1.939Zm11.8,0.07H858.6l-8.531,20.49h2.359l8.531-20.49v-2.14H847.059v2.14ZM826.7,1781.04h11.536l-8.531,20.5h2.359l8.531-20.5v-2.14H826.7v2.14Zm28.922,13.84v-6.92H853.36v6.92h-9.468l8.4-15.98h-2.489l-8.4,15.98v2.13H853.36v4.53h2.262v-4.53h2.908v-2.13h-2.908Z" transform="translate(-188 -981)"></path><path id="XL_XXL_52-54" data-name="XL/XXL 52-54" class="cls-3" d="M911.718,1546.59l6.689-11h-4.233l-4.589,7.54L905,1535.59h-4.2l6.689,11-7.109,11.64h4.233l4.976-8.18,4.977,8.18H918.8Zm13.863-11h-3.716v22.64h12.926v-3.56h-9.21v-19.08Zm25.852-3.23h-1.777l-12.926,29.1h1.777Zm13.282,14.23,6.689-11h-4.233l-4.589,7.54-4.589-7.54h-4.2l6.69,11-7.11,11.64h4.234l4.976-8.18,4.977,8.18h4.233Zm19.712,0,6.689-11h-4.233l-4.589,7.54-4.588-7.54h-4.2l6.689,11-7.109,11.64h4.233l4.976-8.18,4.977,8.18H991.5Zm13.863-11h-3.716v22.64H1007.5v-3.56h-9.21v-19.08Zm-82.484,60.27,0.388-5.04h9.178v-3.49h-12.6l-0.873,12.15h6.592a4.5,4.5,0,0,1,3.006.97,3.676,3.676,0,0,1-.016,5.32,4.513,4.513,0,0,1-3.054.99c-2.392,0-3.889-1.03-4.492-3.07l-3.2,1.84a6.837,6.837,0,0,0,2.94,3.6,9.033,9.033,0,0,0,4.751,1.25,8.433,8.433,0,0,0,5.623-1.94,7.4,7.4,0,0,0,.064-10.65,8.037,8.037,0,0,0-5.461-1.93h-2.844Zm27.307,14.1v-3.59h-9.372l5.106-5.11c2.563-2.61,3.845-5.06,3.845-7.37a6.449,6.449,0,0,0-2.132-5.11,7.468,7.468,0,0,0-5.106-1.87,8.151,8.151,0,0,0-4.3,1.16,7.711,7.711,0,0,0-3,3.43l3.134,1.84a4.421,4.421,0,0,1,4.2-2.81,3.5,3.5,0,0,1,2.5.92,3.338,3.338,0,0,1,.985,2.57q0,2.1-2.876,4.98l-7.885,8.05v2.91h14.9Zm15.737-8.15v-3.36H946.893v3.36H958.85Zm8.628-5.95,0.388-5.04h9.177v-3.49h-12.6l-0.873,12.15h6.592a4.5,4.5,0,0,1,3.006.97,3.675,3.675,0,0,1-.017,5.32,4.51,4.51,0,0,1-3.053.99c-2.392,0-3.889-1.03-4.492-3.07l-3.2,1.84a6.833,6.833,0,0,0,2.94,3.6,9.033,9.033,0,0,0,4.751,1.25,8.428,8.428,0,0,0,5.622-1.94,7.4,7.4,0,0,0,.065-10.65,8.037,8.037,0,0,0-5.461-1.93h-2.844Zm27.5,6.57v-5.89H991.23v5.89h-7.077l7.788-15.1H987.9l-7.788,15.1v3.46H991.23v4.07h3.748v-4.07h2.586v-3.46h-2.586Z" transform="translate(-188 -981)"></path><path id="_93_119_74" data-name="93 119 74" class="cls-3" d="M951.354,1677.14a8.181,8.181,0,0,0-10.923,0,7.854,7.854,0,0,0,0,10.76,7.49,7.49,0,0,0,5.462,2.09,8.268,8.268,0,0,0,1.809-.2l-5.558,8.28H944.7l7.4-11.02a7.694,7.694,0,0,0,1.39-4.53A7.188,7.188,0,0,0,951.354,1677.14Zm-5.461.11a5.247,5.247,0,0,1,3.861,1.45,5.683,5.683,0,0,1,0,7.63,5.837,5.837,0,0,1-7.723,0,5.685,5.685,0,0,1,0-7.63A5.248,5.248,0,0,1,945.893,1677.25ZM969,1677.57v-2.13H955.749v2.13H966.38l-5.622,7.7,0.969,1.48h0.614l0.032-.03v0.03a5.807,5.807,0,0,1,3.83,1.25,4.852,4.852,0,0,1,0,7.02,5.8,5.8,0,0,1-3.83,1.24,6.435,6.435,0,0,1-3.425-.86,4.449,4.449,0,0,1-1.971-2.53l-1.875,1.09a6.333,6.333,0,0,0,2.78,3.34,8.716,8.716,0,0,0,4.491,1.16,8.087,8.087,0,0,0,5.381-1.86,6.3,6.3,0,0,0,2.213-5.09,6.142,6.142,0,0,0-1.761-4.58,7.567,7.567,0,0,0-4.475-2.08Zm-34.416,51.67,0.582,1.94,5.074-1.52v20.14H942.5v-22.63h-1.939Zm11.634,0,0.582,1.94,5.073-1.52v20.14h2.262v-22.63h-1.939Zm25.173-.37a8.18,8.18,0,0,0-10.922,0,7.864,7.864,0,0,0,0,10.77,7.482,7.482,0,0,0,5.461,2.08,8.277,8.277,0,0,0,1.81-.19l-5.558,8.27h2.552l7.4-11.02a7.672,7.672,0,0,0,1.389-4.53A7.188,7.188,0,0,0,971.389,1728.87Zm-5.461.11a5.258,5.258,0,0,1,3.862,1.46,5.685,5.685,0,0,1,0,7.63,5.868,5.868,0,0,1-7.724,0,5.685,5.685,0,0,1,0-7.63A5.258,5.258,0,0,1,965.928,1728.98Zm-27.63,52.06h11.537l-8.531,20.5h2.359l8.531-20.5v-2.14H938.3v2.14Zm28.922,13.84v-6.92h-2.262v6.92H955.49l8.4-15.98H961.4l-8.4,15.98v2.13h11.956v4.53h2.262v-4.53h2.909v-2.13H967.22Z" transform="translate(-188 -981)"></path><path id="XXL_54" data-name="XXL 54" class="cls-3" d="M1059.31,1546.59l6.69-11h-4.23l-4.59,7.54-4.59-7.54h-4.2l6.69,11-7.11,11.64h4.23l4.98-8.18,4.98,8.18h4.23Zm19.72,0,6.68-11h-4.23l-4.59,7.54-4.59-7.54h-4.2l6.69,11-7.11,11.64h4.24l4.97-8.18,4.98,8.18h4.23Zm13.86-11h-3.72v22.64h12.93v-3.56h-9.21v-19.08Zm-30.15,60.27,0.39-5.04h9.17v-3.49h-12.6l-0.87,12.15h6.59a4.515,4.515,0,0,1,3.01.97,3.673,3.673,0,0,1-.02,5.32,4.512,4.512,0,0,1-3.05.99c-2.4,0-3.89-1.03-4.5-3.07l-3.2,1.84a6.887,6.887,0,0,0,2.95,3.6,9,9,0,0,0,4.75,1.25,8.439,8.439,0,0,0,5.62-1.94,7.4,7.4,0,0,0,.06-10.65,8.013,8.013,0,0,0-5.46-1.93h-2.84Zm27.5,6.57v-5.89h-3.75v5.89h-7.08l7.79-15.1h-4.04l-7.79,15.1v3.46h11.12v4.07h3.75v-4.07h2.58v-3.46h-2.58Z" transform="translate(-188 -981)"></path><path id="_96_122_74" data-name="96 122 74" class="cls-3" d="M1072.29,1677.14a8.177,8.177,0,0,0-10.92,0,7.833,7.833,0,0,0,0,10.76,7.482,7.482,0,0,0,5.46,2.09,8.3,8.3,0,0,0,1.81-.2l-5.56,8.28h2.55l7.4-11.02a7.666,7.666,0,0,0,1.39-4.53A7.194,7.194,0,0,0,1072.29,1677.14Zm-5.46.11a5.251,5.251,0,0,1,3.86,1.45,5.685,5.685,0,0,1,0,7.63,5.833,5.833,0,0,1-7.72,0,5.685,5.685,0,0,1,0-7.63A5.235,5.235,0,0,1,1066.83,1677.25Zm15.31,6.47,5.56-8.28h-2.55l-7.4,11.02a7.666,7.666,0,0,0-1.39,4.53,7.194,7.194,0,0,0,2.13,5.38,8.19,8.19,0,0,0,10.93,0,7.859,7.859,0,0,0,0-10.76,7.522,7.522,0,0,0-5.47-2.09,8.366,8.366,0,0,0-1.81.2h0Zm-3.52,7.27a5.124,5.124,0,0,1,1.47-3.81,5.846,5.846,0,0,1,7.73,0,5.685,5.685,0,0,1,0,7.63,5.876,5.876,0,0,1-7.73,0A5.147,5.147,0,0,1,1078.62,1690.99Zm-25.85,38.25,0.58,1.94,5.08-1.52v20.14h2.26v-22.63h-1.94Zm26.82,20.56v-2.19h-11.15l6.47-6.44a20.938,20.938,0,0,0,3.1-3.81,7.229,7.229,0,0,0,1.1-3.79,6.331,6.331,0,0,0-2.05-4.96,6.953,6.953,0,0,0-4.77-1.83,7.78,7.78,0,0,0-4.07,1.09,7.5,7.5,0,0,0-2.91,3.18l1.91,1.13a5.288,5.288,0,0,1,5.07-3.2,4.644,4.644,0,0,1,3.21,1.21,4.319,4.319,0,0,1,1.35,3.38c0,1.66-1.17,3.66-3.49,5.98l-8.15,8.22v2.03h14.38Zm17.61,0v-2.19h-11.15l6.47-6.44a20.938,20.938,0,0,0,3.1-3.81,7.229,7.229,0,0,0,1.1-3.79,6.331,6.331,0,0,0-2.05-4.96,6.953,6.953,0,0,0-4.77-1.83,7.805,7.805,0,0,0-4.07,1.09,7.5,7.5,0,0,0-2.91,3.18l1.91,1.13a5.288,5.288,0,0,1,5.07-3.2,4.686,4.686,0,0,1,3.22,1.21,4.347,4.347,0,0,1,1.34,3.38c0,1.66-1.17,3.66-3.49,5.98l-8.15,8.22v2.03h14.38Zm-37.81,31.24h11.54l-8.53,20.5h2.36l8.53-20.5v-2.14h-13.9v2.14Zm28.93,13.84v-6.92h-2.27v6.92h-9.46l8.4-15.98h-2.49l-8.4,15.98v2.13h11.95v4.53h2.27v-4.53h2.91v-2.13h-2.91Z" transform="translate(-188 -981)"></path><path id="XXL_54-56" data-name="XXL 54-56" class="cls-3" d="M1170.91,1546.59l6.69-11h-4.23l-4.59,7.54-4.59-7.54h-4.2l6.69,11-7.11,11.64h4.23l4.98-8.18,4.98,8.18h4.23Zm19.71,0,6.69-11h-4.23l-4.59,7.54-4.59-7.54h-4.2l6.69,11-7.11,11.64h4.23l4.98-8.18,4.98,8.18h4.23Zm13.87-11h-3.72v22.64h12.93v-3.56h-9.21v-19.08ZM1148,1595.86l0.39-5.04h9.18v-3.49h-12.61l-0.87,12.15h6.59a4.515,4.515,0,0,1,3.01.97,3.673,3.673,0,0,1-.02,5.32,4.5,4.5,0,0,1-3.05.99c-2.39,0-3.89-1.03-4.49-3.07l-3.2,1.84a6.824,6.824,0,0,0,2.94,3.6,9.029,9.029,0,0,0,4.75,1.25,8.421,8.421,0,0,0,5.62-1.94,7.4,7.4,0,0,0,.06-10.65,8.013,8.013,0,0,0-5.46-1.93H1148Zm27.5,6.57v-5.89h-3.75v5.89h-7.08l7.79-15.1h-4.04l-7.78,15.1v3.46h11.11v4.07h3.75v-4.07h2.59v-3.46h-2.59Zm17.68-.62v-3.36h-11.96v3.36h11.96Zm8.62-5.95,0.39-5.04h9.18v-3.49h-12.6l-0.88,12.15h6.6a4.469,4.469,0,0,1,3,.97,3.294,3.294,0,0,1,1.13,2.65,3.342,3.342,0,0,1-1.14,2.67,4.54,4.54,0,0,1-3.06.99c-2.39,0-3.89-1.03-4.49-3.07l-3.2,1.84a6.824,6.824,0,0,0,2.94,3.6,9.029,9.029,0,0,0,4.75,1.25,8.4,8.4,0,0,0,5.62-1.94,7.392,7.392,0,0,0,.07-10.65,8.048,8.048,0,0,0-5.46-1.93h-2.85Zm20.3-.94,5.17-7.59h-4.23l-7.18,10.76a7.907,7.907,0,0,0-1.36,4.56,7.419,7.419,0,0,0,2.23,5.58,8.817,8.817,0,0,0,11.54,0,8.1,8.1,0,0,0,0-11.16,7.954,7.954,0,0,0-5.75-2.15h-0.42Zm-2.68,10.79a4.489,4.489,0,0,1,0-6.11,4.713,4.713,0,0,1,6.17,0,4.516,4.516,0,0,1,0,6.11A4.713,4.713,0,0,1,1219.42,1605.71Z" transform="translate(-188 -981)"></path><path id="_98_124_74" data-name="98 124 74" class="cls-3" d="M1183.27,1677.14a8.177,8.177,0,0,0-10.92,0,7.859,7.859,0,0,0,0,10.76,7.482,7.482,0,0,0,5.46,2.09,8.229,8.229,0,0,0,1.81-.2l-5.56,8.28h2.56l7.4-11.02a7.737,7.737,0,0,0,1.39-4.53A7.2,7.2,0,0,0,1183.27,1677.14Zm-5.46.11a5.235,5.235,0,0,1,3.86,1.45,5.685,5.685,0,0,1,0,7.63,5.833,5.833,0,0,1-7.72,0,5.685,5.685,0,0,1,0-7.63A5.251,5.251,0,0,1,1177.81,1677.25Zm24.88,4.07a5.591,5.591,0,0,0-2.02-4.65,7.906,7.906,0,0,0-9.59,0,5.591,5.591,0,0,0-2.02,4.65,5.513,5.513,0,0,0,3,5.08,6.878,6.878,0,0,0-2.73,2.25,5.527,5.527,0,0,0-1.02,3.28,5.807,5.807,0,0,0,2.17,4.8,9.277,9.277,0,0,0,10.79,0,5.779,5.779,0,0,0,2.17-4.8,5.527,5.527,0,0,0-1.02-3.28,6.878,6.878,0,0,0-2.73-2.25,5.513,5.513,0,0,0,3-5.08h0Zm-2.26,0a3.629,3.629,0,0,1-1.34,3.01,5.365,5.365,0,0,1-6.43,0,4.15,4.15,0,0,1-.03-6.08,5.765,5.765,0,0,1,6.49,0,3.6,3.6,0,0,1,1.31,3.07h0Zm-9.85,10.61a3.808,3.808,0,0,1,1.45-3.22,7.214,7.214,0,0,1,7.69,0,4.281,4.281,0,0,1,0,6.44,7.214,7.214,0,0,1-7.69,0A3.821,3.821,0,0,1,1190.58,1691.93Zm-26.78,37.31,0.58,1.94,5.08-1.52v20.14h2.26v-22.63h-1.94Zm26.82,20.56v-2.19h-11.14l6.46-6.44a20.938,20.938,0,0,0,3.1-3.81,7.229,7.229,0,0,0,1.1-3.79,6.3,6.3,0,0,0-2.05-4.96,6.953,6.953,0,0,0-4.77-1.83,7.805,7.805,0,0,0-4.07,1.09,7.5,7.5,0,0,0-2.91,3.18l1.91,1.13a5.288,5.288,0,0,1,5.07-3.2,4.686,4.686,0,0,1,3.22,1.21,4.347,4.347,0,0,1,1.34,3.38c0,1.66-1.17,3.66-3.49,5.98l-8.15,8.22v2.03h14.38Zm16.32-6.66v-6.92h-2.26v6.92h-9.47l8.41-15.97h-2.49l-8.4,15.97v2.14h11.95v4.52h2.26v-4.52h2.91v-2.14h-2.91Zm-35.95,37.9h11.54l-8.53,20.5h2.36l8.53-20.5v-2.14h-13.9v2.14Zm28.93,13.84v-6.92h-2.27v6.92h-9.47l8.41-15.98h-2.49l-8.4,15.98v2.13h11.95v4.53h2.27v-4.53h2.9v-2.13h-2.9Z" transform="translate(-188 -981)"></path><path id="XXL_56" data-name="XXL 56" class="cls-3" d="M1282.51,1546.59l6.69-11h-4.23l-4.59,7.54-4.59-7.54h-4.2l6.69,11-7.11,11.64h4.23l4.98-8.18,4.97,8.18h4.24Zm19.71,0,6.69-11h-4.23l-4.59,7.54-4.59-7.54h-4.2l6.69,11-7.11,11.64h4.23l4.98-8.18,4.98,8.18h4.23Zm13.87-11h-3.72v22.64h12.93v-3.56h-9.21v-19.08Zm-29.59,60.27,0.39-5.04h9.18v-3.49h-12.61l-0.87,12.15h6.59a4.515,4.515,0,0,1,3.01.97,3.673,3.673,0,0,1-.02,5.32,4.5,4.5,0,0,1-3.05.99c-2.39,0-3.89-1.03-4.49-3.07l-3.2,1.84a6.824,6.824,0,0,0,2.94,3.6,9.029,9.029,0,0,0,4.75,1.25,8.421,8.421,0,0,0,5.62-1.94,7.392,7.392,0,0,0,.07-10.65,8.056,8.056,0,0,0-5.47-1.93h-2.84Zm20.29-.94,5.18-7.59h-4.24l-7.17,10.76a7.834,7.834,0,0,0-1.36,4.56,7.382,7.382,0,0,0,2.23,5.58,8.818,8.818,0,0,0,11.54,0,8.1,8.1,0,0,0,0-11.16,7.979,7.979,0,0,0-5.76-2.15h-0.42Zm-2.68,10.79a4.516,4.516,0,0,1,0-6.11,4.276,4.276,0,0,1,3.1-1.15,4.22,4.22,0,0,1,3.07,1.15,4.489,4.489,0,0,1,0,6.11,4.262,4.262,0,0,1-3.07,1.15A4.318,4.318,0,0,1,1304.11,1605.71Z" transform="translate(-188 -981)"></path><path id="_101_127_74" data-name="101 127 74" class="cls-3" d="M1277.58,1677.51l0.58,1.94,5.08-1.52v20.14h2.26v-22.63h-1.94Zm29.89,9.24a14.521,14.521,0,0,0-2.24-8.52,7.87,7.87,0,0,0-12.64,0,17.323,17.323,0,0,0,0,17.04,7.856,7.856,0,0,0,12.64,0C1306.73,1693.15,1307.47,1690.31,1307.47,1686.75Zm-14.86,0a12.55,12.55,0,0,1,1.66-7.01,5.568,5.568,0,0,1,9.28,0,15.652,15.652,0,0,1,0,14.03,5.568,5.568,0,0,1-9.28,0A12.564,12.564,0,0,1,1292.61,1686.75Zm16.96-9.24,0.59,1.94,5.07-1.52v20.14h2.26v-22.63h-1.94Zm-32.71,51.73,0.58,1.94,5.07-1.52v20.14h2.26v-22.63h-1.94Zm26.82,20.56v-2.19h-11.15l6.46-6.44a20.523,20.523,0,0,0,3.1-3.81,7.139,7.139,0,0,0,1.1-3.79,6.3,6.3,0,0,0-2.05-4.96,6.953,6.953,0,0,0-4.77-1.83,7.831,7.831,0,0,0-4.07,1.09,7.5,7.5,0,0,0-2.91,3.18l1.91,1.13a5.307,5.307,0,0,1,5.07-3.2,4.669,4.669,0,0,1,3.22,1.21,4.347,4.347,0,0,1,1.34,3.38c0,1.66-1.16,3.66-3.49,5.98l-8.14,8.22v2.03h14.38Zm1.94-20.49h11.53l-8.53,20.49h2.36l8.53-20.49v-2.14h-13.89v2.14Zm-23.03,51.73h11.54l-8.53,20.5h2.36l8.53-20.5v-2.14h-13.9v2.14Zm28.92,13.84v-6.92h-2.26v6.92h-9.47l8.41-15.98h-2.49l-8.41,15.98v2.13h11.96v4.53h2.26v-4.53h2.91v-2.13h-2.91Z" transform="translate(-188 -981)"></path><path id="XXL_XXXL_56-58" data-name="XXL/XXXL 56-58" class="cls-3" d="M1377.18,1546.59l6.69-11h-4.23l-4.59,7.54-4.59-7.54h-4.2l6.69,11-7.11,11.64h4.23l4.98-8.18,4.98,8.18h4.23Zm19.71,0,6.69-11h-4.23l-4.59,7.54-4.59-7.54h-4.2l6.69,11-7.11,11.64h4.24l4.97-8.18,4.98,8.18h4.23Zm13.87-11h-3.72v22.64h12.93v-3.56h-9.21v-19.08Zm25.85-3.23h-1.78l-12.92,29.1h1.77Zm13.28,14.23,6.69-11h-4.23l-4.59,7.54-4.59-7.54h-4.2l6.69,11-7.11,11.64h4.23l4.98-8.18,4.98,8.18h4.23Zm19.71,0,6.69-11h-4.23l-4.59,7.54-4.59-7.54h-4.2l6.69,11-7.11,11.64h4.23l4.98-8.18,4.98,8.18h4.23Zm19.72,0,6.68-11h-4.23l-4.59,7.54-4.59-7.54h-4.2l6.69,11-7.11,11.64h4.24l4.97-8.18,4.98,8.18h4.23Zm13.86-11h-3.72v22.64h12.93v-3.56h-9.21v-19.08Zm-102.39,60.27,0.39-5.04h9.17v-3.49h-12.6l-0.87,12.15h6.59a4.515,4.515,0,0,1,3.01.97,3.673,3.673,0,0,1-.02,5.32,4.512,4.512,0,0,1-3.05.99c-2.4,0-3.89-1.03-4.5-3.07l-3.19,1.84a6.824,6.824,0,0,0,2.94,3.6,9,9,0,0,0,4.75,1.25,8.439,8.439,0,0,0,5.62-1.94,7.4,7.4,0,0,0,.06-10.65,8.013,8.013,0,0,0-5.46-1.93h-2.84Zm20.29-.94,5.17-7.59h-4.23l-7.17,10.76a7.834,7.834,0,0,0-1.36,4.56,7.382,7.382,0,0,0,2.23,5.58,8.8,8.8,0,0,0,11.53,0,8.1,8.1,0,0,0,0-11.16,7.938,7.938,0,0,0-5.75-2.15h-0.42Zm-2.68,10.79a4.489,4.489,0,0,1,0-6.11,4.276,4.276,0,0,1,3.1-1.15,4.22,4.22,0,0,1,3.07,1.15,4.489,4.489,0,0,1,0,6.11,4.262,4.262,0,0,1-3.07,1.15A4.318,4.318,0,0,1,1418.4,1605.71Zm26.43-3.9v-3.36h-11.95v3.36h11.95Zm8.63-5.95,0.39-5.04h9.18v-3.49h-12.61l-0.87,12.15h6.59a4.5,4.5,0,0,1,3.01.97,3.673,3.673,0,0,1-.02,5.32,4.5,4.5,0,0,1-3.05.99c-2.39,0-3.89-1.03-4.49-3.07l-3.2,1.84a6.824,6.824,0,0,0,2.94,3.6,9.029,9.029,0,0,0,4.75,1.25,8.421,8.421,0,0,0,5.62-1.94,7.392,7.392,0,0,0,.07-10.65,8.048,8.048,0,0,0-5.46-1.93h-2.85Zm28.15-2.46a5.851,5.851,0,0,0-2.09-4.8,8.525,8.525,0,0,0-10.19,0,5.866,5.866,0,0,0-2.07,4.8,5.406,5.406,0,0,0,2.55,4.79,6.421,6.421,0,0,0-2.45,2.31,6.042,6.042,0,0,0-.87,3.19,5.961,5.961,0,0,0,2.18,4.89,10.116,10.116,0,0,0,11.52,0,6,6,0,0,0,2.16-4.89,5.928,5.928,0,0,0-3.33-5.5A5.378,5.378,0,0,0,1481.61,1593.4Zm-4.7-2.16a2.852,2.852,0,0,1,.98,2.33,2.818,2.818,0,0,1-1,2.29,4.037,4.037,0,0,1-4.93,0,3.224,3.224,0,0,1-.01-4.62,3.72,3.72,0,0,1,2.48-.81A3.775,3.775,0,0,1,1476.91,1591.24Zm-5.55,14.69a3.494,3.494,0,0,1,0-5.2,4.778,4.778,0,0,1,3.07-.92,4.709,4.709,0,0,1,3.04.92,3.474,3.474,0,0,1,0,5.2,4.713,4.713,0,0,1-3.04.93A4.782,4.782,0,0,1,1471.36,1605.93Z" transform="translate(-188 -981)"></path><path id="_103_129_74" data-name="103 129 74" class="cls-3" d="M1415.4,1677.51l0.58,1.94,5.07-1.52v20.14h2.26v-22.63h-1.94Zm29.89,9.24a14.522,14.522,0,0,0-2.25-8.52,7.86,7.86,0,0,0-12.63,0,17.256,17.256,0,0,0,0,17.04,7.846,7.846,0,0,0,12.63,0A14.479,14.479,0,0,0,1445.29,1686.75Zm-14.87,0a12.547,12.547,0,0,1,1.67-7.01,5.559,5.559,0,0,1,9.27,0,15.569,15.569,0,0,1,0,14.03,5.559,5.559,0,0,1-9.27,0A12.56,12.56,0,0,1,1430.42,1686.75Zm31.35-9.18v-2.13h-13.25v2.13h10.63l-5.62,7.7,0.97,1.48h0.61l0.03-.03v0.03a5.8,5.8,0,0,1,3.83,1.25,4.835,4.835,0,0,1,0,7.02,5.8,5.8,0,0,1-3.83,1.24,6.436,6.436,0,0,1-3.42-.86,4.415,4.415,0,0,1-1.97-2.53l-1.88,1.09a6.36,6.36,0,0,0,2.78,3.34,8.731,8.731,0,0,0,4.49,1.16,8.075,8.075,0,0,0,5.38-1.86,6.292,6.292,0,0,0,2.22-5.09,6.156,6.156,0,0,0-1.76-4.58,7.6,7.6,0,0,0-4.48-2.08Zm-45,51.67,0.58,1.94,5.07-1.52v20.14h2.27v-22.63h-1.94Zm26.82,20.56v-2.19h-11.15l6.47-6.44a21.37,21.37,0,0,0,3.1-3.81,7.229,7.229,0,0,0,1.1-3.79,6.305,6.305,0,0,0-2.06-4.96,6.911,6.911,0,0,0-4.76-1.83,7.78,7.78,0,0,0-4.07,1.09,7.5,7.5,0,0,0-2.91,3.18l1.9,1.13a5.311,5.311,0,0,1,5.08-3.2,4.644,4.644,0,0,1,3.21,1.21,4.313,4.313,0,0,1,1.34,3.38c0,1.66-1.16,3.66-3.49,5.98l-8.14,8.22v2.03h14.38Zm15.96-20.93a8.177,8.177,0,0,0-10.92,0,7.872,7.872,0,0,0,0,10.77,7.475,7.475,0,0,0,5.46,2.08,8.232,8.232,0,0,0,1.81-.19l-5.56,8.27h2.56l7.4-11.02a7.714,7.714,0,0,0,1.39-4.53A7.164,7.164,0,0,0,1459.55,1728.87Zm-5.46.11a5.242,5.242,0,0,1,3.86,1.46,5.657,5.657,0,0,1,0,7.63,5.863,5.863,0,0,1-7.72,0,5.685,5.685,0,0,1,0-7.63A5.258,5.258,0,0,1,1454.09,1728.98Zm-30.62,52.06h11.54l-8.53,20.5h2.36l8.53-20.5v-2.14h-13.9v2.14Zm28.93,13.84v-6.92h-2.27v6.92h-9.46l8.4-15.98h-2.49l-8.4,15.98v2.13h11.95v4.53h2.27v-4.53h2.91v-2.13h-2.91Z" transform="translate(-188 -981)"></path><path id="XXXL_58" data-name="XXXL 58" class="cls-3" d="M1563.92,1546.59l6.69-11h-4.24l-4.59,7.54-4.58-7.54H1553l6.68,11-7.1,11.64h4.23l4.97-8.18,4.98,8.18h4.23Zm19.71,0,6.69-11h-4.23l-4.59,7.54-4.59-7.54h-4.2l6.69,11-7.11,11.64h4.23l4.98-8.18,4.97,8.18h4.24Zm19.71,0,6.69-11h-4.23l-4.59,7.54-4.59-7.54h-4.2l6.69,11-7.11,11.64h4.23l4.98-8.18,4.98,8.18h4.23Zm13.87-11h-3.72v22.64h12.93v-3.56h-9.21v-19.08Zm-39.7,60.27,0.38-5.04h9.18v-3.49h-12.6l-0.87,12.15h6.59a4.469,4.469,0,0,1,3,.97,3.294,3.294,0,0,1,1.13,2.65,3.342,3.342,0,0,1-1.14,2.67,4.54,4.54,0,0,1-3.06.99c-2.39,0-3.89-1.03-4.49-3.07l-3.2,1.84a6.824,6.824,0,0,0,2.94,3.6,9.054,9.054,0,0,0,4.75,1.25,8.448,8.448,0,0,0,5.63-1.94,7.4,7.4,0,0,0,.06-10.65,8.048,8.048,0,0,0-5.46-1.93h-2.84Zm28.14-2.46a5.844,5.844,0,0,0-2.08-4.8,8.54,8.54,0,0,0-10.2,0,5.866,5.866,0,0,0-2.07,4.8,5.415,5.415,0,0,0,2.56,4.79,6.379,6.379,0,0,0-2.46,2.31,6.464,6.464,0,0,0,1.31,8.08,10.116,10.116,0,0,0,11.52,0,6.011,6.011,0,0,0,2.17-4.89,5.928,5.928,0,0,0-3.33-5.5A5.39,5.39,0,0,0,1605.65,1593.4Zm-4.7-2.16a3.168,3.168,0,0,1-.02,4.62,4.022,4.022,0,0,1-4.92,0,3.212,3.212,0,0,1-.02-4.62A4.2,4.2,0,0,1,1600.95,1591.24Zm-5.54,14.69a3.494,3.494,0,0,1,0-5.2,5.532,5.532,0,0,1,6.11,0,3.494,3.494,0,0,1,0,5.2A5.483,5.483,0,0,1,1595.41,1605.93Z" transform="translate(-188 -981)"></path><path id="_106_132_74" data-name="106 132 74" class="cls-3" d="M1565.45,1677.51l0.59,1.94,5.07-1.52v20.14h2.26v-22.63h-1.94Zm29.9,9.24a14.522,14.522,0,0,0-2.25-8.52,7.87,7.87,0,0,0-12.64,0,17.323,17.323,0,0,0,0,17.04,7.856,7.856,0,0,0,12.64,0A14.479,14.479,0,0,0,1595.35,1686.75Zm-14.87,0a12.55,12.55,0,0,1,1.66-7.01,5.568,5.568,0,0,1,9.28,0,15.652,15.652,0,0,1,0,14.03,5.568,5.568,0,0,1-9.28,0A12.564,12.564,0,0,1,1580.48,1686.75Zm23.88-3.03,5.56-8.28h-2.55l-7.4,11.02a7.666,7.666,0,0,0-1.39,4.53,7.194,7.194,0,0,0,2.13,5.38,8.177,8.177,0,0,0,10.92,0,7.859,7.859,0,0,0,0-10.76,7.482,7.482,0,0,0-5.46-2.09,8.3,8.3,0,0,0-1.81.2h0Zm-3.52,7.27a5.124,5.124,0,0,1,1.47-3.81,5.833,5.833,0,0,1,7.72,0,5.685,5.685,0,0,1,0,7.63,5.863,5.863,0,0,1-7.72,0A5.147,5.147,0,0,1,1600.84,1690.99Zm-33.69,38.25,0.58,1.94,5.08-1.52v20.14h2.26v-22.63h-1.94Zm26.01,0.07v-2.14h-13.25v2.14h10.64l-5.63,7.69,0.97,1.49h0.62l0.03-.03v0.03a5.8,5.8,0,0,1,3.83,1.24,4.857,4.857,0,0,1,0,7.02,5.8,5.8,0,0,1-3.83,1.24,6.538,6.538,0,0,1-3.43-.85,4.52,4.52,0,0,1-1.97-2.54l-1.87,1.1a6.331,6.331,0,0,0,2.78,3.33,8.7,8.7,0,0,0,4.49,1.16,8.093,8.093,0,0,0,5.38-1.86,6.271,6.271,0,0,0,2.21-5.09,6.08,6.08,0,0,0-1.76-4.57,7.55,7.55,0,0,0-4.47-2.09Zm18.59,20.49v-2.19H1600.6l6.46-6.44a20.938,20.938,0,0,0,3.1-3.81,7.229,7.229,0,0,0,1.1-3.79,6.3,6.3,0,0,0-2.05-4.96,6.953,6.953,0,0,0-4.77-1.83,7.831,7.831,0,0,0-4.07,1.09,7.5,7.5,0,0,0-2.91,3.18l1.91,1.13a5.3,5.3,0,0,1,5.07-3.2,4.686,4.686,0,0,1,3.22,1.21,4.347,4.347,0,0,1,1.34,3.38c0,1.66-1.17,3.66-3.49,5.98l-8.15,8.22v2.03h14.39Zm-37.89,31.24h11.53l-8.53,20.5h2.36l8.53-20.5v-2.14h-13.89v2.14Zm28.92,13.84v-6.92h-2.26v6.92h-9.47l8.4-15.98h-2.49l-8.4,15.98v2.13h11.96v4.53h2.26v-4.53h2.91v-2.13h-2.91Z" transform="translate(-188 -981)"></path></g><path id="_1" data-name="1" class="cls-3" d="M261.237,1046.14l1.15,4,7.45-2.2v30h4.6v-35h-4Z" transform="translate(-188 -981)"></path><path id="_2" data-name="2" class="cls-3" d="M280.662,1531.94v-4.5h-15.85l8.95-8.9q6.25-6.255,6.25-11.55a9.922,9.922,0,0,0-3.25-7.8,11.135,11.135,0,0,0-7.65-2.9,12.341,12.341,0,0,0-6.475,1.75,11.827,11.827,0,0,0-4.575,5.15l3.9,2.3a7.51,7.51,0,0,1,7.2-4.7,6.274,6.274,0,0,1,4.4,1.65,5.922,5.922,0,0,1,1.8,4.6q0,3.555-4.95,8.5l-12.35,12.6v3.8h22.6Z" transform="translate(-188 -981)"></path><path id="Прямоугольник_2" data-name="Прямоугольник 2" class="cls-4" d="M299,1034H1774v424H299V1034Z" transform="translate(-188 -981)"></path><path id="Прямоугольник_2_копия" data-name="Прямоугольник 2 копия" class="cls-4" d="M299,1488H1774v424H299V1488Z" transform="translate(-188 -981)"></path></g></g></svg> 