<?xml version="1.0" encoding="UTF-8"?> <svg xmlns="http://www.w3.org/2000/svg" viewBox="0 0 772.54 114.82"><defs><style>.d{fill:#fff;}</style></defs><g id="a"></g><g id="b"><g id="c"><g><path class="d" d="M463.3,1.4c-5.3,1.6-12.1,5.6-15,8.7-6,6.4-8.7,19.5-6,28.9,3.1,10.6,9.9,15,32.8,21.5,26,7.3,30.9,10.9,30.9,23.1,0,3.7-.6,7.6-1.5,9.2-3.9,7.7-13.7,11.6-27.4,10.9-11.1-.6-18.4-3.8-23.8-10.6-2-2.6-4-5.1-4.4-5.6-.7-.8-9.9,4.1-9.9,5.3,0,3.2,11.5,14.7,17.4,17.5,13.5,6.4,36.5,5.9,48.2-.9,9.8-5.7,13.7-13.2,13.8-26,0-11.2-2.3-16.8-9.6-22.5-5.6-4.5-11.5-6.9-29.2-11.6-21.8-5.9-25.6-8.9-25.6-19.9,0-8.2,3-12.9,11-17.1,5-2.7,21-2.6,26,0,5.7,3.1,8.8,5.7,11.6,9.8,1.5,2.1,3.1,3.8,3.6,3.8,1.5,0,8.8-5.2,8.8-6.3,0-1.9-7.1-9.7-11.7-12.8C496.3,1.9,488.4-.1,477.2,0c-5.4,0-11.6,.6-13.9,1.4h0Z"></path><path class="d" d="M0,57.5v55.6l23.8-.4c28.2-.5,33.5-1.7,42-9.4,6.7-5.9,9.2-12.5,9.1-23.2-.1-14.1-5.7-22.4-17.8-26.5l-4.5-1.5,3.1-1.5c10.8-5.6,15.7-24.2,9.5-36.3C60.2,4.5,51.2,1.9,21.3,1.9H0V57.5ZM47.9,14.4c5.5,3.2,7.5,6.7,7.9,13.8,.5,8.3-2.4,14.2-8.8,17.7-4.1,2.3-5.7,2.5-20,2.8l-15.5,.4V11.7l16.5,.4c14.3,.3,17,.6,19.9,2.3h0Zm6,48.5c6.6,3.8,8.5,6.8,8.9,15.1,.5,8.3-1.5,14.8-5.6,18-5.9,4.6-8.9,5.2-27.7,5.7l-18,.4V59.7l19,.4c18.1,.3,19.2,.4,23.4,2.8h0Z"></path><path class="d" d="M153.5,3.1c-4.4,12.1-37.5,108.3-37.5,108.9,0,1.4,10.6,1.1,11.7-.4,.5-.6,3.2-7.8,5.9-16l4.9-14.7,22.9,.2,23,.3,1.7,5c1,2.7,3.4,9.8,5.4,15.7l3.7,10.8h5.9c3.7,0,5.9-.4,5.9-1.1,0-.6-8.3-25-18.5-54.3-10.2-29.2-18.8-53.7-19-54.4-.3-.8-2.8-1.2-8-1.2s-7.7,.4-8,1.2h0Zm17.4,39.2c5,14.8,9.1,27.3,9.1,27.7,0,.5-8.5,.9-19,.9s-19-.1-19-.3c0-.3,17-50.4,18.5-54.6,.3-.8,.7-1.2,.9-1,.2,.2,4.5,12.5,9.5,27.3h0Z"></path><path class="d" d="M254,57.4v55.5h31.5c20.3,0,31.5-.4,31.6-1,.1-.6,.1-2.1,.1-3.5,0-7.2,2.7-6.5-25.9-6.5h-25.8V2.4l-5.7-.3-5.8-.3V57.4Z"></path><path class="d" d="M355,6.9v5h15V101.9h-15v11l20.8-.2,20.7-.3,.3-3.8c.5-5.6-.9-6.7-8.4-6.7h-6.4V56.9c0-42.2,.1-45,1.8-45.1,.9,0,4.2-.1,7.2-.2l5.5-.2,.3-4.8,.3-4.7h-42.1V6.9Z"></path><path class="d" d="M591.8,18.1c-3.1,9-7,20.1-8.7,24.8-6.4,18.2-24.1,69.3-24.1,69.7,0,.2,2.8,.3,6.2,.1l6.1-.3,3.9-11.5c2.1-6.3,4.5-13.4,5.4-15.8l1.6-4.2h22.3c16.8,0,22.6,.3,23.2,1.2,.4,.7,2.4,6.3,4.5,12.5,6.5,19.4,5.7,18.3,12.7,18.3,3.4,0,6.1-.2,6.1-.4,0-.3-19.4-55.8-31.7-90.6l-6.9-19.5-7.5-.3-7.4-.3-5.7,16.3Zm22.6,24.4l9.5,27.9-18.6,.3c-10.2,.1-18.8,0-19.1-.3-.3-.3,3.7-13.1,8.8-28.5,5.2-15.3,9.5-27.8,9.7-27.6,.1,.1,4.5,12.8,9.7,28.2h0Z"></path><path class="d" d="M697,57.4v55.6l5.8-.3,5.7-.3,.3-23.3,.2-23.2h22.5l14,23.3,14.1,23.2,6.8,.3c7.9,.3,7.9,.7,1.6-9-2.2-3.5-8.7-13.7-14.3-22.8l-10.3-16.5,5.2-2.1c8.1-3.3,11-5.9,14.5-13,3-6,3.3-7.4,3.3-16.2,.1-8.9-.2-10.2-2.9-15.7-3.3-6.5-8.9-11.6-15.3-13.6-2.3-.8-12.8-1.4-27.4-1.6l-23.8-.5V57.4Zm43.4-44.5c4.5,1,8.1,3.4,11,7.4,1.8,2.4,2.1,4.2,2.1,12.9,0,12-1.5,15.6-8,19-3.4,1.8-6.3,2.2-20.3,2.7l-16.2,.5V11.9h13.8c7.5,0,15.5,.5,17.6,1h0Z"></path></g></g></g></svg> 