<?xml version="1.0" encoding="UTF-8"?> <svg xmlns="http://www.w3.org/2000/svg" width="2337" height="865" viewBox="0 0 2337 865"><defs><style> .cls-1 { fill: #fff; stroke: #fff; } .cls-1, .cls-4 { stroke-linecap: round; stroke-width: 1px; stroke-dasharray: 0.001 2; } .cls-2, .cls-3, .cls-4 { fill-rule: evenodd; } .cls-3 { fill: #af1037; } .cls-4 { stroke: #000; } </style></defs><g id="Монтажная_область_1" data-name="Монтажная область 1"><rect id="Прямоугольник_1" data-name="Прямоугольник 1" class="cls-1" y="-150" width="2337" height="1070"></rect><g id="таблица"><g id="цифры"><path id="M_46" data-name="M 46" class="cls-2" d="M1296.39,236.571l-8.62,14.239-8.58-14.239h-5.04v28.477h4.67V244.707l8.66,14.361h0.57l8.66-14.32v20.3h4.68V236.571h-5Zm-12.36,84.09v-7.4h-4.72v7.4h-8.9l9.8-19h-5.09l-9.79,19v4.353h13.98v5.126h4.72v-5.126h3.25v-4.353h-3.25Zm15.53-9.438,6.51-9.561h-5.33l-9.03,13.548a9.853,9.853,0,0,0-1.7,5.736,9.312,9.312,0,0,0,2.8,7.018,11.1,11.1,0,0,0,14.52,0,10.2,10.2,0,0,0,0-14.036,10.009,10.009,0,0,0-7.24-2.7h-0.53Zm-3.37,13.567a5.649,5.649,0,0,1,0-7.689,5.935,5.935,0,0,1,7.76,0,5.649,5.649,0,0,1,0,7.689A5.932,5.932,0,0,1,1296.19,324.79Z"></path><path id="S_M_42-44" data-name="S/M 42-44" class="cls-2" d="M841.8,263.034a7.467,7.467,0,0,0,2.785-6.123,8.732,8.732,0,0,0-.325-2.481,4.877,4.877,0,0,0-1.118-1.953,15.734,15.734,0,0,0-1.484-1.424,8.425,8.425,0,0,0-2.054-1.139q-1.362-.568-2.114-0.834t-2.378-.793a16.456,16.456,0,0,1-4.493-1.933,2.939,2.939,0,0,1-1.24-2.5,3.111,3.111,0,0,1,1.219-2.583,5.132,5.132,0,0,1,3.253-.956,6.133,6.133,0,0,1,5.977,3.987l3.944-2.278a10.9,10.9,0,0,0-3.944-4.6,10.707,10.707,0,0,0-5.977-1.668,9.822,9.822,0,0,0-6.465,2.217,7.374,7.374,0,0,0-2.683,6,7.551,7.551,0,0,0,.691,3.336,6.05,6.05,0,0,0,2.094,2.38,15.22,15.22,0,0,0,2.663,1.485,34.114,34.114,0,0,0,3.293,1.139,22.136,22.136,0,0,1,5.042,2.014,2.974,2.974,0,0,1,1.423,2.665,3.279,3.279,0,0,1-1.321,2.7,6.348,6.348,0,0,1-3.964,1.038q-5.367,0-7.075-4.8l-4.025,2.36a9.832,9.832,0,0,0,4,5.126,12.482,12.482,0,0,0,6.973,1.871A11.232,11.232,0,0,0,841.8,263.034Zm24.335-30.817H863.9l-16.264,36.614h2.236Zm26.916,4.068-8.619,14.239-8.58-14.239h-5.041v28.478h4.676V244.422l8.66,14.361h0.569l8.661-14.32v20.3h4.676V236.285h-5ZM823.67,320.376v-7.4h-4.717v7.4h-8.9l9.8-19h-5.083l-9.8,19v4.353h13.987v5.126h4.717v-5.126h3.252v-4.353H823.67Zm24.355,9.479v-4.516H836.233l6.425-6.428q4.837-4.921,4.838-9.275a8.12,8.12,0,0,0-2.683-6.428,9.4,9.4,0,0,0-6.425-2.36,10.3,10.3,0,0,0-5.407,1.465,9.678,9.678,0,0,0-3.782,4.312l3.944,2.319a5.574,5.574,0,0,1,5.286-3.539,4.431,4.431,0,0,1,3.151,1.159,4.21,4.21,0,0,1,1.24,3.234q0,2.646-3.618,6.265l-9.921,10.13v3.662h18.744Zm19.8-10.252v-4.231H852.782V319.6h15.044Zm22.891,0.773v-7.4H886v7.4h-8.9l9.8-19h-5.082l-9.8,19v4.353H886v5.126h4.716v-5.126h3.253v-4.353h-3.253Zm24.4,0v-7.4H910.4v7.4h-8.9l9.8-19h-5.082l-9.8,19v4.353H910.4v5.126h4.717v-5.126h3.253v-4.353h-3.253Z"></path><path id="M_44" data-name="M 44" class="cls-2" d="M1012.16,235.451l-8.62,14.239-8.577-14.239h-5.042v28.478H994.6V243.588l8.663,14.361h0.57l8.66-14.321v20.3h4.67V235.451h-5Zm-12.968,84.091v-7.4h-4.717v7.4h-8.9l9.8-19h-5.083l-9.8,19V323.9h13.987v5.126h4.717V323.9h3.248v-4.353h-3.248Zm24.4,0v-7.4h-4.72v7.4h-8.9l9.8-19h-5.09l-9.8,19V323.9h13.99v5.126h4.72V323.9h3.25v-4.353h-3.25Z"></path><path id="M_44-46" data-name="M 44-46" class="cls-2" d="M1155.04,235.736l-8.62,14.239-8.58-14.239h-5.05v28.478h4.68V243.873l8.66,14.361h0.57l8.66-14.32v20.3h4.68V235.736h-5Zm-47.13,84.091v-7.4h-4.72v7.4h-8.9l9.8-19h-5.08l-9.8,19v4.353h13.98v5.126h4.72V324.18h3.25v-4.353h-3.25Zm24.4,0v-7.4h-4.72v7.4h-8.9l9.8-19h-5.09l-9.8,19v4.353h13.99v5.126h4.72V324.18h3.25v-4.353h-3.25Zm22.24-.773v-4.231H1139.5v4.231h15.05Zm22.89,0.773v-7.4h-4.72v7.4h-8.9l9.8-19h-5.09l-9.79,19v4.353h13.98v5.126h4.72V324.18h3.25v-4.353h-3.25Zm15.53-9.439,6.51-9.56h-5.33l-9.03,13.547a9.931,9.931,0,0,0-1.7,5.737,9.308,9.308,0,0,0,2.8,7.017,11.092,11.092,0,0,0,14.52,0,10.194,10.194,0,0,0,0-14.035,10.005,10.005,0,0,0-7.24-2.706h-0.53Zm-3.37,13.568a5.649,5.649,0,0,1,0-7.689,5.935,5.935,0,0,1,7.76,0,5.649,5.649,0,0,1,0,7.689A5.935,5.935,0,0,1,1189.6,323.956Z"></path><path id="S_42" data-name="S 42" class="cls-2" d="M729.5,262.306a7.465,7.465,0,0,0,2.786-6.123,8.73,8.73,0,0,0-.326-2.481,4.871,4.871,0,0,0-1.118-1.953,15.62,15.62,0,0,0-1.484-1.424,8.416,8.416,0,0,0-2.053-1.139q-1.364-.569-2.115-0.834t-2.378-.793a16.47,16.47,0,0,1-4.493-1.933,2.941,2.941,0,0,1-1.24-2.5,3.109,3.109,0,0,1,1.22-2.583,5.129,5.129,0,0,1,3.252-.956,6.133,6.133,0,0,1,5.977,3.987l3.944-2.278a10.894,10.894,0,0,0-3.944-4.6,10.7,10.7,0,0,0-5.977-1.668,9.821,9.821,0,0,0-6.464,2.217,7.375,7.375,0,0,0-2.684,6,7.551,7.551,0,0,0,.691,3.336,6.057,6.057,0,0,0,2.094,2.38,15.22,15.22,0,0,0,2.663,1.485,33.78,33.78,0,0,0,3.294,1.139,22.177,22.177,0,0,1,5.042,2.014,2.976,2.976,0,0,1,1.423,2.665,3.278,3.278,0,0,1-1.322,2.705,6.347,6.347,0,0,1-3.964,1.038q-5.367,0-7.075-4.8l-4.025,2.36a9.832,9.832,0,0,0,4,5.126,12.484,12.484,0,0,0,6.973,1.871A11.23,11.23,0,0,0,729.5,262.306Zm-10.917,57.342v-7.4h-4.716v7.4h-8.905l9.8-19h-5.082l-9.8,19V324h13.987v5.126h4.716V324h3.253v-4.353h-3.253Zm24.355,9.479v-4.516H731.143l6.424-6.428q4.839-4.922,4.839-9.275a8.121,8.121,0,0,0-2.684-6.428,9.4,9.4,0,0,0-6.424-2.36,10.312,10.312,0,0,0-5.408,1.465,9.676,9.676,0,0,0-3.781,4.312l3.944,2.319a5.575,5.575,0,0,1,5.286-3.539,4.433,4.433,0,0,1,3.151,1.159,4.213,4.213,0,0,1,1.24,3.234q0,2.646-3.619,6.266l-9.921,10.129v3.662h18.744Z"></path><path id="XS_S_40-42" data-name="XS/S 40-42" class="cls-2" d="M549.469,250.544l8.417-13.832H552.56l-5.774,9.479-5.774-9.479h-5.285l8.416,13.832L535.2,265.19h5.326l6.262-10.293,6.262,10.293h5.326Zm28.32,12.917a7.468,7.468,0,0,0,2.785-6.123,8.775,8.775,0,0,0-.325-2.482,4.873,4.873,0,0,0-1.118-1.952,15.734,15.734,0,0,0-1.484-1.424,8.411,8.411,0,0,0-2.054-1.139q-1.362-.57-2.114-0.834t-2.379-.794a16.476,16.476,0,0,1-4.493-1.932,2.941,2.941,0,0,1-1.24-2.5,3.11,3.11,0,0,1,1.22-2.583,5.13,5.13,0,0,1,3.253-.956,6.134,6.134,0,0,1,5.977,3.987l3.944-2.279a10.912,10.912,0,0,0-3.944-4.6,10.707,10.707,0,0,0-5.977-1.668,9.827,9.827,0,0,0-6.465,2.217,7.378,7.378,0,0,0-2.683,6,7.541,7.541,0,0,0,.691,3.336,6.05,6.05,0,0,0,2.094,2.38,15.249,15.249,0,0,0,2.663,1.485,34.114,34.114,0,0,0,3.293,1.139,22.042,22.042,0,0,1,5.042,2.014,2.974,2.974,0,0,1,1.423,2.664,3.281,3.281,0,0,1-1.321,2.706,6.356,6.356,0,0,1-3.965,1.037q-5.367,0-7.074-4.8l-4.026,2.359a9.833,9.833,0,0,0,4.005,5.126,12.476,12.476,0,0,0,6.973,1.872A11.233,11.233,0,0,0,577.789,263.461Zm24.335-30.817h-2.237l-16.263,36.614h2.236Zm21.448,30.817a7.468,7.468,0,0,0,2.785-6.123,8.737,8.737,0,0,0-.326-2.482,4.861,4.861,0,0,0-1.118-1.952,15.5,15.5,0,0,0-1.484-1.424,8.383,8.383,0,0,0-2.053-1.139q-1.363-.57-2.114-0.834t-2.379-.794a16.476,16.476,0,0,1-4.493-1.932,2.941,2.941,0,0,1-1.24-2.5,3.11,3.11,0,0,1,1.22-2.583,5.13,5.13,0,0,1,3.253-.956,6.135,6.135,0,0,1,5.977,3.987l3.944-2.279a10.919,10.919,0,0,0-3.944-4.6,10.707,10.707,0,0,0-5.977-1.668,9.827,9.827,0,0,0-6.465,2.217,7.379,7.379,0,0,0-2.684,6,7.554,7.554,0,0,0,.691,3.336,6.057,6.057,0,0,0,2.094,2.38,15.291,15.291,0,0,0,2.664,1.485,33.922,33.922,0,0,0,3.293,1.139,22.062,22.062,0,0,1,5.042,2.014,2.976,2.976,0,0,1,1.423,2.664,3.28,3.28,0,0,1-1.322,2.706,6.353,6.353,0,0,1-3.964,1.037q-5.367,0-7.075-4.8l-4.025,2.359a9.833,9.833,0,0,0,4,5.126,12.476,12.476,0,0,0,6.973,1.872A11.233,11.233,0,0,0,623.572,263.461ZM542.4,320.8v-7.4h-4.717v7.4h-8.9l9.8-19H533.49l-9.8,19v4.353h13.987v5.126H542.4v-5.126h3.252V320.8H542.4Zm28.339-4.759q0-6.713-2.947-10.741a10.432,10.432,0,0,0-16.468,0q-2.947,4.028-2.947,10.741t2.947,10.74a10.432,10.432,0,0,0,16.468,0Q570.734,322.756,570.734,316.043Zm-16,7.566q-1.687-2.643-1.687-7.566t1.687-7.567a5.73,5.73,0,0,1,9.657,0q1.667,2.644,1.667,7.567t-1.667,7.566A5.73,5.73,0,0,1,554.735,323.609Zm35.923-3.58V315.8H575.614v4.231h15.044Zm22.891,0.773v-7.4h-4.717v7.4h-8.9l9.8-19h-5.082l-9.8,19v4.353h13.986v5.126h4.717v-5.126H616.8V320.8h-3.253Zm24.355,9.479v-4.515H626.113l6.424-6.428q4.837-4.921,4.838-9.276a8.123,8.123,0,0,0-2.683-6.428,9.406,9.406,0,0,0-6.424-2.359,10.309,10.309,0,0,0-5.408,1.464,9.684,9.684,0,0,0-3.781,4.313l3.944,2.319a5.574,5.574,0,0,1,5.285-3.54,4.436,4.436,0,0,1,3.152,1.16,4.213,4.213,0,0,1,1.24,3.234q0,2.644-3.619,6.265l-9.921,10.13v3.661H637.9Z"></path><path id="_64_91_82" data-name="64 91 82" class="cls-2" d="M565.655,432.9l6.993-10.414h-3.212l-9.311,13.872a9.643,9.643,0,0,0-1.748,5.7,9.06,9.06,0,0,0,2.683,6.774,10.309,10.309,0,0,0,13.743,0,9.89,9.89,0,0,0,0-13.548,9.42,9.42,0,0,0-6.871-2.624,10.5,10.5,0,0,0-2.277.244h0Zm-4.432,9.154a6.455,6.455,0,0,1,1.85-4.8,7.364,7.364,0,0,1,9.717,0,7.15,7.15,0,0,1,0,9.6,7.361,7.361,0,0,1-9.717,0A6.45,6.45,0,0,1,561.223,442.054Zm37.61,0.529v-8.706h-2.846v8.706H584.074l10.571-20.1h-3.131l-10.571,20.1v2.685h15.044v5.7h2.846v-5.7h3.659v-2.685h-3.659Zm-18.947,47.13a10.309,10.309,0,0,0-13.743,0,9.89,9.89,0,0,0,0,13.548,9.418,9.418,0,0,0,6.871,2.624,10.446,10.446,0,0,0,2.277-.245L568.3,516.055h3.212l9.311-13.873a9.643,9.643,0,0,0,1.748-5.695A9.06,9.06,0,0,0,579.886,489.713Zm-6.872.143a6.611,6.611,0,0,1,4.859,1.83,7.153,7.153,0,0,1,0,9.6,7.363,7.363,0,0,1-9.718,0,7.153,7.153,0,0,1,0-9.6A6.611,6.611,0,0,1,573.014,489.856Zm12.2,0.325,0.732,2.441,6.384-1.912v25.345h2.846V487.577h-2.44Zm-7.176,69.892a7.067,7.067,0,0,0-2.542-5.858,9.979,9.979,0,0,0-12.076,0,7.066,7.066,0,0,0-2.541,5.858,6.928,6.928,0,0,0,3.782,6.387,8.626,8.626,0,0,0-3.436,2.828,6.971,6.971,0,0,0-1.281,4.129,7.3,7.3,0,0,0,2.724,6.041,11.679,11.679,0,0,0,13.581,0,7.3,7.3,0,0,0,2.724-6.041,6.971,6.971,0,0,0-1.281-4.129,8.626,8.626,0,0,0-3.436-2.828,6.928,6.928,0,0,0,3.782-6.387h0Zm-2.847,0a4.558,4.558,0,0,1-1.687,3.784,6.769,6.769,0,0,1-8.091,0,5.218,5.218,0,0,1-.041-7.648,7.247,7.247,0,0,1,8.173,0,4.557,4.557,0,0,1,1.646,3.864h0Zm-12.4,13.344a4.8,4.8,0,0,1,1.83-4.048,9.045,9.045,0,0,1,9.677,0,5.392,5.392,0,0,1,0,8.1,9.039,9.039,0,0,1-9.677,0A4.8,4.8,0,0,1,562.788,573.417Zm37.936,7.73V578.38H586.7l8.132-8.1a26.244,26.244,0,0,0,3.9-4.8,9.04,9.04,0,0,0,1.383-4.76,7.937,7.937,0,0,0-2.582-6.244,8.745,8.745,0,0,0-6-2.3,9.92,9.92,0,0,0-5.124,1.363,9.487,9.487,0,0,0-3.659,4.007l2.4,1.424a6.664,6.664,0,0,1,6.384-4.028,5.825,5.825,0,0,1,4.045,1.526,5.44,5.44,0,0,1,1.688,4.251q0,3.133-4.392,7.526L582.63,578.584v2.563h18.094Z"></path><path id="_66_93_82" data-name="66 93 82" class="cls-2" d="M707.652,432.9l6.993-10.414h-3.212l-9.311,13.872a9.643,9.643,0,0,0-1.748,5.7,9.06,9.06,0,0,0,2.683,6.774,10.309,10.309,0,0,0,13.743,0,9.89,9.89,0,0,0,0-13.548,9.42,9.42,0,0,0-6.871-2.624,10.5,10.5,0,0,0-2.277.244h0Zm-4.432,9.154a6.455,6.455,0,0,1,1.85-4.8,7.364,7.364,0,0,1,9.717,0,7.153,7.153,0,0,1,0,9.6,7.361,7.361,0,0,1-9.717,0A6.45,6.45,0,0,1,703.22,442.054Zm26.794-9.154,6.994-10.414H733.8l-9.311,13.872a9.644,9.644,0,0,0-1.749,5.7,9.061,9.061,0,0,0,2.684,6.774,10.309,10.309,0,0,0,13.743,0,9.893,9.893,0,0,0,0-13.548,9.421,9.421,0,0,0-6.872-2.624,10.508,10.508,0,0,0-2.277.244h0Zm-4.431,9.154a6.455,6.455,0,0,1,1.85-4.8,7.364,7.364,0,0,1,9.717,0,7.153,7.153,0,0,1,0,9.6,7.361,7.361,0,0,1-9.717,0A6.45,6.45,0,0,1,725.583,442.054Zm-8.173,47.659a10.309,10.309,0,0,0-13.743,0,9.893,9.893,0,0,0,0,13.548,9.419,9.419,0,0,0,6.872,2.624,10.437,10.437,0,0,0,2.276-.245l-6.993,10.415h3.212l9.311-13.873a9.644,9.644,0,0,0,1.749-5.695A9.061,9.061,0,0,0,717.41,489.713Zm-6.871.143a6.608,6.608,0,0,1,4.858,1.83,7.153,7.153,0,0,1,0,9.6,7.361,7.361,0,0,1-9.717,0,7.153,7.153,0,0,1,0-9.6A6.608,6.608,0,0,1,710.539,489.856Zm29.071,0.407v-2.686H722.94v2.686h13.377l-7.075,9.682,1.22,1.871h0.772l0.041-.04v0.04a7.3,7.3,0,0,1,4.818,1.567,6.1,6.1,0,0,1,0,8.828,7.3,7.3,0,0,1-4.818,1.566,8.194,8.194,0,0,1-4.31-1.078,5.619,5.619,0,0,1-2.48-3.194l-2.358,1.383a7.949,7.949,0,0,0,3.5,4.191,10.907,10.907,0,0,0,5.652,1.464,10.174,10.174,0,0,0,6.77-2.339,7.923,7.923,0,0,0,2.785-6.407,7.707,7.707,0,0,0-2.216-5.757,9.563,9.563,0,0,0-5.631-2.624Zm-20.8,69.81a7.069,7.069,0,0,0-2.541-5.858,9.979,9.979,0,0,0-12.076,0,7.064,7.064,0,0,0-2.542,5.858,6.928,6.928,0,0,0,3.782,6.387A8.626,8.626,0,0,0,702,569.288a6.971,6.971,0,0,0-1.281,4.129,7.3,7.3,0,0,0,2.724,6.041,11.679,11.679,0,0,0,13.581,0,7.3,7.3,0,0,0,2.724-6.041,6.971,6.971,0,0,0-1.281-4.129,8.626,8.626,0,0,0-3.436-2.828,6.928,6.928,0,0,0,3.782-6.387h0Zm-2.846,0a4.559,4.559,0,0,1-1.688,3.784,6.769,6.769,0,0,1-8.091,0,5.22,5.22,0,0,1-.041-7.648,7.247,7.247,0,0,1,8.173,0,4.557,4.557,0,0,1,1.647,3.864h0Zm-12.4,13.344a4.8,4.8,0,0,1,1.83-4.048,9.045,9.045,0,0,1,9.677,0,5.392,5.392,0,0,1,0,8.1,9.039,9.039,0,0,1-9.677,0A4.8,4.8,0,0,1,703.565,573.417Zm37.936,7.73V578.38H727.473l8.132-8.1a26.16,26.16,0,0,0,3.9-4.8,9.04,9.04,0,0,0,1.383-4.76,7.937,7.937,0,0,0-2.582-6.244,8.745,8.745,0,0,0-6-2.3,9.914,9.914,0,0,0-5.123,1.363,9.489,9.489,0,0,0-3.66,4.007l2.4,1.424a6.664,6.664,0,0,1,6.384-4.028,5.825,5.825,0,0,1,4.045,1.526,5.44,5.44,0,0,1,1.688,4.251q0,3.133-4.391,7.526l-10.247,10.334v2.563H741.5Z"></path><path id="_69_96_82" data-name="69 96 82" class="cls-2" d="M848.524,432.9l6.993-10.414h-3.212l-9.311,13.872a9.643,9.643,0,0,0-1.748,5.7,9.06,9.06,0,0,0,2.683,6.774,10.309,10.309,0,0,0,13.743,0,9.89,9.89,0,0,0,0-13.548,9.42,9.42,0,0,0-6.871-2.624,10.494,10.494,0,0,0-2.277.244h0Zm-4.432,9.154a6.455,6.455,0,0,1,1.85-4.8,7.364,7.364,0,0,1,9.717,0,7.153,7.153,0,0,1,0,9.6,7.361,7.361,0,0,1-9.717,0A6.45,6.45,0,0,1,844.092,442.054Zm34.723-17.432a10.309,10.309,0,0,0-13.743,0,9.889,9.889,0,0,0,0,13.547,9.418,9.418,0,0,0,6.871,2.624,10.5,10.5,0,0,0,2.277-.244l-6.993,10.414h3.212l9.311-13.872a9.647,9.647,0,0,0,1.749-5.7A9.057,9.057,0,0,0,878.815,424.622Zm-6.872.142A6.606,6.606,0,0,1,876.8,426.6a7.153,7.153,0,0,1,0,9.6,7.364,7.364,0,0,1-9.717,0,7.153,7.153,0,0,1,0-9.6A6.6,6.6,0,0,1,871.943,424.764Zm-14.474,64.949a10.309,10.309,0,0,0-13.743,0,9.89,9.89,0,0,0,0,13.548,9.418,9.418,0,0,0,6.871,2.624,10.446,10.446,0,0,0,2.277-.245l-6.993,10.415h3.212l9.311-13.873a9.643,9.643,0,0,0,1.748-5.695A9.06,9.06,0,0,0,857.469,489.713Zm-6.872.143a6.611,6.611,0,0,1,4.859,1.83,7.153,7.153,0,0,1,0,9.6,7.363,7.363,0,0,1-9.718,0,7.153,7.153,0,0,1,0-9.6A6.609,6.609,0,0,1,850.6,489.856Zm19.273,8.136,6.993-10.415h-3.212L864.34,501.45a9.641,9.641,0,0,0-1.748,5.7,9.056,9.056,0,0,0,2.683,6.773,10.309,10.309,0,0,0,13.743,0,9.889,9.889,0,0,0,0-13.547,9.42,9.42,0,0,0-6.871-2.624,10.439,10.439,0,0,0-2.277.244h0Zm-4.432,9.154a6.454,6.454,0,0,1,1.85-4.8,7.361,7.361,0,0,1,9.717,0,7.153,7.153,0,0,1,0,9.6,7.361,7.361,0,0,1-9.717,0A6.45,6.45,0,0,1,865.438,507.146Zm-6.363,52.927a7.069,7.069,0,0,0-2.541-5.858,9.979,9.979,0,0,0-12.076,0,7.064,7.064,0,0,0-2.542,5.858,6.928,6.928,0,0,0,3.782,6.387,8.626,8.626,0,0,0-3.436,2.828,6.971,6.971,0,0,0-1.281,4.129,7.3,7.3,0,0,0,2.724,6.041,11.679,11.679,0,0,0,13.581,0,7.3,7.3,0,0,0,2.724-6.041,6.971,6.971,0,0,0-1.281-4.129,8.626,8.626,0,0,0-3.436-2.828,6.928,6.928,0,0,0,3.782-6.387h0Zm-2.846,0a4.559,4.559,0,0,1-1.688,3.784,6.769,6.769,0,0,1-8.091,0,5.22,5.22,0,0,1-.041-7.648,7.247,7.247,0,0,1,8.173,0,4.557,4.557,0,0,1,1.647,3.864h0Zm-12.4,13.344a4.8,4.8,0,0,1,1.83-4.048,9.045,9.045,0,0,1,9.677,0,5.392,5.392,0,0,1,0,8.1,9.039,9.039,0,0,1-9.677,0A4.8,4.8,0,0,1,843.827,573.417Zm37.936,7.73V578.38H867.735l8.132-8.1a26.16,26.16,0,0,0,3.9-4.8,9.04,9.04,0,0,0,1.383-4.76,7.937,7.937,0,0,0-2.582-6.244,8.745,8.745,0,0,0-6-2.3,9.914,9.914,0,0,0-5.123,1.363,9.489,9.489,0,0,0-3.66,4.007l2.4,1.424a6.664,6.664,0,0,1,6.384-4.028,5.825,5.825,0,0,1,4.045,1.526,5.44,5.44,0,0,1,1.688,4.251q0,3.133-4.392,7.526l-10.246,10.334v2.563h18.094Z"></path><path id="_71_98_82" data-name="71 98 82" class="cls-2" d="M987.376,425.171h14.514l-10.733,25.792h2.968l10.735-25.792v-2.685H987.376v2.685Zm20.534-.082,0.73,2.441,6.38-1.912v25.345h2.85V422.486h-2.44Zm-8.743,64.624a10.309,10.309,0,0,0-13.743,0,9.893,9.893,0,0,0,0,13.548,9.421,9.421,0,0,0,6.872,2.624,10.446,10.446,0,0,0,2.277-.245l-6.994,10.415h3.213l9.308-13.873a9.61,9.61,0,0,0,1.75-5.695A9.045,9.045,0,0,0,999.167,489.713Zm-6.871.143a6.611,6.611,0,0,1,4.859,1.83,7.153,7.153,0,0,1,0,9.6,7.363,7.363,0,0,1-9.718,0,7.153,7.153,0,0,1,0-9.6A6.609,6.609,0,0,1,992.3,489.856Zm31.3,5.126a7.05,7.05,0,0,0-2.54-5.859,9.97,9.97,0,0,0-12.07,0,7.05,7.05,0,0,0-2.54,5.859,6.928,6.928,0,0,0,3.78,6.387,8.588,8.588,0,0,0-3.44,2.827,7,7,0,0,0-1.28,4.129,7.317,7.317,0,0,0,2.72,6.042,11.682,11.682,0,0,0,13.58,0,7.3,7.3,0,0,0,2.73-6.042,7,7,0,0,0-1.28-4.129,8.657,8.657,0,0,0-3.44-2.827,6.928,6.928,0,0,0,3.78-6.387h0Zm-2.84,0a4.573,4.573,0,0,1-1.69,3.783,6.763,6.763,0,0,1-8.09,0,5.213,5.213,0,0,1-.04-7.648,7.247,7.247,0,0,1,8.17,0,4.556,4.556,0,0,1,1.65,3.865h0Zm-12.4,13.343a4.793,4.793,0,0,1,1.83-4.047,9.027,9.027,0,0,1,9.67,0,5.391,5.391,0,0,1,0,8.1,9.027,9.027,0,0,1-9.67,0A4.792,4.792,0,0,1,1008.36,508.325Zm-6.81,51.748a7.066,7.066,0,0,0-2.545-5.858,9.979,9.979,0,0,0-12.076,0,7.063,7.063,0,0,0-2.541,5.858,6.927,6.927,0,0,0,3.781,6.387,8.626,8.626,0,0,0-3.436,2.828,6.971,6.971,0,0,0-1.281,4.129,7.3,7.3,0,0,0,2.725,6.041,11.677,11.677,0,0,0,13.58,0,7.307,7.307,0,0,0,2.723-6.041,7,7,0,0,0-1.28-4.129,8.6,8.6,0,0,0-3.435-2.828,6.924,6.924,0,0,0,3.785-6.387h0Zm-2.85,0a4.559,4.559,0,0,1-1.688,3.784,6.769,6.769,0,0,1-8.091,0,5.219,5.219,0,0,1-.04-7.648,7.246,7.246,0,0,1,8.172,0,4.557,4.557,0,0,1,1.647,3.864h0Zm-12.4,13.344a4.8,4.8,0,0,1,1.829-4.048,9.045,9.045,0,0,1,9.677,0,5.392,5.392,0,0,1,0,8.1,9.039,9.039,0,0,1-9.677,0A4.8,4.8,0,0,1,986.3,573.417Zm37.931,7.73V578.38h-14.02l8.13-8.1a26.132,26.132,0,0,0,3.9-4.8,9.055,9.055,0,0,0,1.38-4.76,7.939,7.939,0,0,0-2.58-6.244,8.744,8.744,0,0,0-6-2.3,9.919,9.919,0,0,0-5.12,1.363,9.553,9.553,0,0,0-3.66,4.007l2.4,1.424a6.668,6.668,0,0,1,6.38-4.028,5.813,5.813,0,0,1,4.05,1.526,5.424,5.424,0,0,1,1.69,4.251c0,2.089-1.47,4.6-4.39,7.526l-10.25,10.334v2.563h18.09Z"></path><path id="_74_101_82" data-name="74 101 82" class="cls-2" d="M1127.57,425.171h14.52l-10.74,25.792h2.97l10.73-25.792v-2.685h-17.48v2.685Zm36.39,17.412v-8.706h-2.85v8.706H1149.2l10.57-20.1h-3.13l-10.57,20.1v2.685h15.04v5.7h2.85v-5.7h3.66v-2.685h-3.66Zm-42.69,47.6,0.73,2.441,6.38-1.912v25.345h2.85V487.577h-2.44Zm37.61,11.635q0-6.712-2.83-10.72a9.89,9.89,0,0,0-15.9,0q-2.82,4.008-2.82,10.72t2.82,10.72a9.89,9.89,0,0,0,15.9,0Q1158.885,508.53,1158.88,501.816Zm-18.71,0q0-5.7,2.1-8.828a7,7,0,0,1,11.67,0q2.085,3.133,2.09,8.828t-2.09,8.828a7,7,0,0,1-11.67,0Q1140.17,507.512,1140.17,501.816Zm21.35-11.635,0.73,2.441,6.39-1.912v25.345h2.84V487.577h-2.44Zm-16.12,69.892a7.077,7.077,0,0,0-2.54-5.858,9.985,9.985,0,0,0-12.08,0,7.077,7.077,0,0,0-2.54,5.858,6.928,6.928,0,0,0,3.78,6.387,8.628,8.628,0,0,0-3.43,2.828,6.929,6.929,0,0,0-1.28,4.129,7.286,7.286,0,0,0,2.72,6.041,11.677,11.677,0,0,0,13.58,0,7.286,7.286,0,0,0,2.72-6.041,6.929,6.929,0,0,0-1.28-4.129,8.628,8.628,0,0,0-3.43-2.828,6.928,6.928,0,0,0,3.78-6.387h0Zm-2.85,0a4.567,4.567,0,0,1-1.68,3.784,6.782,6.782,0,0,1-8.1,0,5.234,5.234,0,0,1-.04-7.648,7.259,7.259,0,0,1,8.18,0,4.575,4.575,0,0,1,1.64,3.864h0Zm-12.4,13.344a4.8,4.8,0,0,1,1.83-4.048,9.05,9.05,0,0,1,9.68,0,5.392,5.392,0,0,1,0,8.1,9.044,9.044,0,0,1-9.68,0A4.8,4.8,0,0,1,1130.15,573.417Zm37.94,7.73V578.38h-14.03l8.13-8.1a26.65,26.65,0,0,0,3.91-4.8,9.055,9.055,0,0,0,1.38-4.76,7.939,7.939,0,0,0-2.58-6.244,8.761,8.761,0,0,0-6-2.3,9.893,9.893,0,0,0-5.12,1.363,9.427,9.427,0,0,0-3.66,4.007l2.4,1.424a6.65,6.65,0,0,1,6.38-4.028,5.806,5.806,0,0,1,4.04,1.526,5.424,5.424,0,0,1,1.69,4.251q0,3.133-4.39,7.526l-10.25,10.334v2.563h18.1Z"></path><path id="_76_103_82" data-name="76 103 82" class="cls-2" d="M1268.98,425.171h14.52l-10.73,25.792h2.96l10.74-25.792v-2.685h-17.49v2.685Zm26.8,7.729,6.99-10.414h-3.21l-9.31,13.872a9.617,9.617,0,0,0-1.75,5.7,9.092,9.092,0,0,0,2.68,6.774,10.318,10.318,0,0,0,13.75,0,9.9,9.9,0,0,0,0-13.548,9.421,9.421,0,0,0-6.87-2.624,10.5,10.5,0,0,0-2.28.244h0Zm-4.43,9.154a6.432,6.432,0,0,1,1.85-4.8,7.355,7.355,0,0,1,9.71,0,7.153,7.153,0,0,1,0,9.6,7.352,7.352,0,0,1-9.71,0A6.427,6.427,0,0,1,1291.35,442.054Zm-33.14,48.127,0.73,2.441,6.39-1.912v25.345h2.84V487.577h-2.44Zm37.61,11.635q0-6.712-2.83-10.72a9.88,9.88,0,0,0-15.89,0q-2.835,4.008-2.83,10.72t2.83,10.72a9.88,9.88,0,0,0,15.89,0Q1295.825,508.53,1295.82,501.816Zm-18.7,0c0-3.8.69-6.739,2.09-8.828a7,7,0,0,1,11.67,0c1.4,2.089,2.09,5.031,2.09,8.828s-0.69,6.74-2.09,8.828a7,7,0,0,1-11.67,0C1277.81,508.556,1277.12,505.614,1277.12,501.816Zm39.44-11.553v-2.686h-16.67v2.686h13.37l-7.07,9.682,1.22,1.871h0.77l0.04-.04v0.04a7.309,7.309,0,0,1,4.82,1.567,6.1,6.1,0,0,1,0,8.828,7.308,7.308,0,0,1-4.82,1.566,8.192,8.192,0,0,1-4.31-1.078,5.631,5.631,0,0,1-2.48-3.194l-2.36,1.383a7.983,7.983,0,0,0,3.5,4.191,10.9,10.9,0,0,0,5.65,1.464,10.172,10.172,0,0,0,6.77-2.339,7.915,7.915,0,0,0,2.79-6.407,7.7,7.7,0,0,0-2.22-5.757,9.557,9.557,0,0,0-5.63-2.624Zm-30.36,69.81a7.048,7.048,0,0,0-2.54-5.858,9.97,9.97,0,0,0-12.07,0,7.048,7.048,0,0,0-2.54,5.858,6.928,6.928,0,0,0,3.78,6.387,8.591,8.591,0,0,0-3.44,2.828,7,7,0,0,0-1.28,4.129,7.314,7.314,0,0,0,2.72,6.041,11.677,11.677,0,0,0,13.58,0,7.293,7.293,0,0,0,2.73-6.041,7,7,0,0,0-1.28-4.129,8.659,8.659,0,0,0-3.44-2.828,6.928,6.928,0,0,0,3.78-6.387h0Zm-2.84,0a4.574,4.574,0,0,1-1.69,3.784,6.767,6.767,0,0,1-8.09,0,5.213,5.213,0,0,1-.04-7.648,7.242,7.242,0,0,1,8.17,0,4.554,4.554,0,0,1,1.65,3.864h0Zm-12.4,13.344a4.8,4.8,0,0,1,1.83-4.048,9.033,9.033,0,0,1,9.67,0,5.392,5.392,0,0,1,0,8.1,9.027,9.027,0,0,1-9.67,0A4.8,4.8,0,0,1,1270.96,573.417Zm37.93,7.73V578.38h-14.03l8.14-8.1a26.132,26.132,0,0,0,3.9-4.8,9.055,9.055,0,0,0,1.38-4.76,7.939,7.939,0,0,0-2.58-6.244,8.744,8.744,0,0,0-6-2.3,9.893,9.893,0,0,0-5.12,1.363,9.427,9.427,0,0,0-3.66,4.007l2.4,1.424a6.668,6.668,0,0,1,6.38-4.028,5.848,5.848,0,0,1,4.05,1.526,5.458,5.458,0,0,1,1.69,4.251q0,3.133-4.4,7.526l-10.24,10.334v2.563h18.09Z"></path></g><g id="сами_размеры" data-name="сами размеры"><path id="XL_52" data-name="XL 52" class="cls-2" d="M2096.13,248.678l8.5-13.971h-5.38l-5.83,9.574-5.83-9.574h-5.33l8.49,13.971-9.03,14.792h5.38l6.32-10.4,6.32,10.4h5.38Zm17.61-13.971h-4.72V263.47h16.42v-4.52h-11.7V234.707ZM2089.32,311.3l0.49-6.41h11.66v-4.438h-16.01l-1.11,15.45h8.37a5.666,5.666,0,0,1,3.82,1.233,4.2,4.2,0,0,1,1.44,3.369,4.246,4.246,0,0,1-1.46,3.39,5.731,5.731,0,0,1-3.88,1.253q-4.56,0-5.7-3.9l-4.07,2.342a8.7,8.7,0,0,0,3.74,4.581,11.449,11.449,0,0,0,6.03,1.582,10.672,10.672,0,0,0,7.14-2.465,9.408,9.408,0,0,0,.09-13.539,10.252,10.252,0,0,0-6.94-2.445h-3.61Zm34.69,17.915v-4.561H2112.1l6.49-6.492q4.875-4.971,4.88-9.369a8.192,8.192,0,0,0-2.71-6.492,9.48,9.48,0,0,0-6.48-2.383,10.394,10.394,0,0,0-5.46,1.479,9.715,9.715,0,0,0-3.82,4.356l3.98,2.342a5.632,5.632,0,0,1,5.34-3.575,4.488,4.488,0,0,1,3.18,1.171,4.271,4.271,0,0,1,1.25,3.267q0,2.672-3.65,6.328l-10.02,10.231v3.7h18.93Z"></path><path id="_91_118_82" data-name="91 118 82" class="cls-2" d="M2103.74,426.161a10.412,10.412,0,0,0-13.88,0,9.991,9.991,0,0,0,0,13.683,9.516,9.516,0,0,0,6.94,2.65,10.622,10.622,0,0,0,2.3-.246l-7.06,10.519h3.24l9.4-14.012a9.72,9.72,0,0,0,1.77-5.752A9.175,9.175,0,0,0,2103.74,426.161Zm-6.94.144a6.656,6.656,0,0,1,4.9,1.849,7.221,7.221,0,0,1,0,9.7,7.43,7.43,0,0,1-9.81,0,7.249,7.249,0,0,1,0-9.7A6.679,6.679,0,0,1,2096.8,426.305Zm12.31,0.329,0.74,2.465,6.45-1.931v25.6h2.87V424h-2.46Zm-30.33,65.744,0.74,2.465,6.44-1.931v25.6h2.87V489.748h-2.46Zm14.78,0,0.73,2.465,6.45-1.931v25.6h2.87V489.748h-2.46Zm34.07,4.848a7.142,7.142,0,0,0-2.57-5.917,10.07,10.07,0,0,0-12.19,0,7.142,7.142,0,0,0-2.57,5.917,7.007,7.007,0,0,0,3.82,6.451,8.774,8.774,0,0,0-3.47,2.856,7.056,7.056,0,0,0-1.29,4.171,7.385,7.385,0,0,0,2.75,6.1,11.788,11.788,0,0,0,13.71,0,7.357,7.357,0,0,0,2.75-6.1,7.056,7.056,0,0,0-1.29-4.171,8.7,8.7,0,0,0-3.47-2.856,6.99,6.99,0,0,0,3.82-6.451h0Zm-2.88,0a4.591,4.591,0,0,1-1.7,3.822,6.831,6.831,0,0,1-8.17,0,5.28,5.28,0,0,1-.04-7.725,7.315,7.315,0,0,1,8.25,0,4.6,4.6,0,0,1,1.66,3.9h0ZM2112.23,510.7a4.85,4.85,0,0,1,1.85-4.089,9.129,9.129,0,0,1,9.77,0,5.443,5.443,0,0,1,0,8.177,9.123,9.123,0,0,1-9.77,0A4.848,4.848,0,0,1,2112.23,510.7Zm-10.36,52.266a7.142,7.142,0,0,0-2.57-5.917,10.07,10.07,0,0,0-12.19,0,7.142,7.142,0,0,0-2.57,5.917,7.007,7.007,0,0,0,3.82,6.451,8.782,8.782,0,0,0-3.47,2.856,7.056,7.056,0,0,0-1.29,4.171,7.385,7.385,0,0,0,2.75,6.1,11.788,11.788,0,0,0,13.71,0,7.357,7.357,0,0,0,2.75-6.1,7.056,7.056,0,0,0-1.29-4.171,8.713,8.713,0,0,0-3.47-2.856,6.99,6.99,0,0,0,3.82-6.451h0Zm-2.88,0a4.591,4.591,0,0,1-1.7,3.822,6.831,6.831,0,0,1-8.17,0,5.28,5.28,0,0,1-.04-7.725,7.315,7.315,0,0,1,8.25,0,4.6,4.6,0,0,1,1.66,3.9h0Zm-12.52,13.478a4.851,4.851,0,0,1,1.85-4.089,9.129,9.129,0,0,1,9.77,0,5.443,5.443,0,0,1,0,8.177,9.123,9.123,0,0,1-9.77,0A4.848,4.848,0,0,1,2086.47,576.448Zm38.3,7.807v-2.794h-14.16l8.21-8.177a26.249,26.249,0,0,0,3.94-4.849,9.142,9.142,0,0,0,1.4-4.807,8.016,8.016,0,0,0-2.61-6.308A8.817,8.817,0,0,0,2115.5,555a10.042,10.042,0,0,0-5.18,1.376,9.611,9.611,0,0,0-3.69,4.048l2.42,1.438a6.73,6.73,0,0,1,6.45-4.068,5.872,5.872,0,0,1,4.08,1.541,5.485,5.485,0,0,1,1.71,4.294q0,3.165-4.44,7.6l-10.34,10.437v2.589h18.26Z"></path><path id="L_XL_50-52" data-name="L/XL 50-52" class="cls-2" d="M1934.54,236.138h-4.73V264.9h16.43v-4.519h-11.7V236.138Zm32.84-4.109h-2.26L1948.7,269.01h2.26Zm16.87,18.08,8.5-13.971h-5.38l-5.83,9.574-5.83-9.574h-5.34l8.5,13.971-9.03,14.792h5.38l6.32-10.4,6.32,10.4h5.38Zm17.61-13.971h-4.72V264.9h16.42v-4.519h-11.7V236.138Zm-80.6,76.592,0.49-6.41h11.66v-4.438H1917.4l-1.11,15.45h8.37a5.666,5.666,0,0,1,3.82,1.233,4.2,4.2,0,0,1,1.44,3.369,4.246,4.246,0,0,1-1.46,3.39,5.732,5.732,0,0,1-3.88,1.254q-4.56,0-5.71-3.9l-4.06,2.342a8.662,8.662,0,0,0,3.74,4.582,11.458,11.458,0,0,0,6.03,1.582,10.667,10.667,0,0,0,7.14-2.466,8.388,8.388,0,0,0,2.92-6.78,8.481,8.481,0,0,0-2.83-6.759,10.275,10.275,0,0,0-6.94-2.445h-3.61Zm38.99,3.534q0-6.78-2.97-10.848a10.532,10.532,0,0,0-16.63,0q-2.97,4.068-2.97,10.848t2.97,10.848a10.532,10.532,0,0,0,16.63,0Q1960.25,323.044,1960.25,316.264Zm-16.15,7.643c-1.14-1.781-1.7-4.328-1.7-7.643s0.56-5.862,1.7-7.643a5.784,5.784,0,0,1,9.75,0q1.68,2.672,1.68,7.643t-1.68,7.643A5.784,5.784,0,0,1,1944.1,323.907Zm36.27-3.616v-4.274h-15.19v4.274h15.19Zm10.96-7.561,0.49-6.41h11.66v-4.438h-16.01l-1.11,15.45h8.38a5.638,5.638,0,0,1,3.81,1.233,4.663,4.663,0,0,1-.02,6.759,5.732,5.732,0,0,1-3.88,1.254c-3.03,0-4.94-1.3-5.7-3.9l-4.07,2.342a8.707,8.707,0,0,0,3.74,4.582,11.458,11.458,0,0,0,6.03,1.582,10.712,10.712,0,0,0,7.15-2.466,9.419,9.419,0,0,0,.08-13.539,10.257,10.257,0,0,0-6.94-2.445h-3.61Zm34.69,17.915v-4.56h-11.91l6.49-6.493q4.89-4.971,4.88-9.368a8.192,8.192,0,0,0-2.71-6.492,9.458,9.458,0,0,0-6.48-2.384,10.385,10.385,0,0,0-5.46,1.48,9.771,9.771,0,0,0-3.82,4.355l3.98,2.342a5.632,5.632,0,0,1,5.34-3.575,4.459,4.459,0,0,1,3.18,1.171,4.235,4.235,0,0,1,1.25,3.267c0,1.781-1.21,3.89-3.65,6.328l-10.02,10.231v3.7h18.93Z"></path><path id="L_50" data-name="L 50" class="cls-2" d="M1834.5,235.816h-4.72v28.763h16.42v-4.52h-11.7V235.816Zm-14.12,76.592,0.49-6.41h11.66V301.56h-16.01l-1.11,15.45h8.38a5.638,5.638,0,0,1,3.81,1.233,4.2,4.2,0,0,1,1.44,3.369,4.246,4.246,0,0,1-1.46,3.39,5.731,5.731,0,0,1-3.88,1.253c-3.03,0-4.94-1.3-5.7-3.9l-4.07,2.342a8.7,8.7,0,0,0,3.74,4.581,11.449,11.449,0,0,0,6.03,1.582,10.711,10.711,0,0,0,7.15-2.465,9.419,9.419,0,0,0,.08-13.539,10.252,10.252,0,0,0-6.94-2.445h-3.61Zm39,3.534q0-6.78-2.98-10.848a10.532,10.532,0,0,0-16.63,0q-2.97,4.068-2.97,10.848t2.97,10.848a10.534,10.534,0,0,0,16.63,0Q1859.37,322.722,1859.38,315.942Zm-16.16,7.643q-1.7-2.671-1.7-7.643t1.7-7.643a5.784,5.784,0,0,1,9.75,0c1.12,1.781,1.69,4.329,1.69,7.643s-0.57,5.862-1.69,7.643A5.785,5.785,0,0,1,1843.22,323.585Z"></path><path id="L_48-50" data-name="L 48-50" class="cls-2" d="M1698.11,234.713h-4.72v28.763h16.42v-4.52h-11.7V234.713Zm-36.57,84.933v-7.478h-4.76v7.478h-8.99l9.89-19.189h-5.13l-9.9,19.189v4.4h14.13v5.177h4.76v-5.177h3.28v-4.4h-3.28Zm25.24-11.464a7.436,7.436,0,0,0-2.64-6.1,10.812,10.812,0,0,0-12.96,0,7.452,7.452,0,0,0-2.62,6.1,6.864,6.864,0,0,0,3.24,6.082,8.187,8.187,0,0,0-3.12,2.938,8.21,8.21,0,0,0,1.66,10.272,12.886,12.886,0,0,0,14.64,0,7.665,7.665,0,0,0,2.75-6.225,7.532,7.532,0,0,0-4.23-6.985A6.835,6.835,0,0,0,1686.78,308.182Zm-5.97-2.753a4.055,4.055,0,0,1-.02,5.876,5.121,5.121,0,0,1-6.26,0,4.1,4.1,0,0,1-.02-5.876A5.344,5.344,0,0,1,1680.81,305.429Zm-7.04,18.676a4.437,4.437,0,0,1,0-6.616,6.114,6.114,0,0,1,3.9-1.171,6.035,6.035,0,0,1,3.86,1.171,4.437,4.437,0,0,1,0,6.616,6.041,6.041,0,0,1-3.86,1.171A6.12,6.12,0,0,1,1673.77,324.105Zm33.87-5.239v-4.274h-15.19v4.274h15.19Zm10.96-7.561,0.49-6.41h11.66v-4.438h-16.01l-1.11,15.45h8.38a5.638,5.638,0,0,1,3.81,1.233,4.2,4.2,0,0,1,1.44,3.369,4.246,4.246,0,0,1-1.46,3.39,5.732,5.732,0,0,1-3.88,1.254c-3.03,0-4.94-1.3-5.7-3.9l-4.07,2.342a8.707,8.707,0,0,0,3.74,4.582,11.458,11.458,0,0,0,6.03,1.582,10.712,10.712,0,0,0,7.15-2.466,9.419,9.419,0,0,0,.08-13.539,10.257,10.257,0,0,0-6.94-2.445h-3.61Zm39,3.534q0-6.78-2.98-10.848a10.532,10.532,0,0,0-16.63,0q-2.97,4.068-2.97,10.848t2.97,10.848a10.532,10.532,0,0,0,16.63,0Q1757.59,321.619,1757.6,314.839Zm-16.16,7.643q-1.7-2.671-1.7-7.643t1.7-7.643a5.784,5.784,0,0,1,9.75,0c1.12,1.781,1.69,4.329,1.69,7.643s-0.57,5.862-1.69,7.643A5.784,5.784,0,0,1,1741.44,322.482Z"></path><path id="M_L_46-48" data-name="M/L 46-48" class="cls-2" d="M1418.05,235.983l-8.7,14.382-8.66-14.382h-5.09v28.763h4.72V244.2l8.74,14.505h0.58l8.74-14.464v20.5h4.72V235.983h-5.05Zm28.45-4.109h-2.25l-16.43,36.981h2.26Zm9.44,4.109h-4.72v28.763h16.42v-4.52h-11.7V235.983Zm-63.83,84.933v-7.478h-4.76v7.478h-8.99l9.89-19.189h-5.13l-9.89,19.189v4.4h14.12v5.177h4.76v-5.177h3.28v-4.4h-3.28Zm15.68-9.533,6.57-9.656h-5.38l-9.11,13.683a9.975,9.975,0,0,0-1.73,5.794,9.408,9.408,0,0,0,2.84,7.088,11.186,11.186,0,0,0,14.65,0,10.265,10.265,0,0,0,0-14.176,10.077,10.077,0,0,0-7.3-2.733h-0.54Zm-3.41,13.7a5.748,5.748,0,0,1,0-7.766,5.481,5.481,0,0,1,3.95-1.459,5.425,5.425,0,0,1,3.9,1.459,5.748,5.748,0,0,1,0,7.766,5.421,5.421,0,0,1-3.9,1.459A5.476,5.476,0,0,1,1404.38,325.087Zm33.58-4.951v-4.274h-15.18v4.274h15.18Zm23.12,0.78v-7.478h-4.77v7.478h-8.99l9.9-19.189h-5.13l-9.9,19.189v4.4h14.12v5.177h4.77v-5.177h3.28v-4.4h-3.28Zm25.24-11.464a7.412,7.412,0,0,0-2.65-6.1,10.8,10.8,0,0,0-12.95,0,7.449,7.449,0,0,0-2.62,6.1,6.862,6.862,0,0,0,3.24,6.081,8.2,8.2,0,0,0-3.12,2.938,8.211,8.211,0,0,0,1.66,10.273,12.891,12.891,0,0,0,14.64,0,7.665,7.665,0,0,0,2.75-6.225,7.534,7.534,0,0,0-4.23-6.986A6.834,6.834,0,0,0,1486.32,309.452Zm-5.97-2.753a4.055,4.055,0,0,1-.02,5.876,5.121,5.121,0,0,1-6.26,0,4.1,4.1,0,0,1-.02-5.876A5.344,5.344,0,0,1,1480.35,306.7Zm-7.04,18.676a4.437,4.437,0,0,1,0-6.616,7.013,7.013,0,0,1,7.76,0,4.437,4.437,0,0,1,0,6.616A7.013,7.013,0,0,1,1473.31,325.375Z"></path><path id="L_48" data-name="L 48" class="cls-2" d="M1563.12,236.106h-4.72v28.763h16.42v-4.52h-11.7V236.106Zm-1.54,84.933v-7.478h-4.76v7.478h-8.99l9.89-19.189h-5.13l-9.89,19.189v4.4h14.12v5.177h4.76v-5.177h3.28v-4.4h-3.28Zm25.25-11.464a7.441,7.441,0,0,0-2.65-6.1,10.8,10.8,0,0,0-12.95,0,7.427,7.427,0,0,0-2.63,6.1,6.862,6.862,0,0,0,3.24,6.081,8.2,8.2,0,0,0-3.12,2.938,8.2,8.2,0,0,0,1.67,10.273,12.874,12.874,0,0,0,14.63,0,7.669,7.669,0,0,0,2.75-6.226,7.533,7.533,0,0,0-4.23-6.985A6.842,6.842,0,0,0,1586.83,309.575Zm-5.98-2.753a4.033,4.033,0,0,1-.02,5.876,5.121,5.121,0,0,1-6.26,0,4.1,4.1,0,0,1-.02-5.876A5.344,5.344,0,0,1,1580.85,306.822Zm-7.04,18.675a4.456,4.456,0,0,1,0-6.615,6.114,6.114,0,0,1,3.9-1.171,6.016,6.016,0,0,1,3.86,1.171,4.436,4.436,0,0,1,0,6.615,6.016,6.016,0,0,1-3.86,1.171A6.114,6.114,0,0,1,1573.81,325.5Z"></path><path id="_79_106_82" data-name="79 106 82" class="cls-2" d="M1410.32,426.716h14.66l-10.84,26.051h3l10.84-26.051V424h-17.66v2.712Zm37.94-.555a10.412,10.412,0,0,0-13.88,0,9.991,9.991,0,0,0,0,13.683,9.516,9.516,0,0,0,6.94,2.65,10.622,10.622,0,0,0,2.3-.246l-7.06,10.519h3.24l9.4-14.012a9.72,9.72,0,0,0,1.77-5.752A9.175,9.175,0,0,0,1448.26,426.161Zm-6.94.144a6.656,6.656,0,0,1,4.9,1.849,7.221,7.221,0,0,1,0,9.7,7.43,7.43,0,0,1-9.81,0,7.221,7.221,0,0,1,0-9.7A6.679,6.679,0,0,1,1441.32,426.305Zm-41.46,66.073,0.74,2.465,6.44-1.931v25.6h2.87V489.748h-2.46Zm37.97,11.751q0-6.78-2.85-10.827a9.99,9.99,0,0,0-16.06,0q-2.85,4.048-2.85,10.827t2.85,10.828a9.99,9.99,0,0,0,16.06,0Q1437.83,510.91,1437.83,504.129Zm-18.88,0q0-5.751,2.11-8.916a7.064,7.064,0,0,1,11.78,0q2.115,3.165,2.12,8.916t-2.12,8.917a7.064,7.064,0,0,1-11.78,0Q1418.945,509.883,1418.95,504.129Zm30.33-3.862,7.06-10.519h-3.24l-9.4,14.012a9.724,9.724,0,0,0-1.77,5.752,9.176,9.176,0,0,0,2.71,6.842,10.412,10.412,0,0,0,13.88,0,9.991,9.991,0,0,0,0-13.683,9.517,9.517,0,0,0-6.94-2.651,10.622,10.622,0,0,0-2.3.247h0Zm-4.47,9.245a6.5,6.5,0,0,1,1.87-4.848,7.43,7.43,0,0,1,9.81,0,7.249,7.249,0,0,1,0,9.7,7.43,7.43,0,0,1-9.81,0A6.5,6.5,0,0,1,1444.81,509.512Zm-16.28,53.458a7.136,7.136,0,0,0-2.56-5.917,10.085,10.085,0,0,0-12.2,0,7.136,7.136,0,0,0-2.56,5.917,7,7,0,0,0,3.81,6.451,8.682,8.682,0,0,0-3.46,2.856,7,7,0,0,0-1.3,4.171,7.385,7.385,0,0,0,2.75,6.1,11.788,11.788,0,0,0,13.71,0,7.357,7.357,0,0,0,2.75-6.1,7.056,7.056,0,0,0-1.29-4.171,8.713,8.713,0,0,0-3.47-2.856,6.99,6.99,0,0,0,3.82-6.451h0Zm-2.87,0a4.6,4.6,0,0,1-1.71,3.822,6.831,6.831,0,0,1-8.17,0,5.28,5.28,0,0,1-.04-7.725,7.315,7.315,0,0,1,8.25,0,4.606,4.606,0,0,1,1.67,3.9h0Zm-12.52,13.478a4.844,4.844,0,0,1,1.84-4.089,9.129,9.129,0,0,1,9.77,0,5.443,5.443,0,0,1,0,8.177,9.123,9.123,0,0,1-9.77,0A4.841,4.841,0,0,1,1413.14,576.448Zm38.3,7.807v-2.794h-14.17l8.21-8.177a26.342,26.342,0,0,0,3.95-4.849,9.13,9.13,0,0,0,1.39-4.807,8.016,8.016,0,0,0-2.61-6.308,8.8,8.8,0,0,0-6.05-2.321,10.006,10.006,0,0,0-5.17,1.376,9.632,9.632,0,0,0-3.7,4.048l2.42,1.438a6.739,6.739,0,0,1,6.45-4.068,5.854,5.854,0,0,1,4.08,1.541,5.485,5.485,0,0,1,1.71,4.294q0,3.165-4.44,7.6l-10.34,10.437v2.589h18.27Z"></path><path id="_81_108_82" data-name="81 108 82" class="cls-2" d="M1567.48,431.482a7.136,7.136,0,0,0-2.56-5.917,10.07,10.07,0,0,0-12.19,0,7.142,7.142,0,0,0-2.57,5.917,6.99,6.99,0,0,0,3.82,6.451,8.7,8.7,0,0,0-3.47,2.856,7.056,7.056,0,0,0-1.29,4.171,7.358,7.358,0,0,0,2.75,6.1,11.788,11.788,0,0,0,13.71,0,7.386,7.386,0,0,0,2.75-6.1,7.056,7.056,0,0,0-1.29-4.171,8.765,8.765,0,0,0-3.47-2.856,7,7,0,0,0,3.81-6.451h0Zm-2.87,0a4.619,4.619,0,0,1-1.7,3.822,6.831,6.831,0,0,1-8.17,0,5.258,5.258,0,0,1-.04-7.725,7.315,7.315,0,0,1,8.25,0,4.6,4.6,0,0,1,1.66,3.9h0Zm-12.52,13.478a4.85,4.85,0,0,1,1.85-4.089,9.129,9.129,0,0,1,9.77,0,5.443,5.443,0,0,1,0,8.177,9.123,9.123,0,0,1-9.77,0A4.848,4.848,0,0,1,1552.09,444.96Zm18.6-18.326,0.74,2.465,6.44-1.931v25.6h2.87V424h-2.46Zm-36.25,65.744,0.74,2.465,6.44-1.931v25.6h2.88V489.748h-2.47Zm37.97,11.751q0-6.78-2.85-10.827a9.98,9.98,0,0,0-16.05,0q-2.865,4.048-2.86,10.827t2.86,10.828a9.98,9.98,0,0,0,16.05,0Q1572.41,510.91,1572.41,504.129Zm-18.88,0q0-5.751,2.11-8.916a7.064,7.064,0,0,1,11.78,0q2.115,3.165,2.12,8.916t-2.12,8.917a7.064,7.064,0,0,1-11.78,0Q1553.525,509.883,1553.53,504.129Zm41.66-6.9a7.136,7.136,0,0,0-2.56-5.917,10.07,10.07,0,0,0-12.19,0,7.142,7.142,0,0,0-2.57,5.917,6.99,6.99,0,0,0,3.82,6.451,8.7,8.7,0,0,0-3.47,2.856,7.056,7.056,0,0,0-1.29,4.171,7.357,7.357,0,0,0,2.75,6.1,11.788,11.788,0,0,0,13.71,0,7.385,7.385,0,0,0,2.75-6.1,7,7,0,0,0-1.3-4.171,8.674,8.674,0,0,0-3.46-2.856,7,7,0,0,0,3.81-6.451h0Zm-2.87,0a4.619,4.619,0,0,1-1.7,3.822,6.831,6.831,0,0,1-8.17,0,5.258,5.258,0,0,1-.04-7.725,7.315,7.315,0,0,1,8.25,0,4.6,4.6,0,0,1,1.66,3.9h0ZM1579.8,510.7a4.85,4.85,0,0,1,1.85-4.089,9.129,9.129,0,0,1,9.77,0,5.462,5.462,0,0,1,0,8.177,9.123,9.123,0,0,1-9.77,0A4.848,4.848,0,0,1,1579.8,510.7Zm-16.32,52.266a7.136,7.136,0,0,0-2.56-5.917,10.085,10.085,0,0,0-12.2,0,7.136,7.136,0,0,0-2.56,5.917,6.99,6.99,0,0,0,3.82,6.451,8.713,8.713,0,0,0-3.47,2.856,7.064,7.064,0,0,0-1.3,4.171,7.385,7.385,0,0,0,2.75,6.1,11.8,11.8,0,0,0,13.72,0,7.385,7.385,0,0,0,2.75-6.1,7,7,0,0,0-1.3-4.171,8.713,8.713,0,0,0-3.47-2.856,6.99,6.99,0,0,0,3.82-6.451h0Zm-2.87,0a4.6,4.6,0,0,1-1.71,3.822,6.816,6.816,0,0,1-8.16,0,5.269,5.269,0,0,1-.05-7.725,7.331,7.331,0,0,1,8.26,0,4.627,4.627,0,0,1,1.66,3.9h0Zm-12.52,13.478a4.825,4.825,0,0,1,1.85-4.089,9.129,9.129,0,0,1,9.77,0,5.462,5.462,0,0,1,0,8.177,9.123,9.123,0,0,1-9.77,0A4.821,4.821,0,0,1,1548.09,576.448Zm38.3,7.807v-2.794h-14.16l8.21-8.177a26.667,26.667,0,0,0,3.94-4.849,9.13,9.13,0,0,0,1.39-4.807,8.042,8.042,0,0,0-2.6-6.308,8.842,8.842,0,0,0-6.06-2.321,10.006,10.006,0,0,0-5.17,1.376,9.632,9.632,0,0,0-3.7,4.048l2.43,1.438a6.725,6.725,0,0,1,6.44-4.068,5.9,5.9,0,0,1,4.09,1.541,5.512,5.512,0,0,1,1.7,4.294q0,3.165-4.43,7.6l-10.35,10.437v2.589h18.27Z"></path><path id="_84_111_82" data-name="84 111 82" class="cls-2" d="M1696.29,431.482a7.142,7.142,0,0,0-2.57-5.917,10.07,10.07,0,0,0-12.19,0,7.142,7.142,0,0,0-2.57,5.917,7.007,7.007,0,0,0,3.82,6.451,8.7,8.7,0,0,0-3.47,2.856,7.056,7.056,0,0,0-1.29,4.171,7.386,7.386,0,0,0,2.75,6.1,11.788,11.788,0,0,0,13.71,0,7.386,7.386,0,0,0,2.75-6.1,7.056,7.056,0,0,0-1.29-4.171,8.7,8.7,0,0,0-3.47-2.856,7.007,7.007,0,0,0,3.82-6.451h0Zm-2.88,0a4.591,4.591,0,0,1-1.7,3.822,6.831,6.831,0,0,1-8.17,0,5.28,5.28,0,0,1-.04-7.725,7.315,7.315,0,0,1,8.25,0,4.6,4.6,0,0,1,1.66,3.9h0Zm-12.52,13.478a4.85,4.85,0,0,1,1.85-4.089,9.129,9.129,0,0,1,9.77,0,5.443,5.443,0,0,1,0,8.177,9.123,9.123,0,0,1-9.77,0A4.848,4.848,0,0,1,1680.89,444.96Zm38.3-.658v-8.793h-2.87V444.3h-12.03l10.68-20.3h-3.17l-10.67,20.3v2.712h15.19v5.753h2.87v-5.753h3.7V444.3h-3.7ZM1679,492.378l0.74,2.465,6.45-1.931v25.6h2.87V489.748h-2.46Zm14.78,0,0.74,2.465,6.45-1.931v25.6h2.87V489.748h-2.46Zm14.78,0,0.74,2.465,6.45-1.931v25.6h2.87V489.748h-2.46Zm-10.73,70.592a7.142,7.142,0,0,0-2.57-5.917,10.07,10.07,0,0,0-12.19,0,7.142,7.142,0,0,0-2.57,5.917,7.007,7.007,0,0,0,3.82,6.451,8.713,8.713,0,0,0-3.47,2.856,7.056,7.056,0,0,0-1.29,4.171,7.385,7.385,0,0,0,2.75,6.1,11.788,11.788,0,0,0,13.71,0,7.385,7.385,0,0,0,2.75-6.1,7.056,7.056,0,0,0-1.29-4.171,8.713,8.713,0,0,0-3.47-2.856,7.007,7.007,0,0,0,3.82-6.451h0Zm-2.88,0a4.591,4.591,0,0,1-1.7,3.822,6.831,6.831,0,0,1-8.17,0,5.28,5.28,0,0,1-.04-7.725,7.315,7.315,0,0,1,8.25,0,4.6,4.6,0,0,1,1.66,3.9h0Zm-12.52,13.478a4.851,4.851,0,0,1,1.85-4.089,9.129,9.129,0,0,1,9.77,0,5.443,5.443,0,0,1,0,8.177,9.123,9.123,0,0,1-9.77,0A4.848,4.848,0,0,1,1682.43,576.448Zm38.3,7.807v-2.794h-14.16l8.21-8.177a26.249,26.249,0,0,0,3.94-4.849,9.142,9.142,0,0,0,1.4-4.807,8.016,8.016,0,0,0-2.61-6.308,8.835,8.835,0,0,0-6.05-2.321,10.042,10.042,0,0,0-5.18,1.376,9.548,9.548,0,0,0-3.69,4.048l2.42,1.438a6.73,6.73,0,0,1,6.45-4.068,5.889,5.889,0,0,1,4.08,1.541,5.478,5.478,0,0,1,1.7,4.294q0,3.165-4.43,7.6l-10.34,10.437v2.589h18.26Z"></path><path id="_86_113_82" data-name="86 113 82" class="cls-2" d="M1833.88,431.482a7.136,7.136,0,0,0-2.56-5.917,10.085,10.085,0,0,0-12.2,0,7.136,7.136,0,0,0-2.56,5.917,6.99,6.99,0,0,0,3.82,6.451,8.629,8.629,0,0,0-3.47,2.856,7,7,0,0,0-1.3,4.171,7.386,7.386,0,0,0,2.75,6.1,11.788,11.788,0,0,0,13.71,0,7.366,7.366,0,0,0,2.76-6.1,7.064,7.064,0,0,0-1.3-4.171,8.7,8.7,0,0,0-3.47-2.856,6.99,6.99,0,0,0,3.82-6.451h0Zm-2.87,0a4.6,4.6,0,0,1-1.71,3.822,6.831,6.831,0,0,1-8.17,0,5.28,5.28,0,0,1-.04-7.725,7.331,7.331,0,0,1,8.26,0,4.626,4.626,0,0,1,1.66,3.9h0Zm-12.52,13.478a4.843,4.843,0,0,1,1.84-4.089,9.129,9.129,0,0,1,9.77,0,5.443,5.443,0,0,1,0,8.177,9.123,9.123,0,0,1-9.77,0A4.841,4.841,0,0,1,1818.49,444.96Zm27.79-10.437L1853.34,424h-3.24l-9.4,14.011a9.727,9.727,0,0,0-1.77,5.753,9.139,9.139,0,0,0,2.71,6.842,10.412,10.412,0,0,0,13.88,0,10.018,10.018,0,0,0,0-13.683,9.517,9.517,0,0,0-6.94-2.651,10.494,10.494,0,0,0-2.3.247h0Zm-4.48,9.245a6.545,6.545,0,0,1,1.87-4.849,7.43,7.43,0,0,1,9.81,0,7.222,7.222,0,0,1,0,9.7,7.43,7.43,0,0,1-9.81,0A6.543,6.543,0,0,1,1841.8,443.768Zm-30.13,48.61,0.74,2.465,6.45-1.931v25.6h2.87V489.748h-2.46Zm14.78,0,0.74,2.465,6.45-1.931v25.6h2.87V489.748h-2.46Zm33.05,0.082v-2.712h-16.83v2.712h13.5l-7.14,9.779,1.23,1.89h0.78l0.04-.041v0.041a7.4,7.4,0,0,1,4.87,1.582,6.159,6.159,0,0,1,0,8.917,7.4,7.4,0,0,1-4.87,1.582,8.252,8.252,0,0,1-4.35-1.089,5.669,5.669,0,0,1-2.5-3.226l-2.38,1.4a8.006,8.006,0,0,0,3.53,4.233,10.972,10.972,0,0,0,5.7,1.479,10.293,10.293,0,0,0,6.84-2.363,8.014,8.014,0,0,0,2.81-6.471,7.794,7.794,0,0,0-2.24-5.815,9.66,9.66,0,0,0-5.68-2.65Zm-25.11,70.51a7.136,7.136,0,0,0-2.56-5.917,10.07,10.07,0,0,0-12.19,0,7.142,7.142,0,0,0-2.57,5.917,6.99,6.99,0,0,0,3.82,6.451,8.713,8.713,0,0,0-3.47,2.856,7.056,7.056,0,0,0-1.29,4.171,7.357,7.357,0,0,0,2.75,6.1,11.788,11.788,0,0,0,13.71,0,7.385,7.385,0,0,0,2.75-6.1,7.056,7.056,0,0,0-1.29-4.171,8.782,8.782,0,0,0-3.47-2.856,7,7,0,0,0,3.81-6.451h0Zm-2.87,0a4.619,4.619,0,0,1-1.7,3.822,6.831,6.831,0,0,1-8.17,0,5.258,5.258,0,0,1-.04-7.725,7.315,7.315,0,0,1,8.25,0,4.6,4.6,0,0,1,1.66,3.9h0ZM1819,576.448a4.851,4.851,0,0,1,1.85-4.089,9.129,9.129,0,0,1,9.77,0,5.443,5.443,0,0,1,0,8.177,9.123,9.123,0,0,1-9.77,0A4.848,4.848,0,0,1,1819,576.448Zm38.3,7.807v-2.794h-14.16l8.21-8.177a26.249,26.249,0,0,0,3.94-4.849,9.142,9.142,0,0,0,1.4-4.807,8.016,8.016,0,0,0-2.61-6.308,8.842,8.842,0,0,0-6.06-2.321,10.032,10.032,0,0,0-5.17,1.376,9.548,9.548,0,0,0-3.69,4.048l2.42,1.438a6.725,6.725,0,0,1,6.44-4.068,5.9,5.9,0,0,1,4.09,1.541,5.512,5.512,0,0,1,1.7,4.294q0,3.165-4.43,7.6l-10.35,10.437v2.589h18.27Z"></path><path id="_89_116_82" data-name="89 116 82" class="cls-2" d="M1968.18,431.482a7.142,7.142,0,0,0-2.57-5.917,10.07,10.07,0,0,0-12.19,0,7.142,7.142,0,0,0-2.57,5.917,7.007,7.007,0,0,0,3.82,6.451,8.7,8.7,0,0,0-3.47,2.856,7.056,7.056,0,0,0-1.29,4.171,7.386,7.386,0,0,0,2.75,6.1,11.788,11.788,0,0,0,13.71,0,7.386,7.386,0,0,0,2.75-6.1,7.056,7.056,0,0,0-1.29-4.171,8.7,8.7,0,0,0-3.47-2.856,7.007,7.007,0,0,0,3.82-6.451h0Zm-2.88,0a4.619,4.619,0,0,1-1.7,3.822,6.831,6.831,0,0,1-8.17,0,5.28,5.28,0,0,1-.04-7.725,7.315,7.315,0,0,1,8.25,0,4.6,4.6,0,0,1,1.66,3.9h0Zm-12.52,13.478a4.85,4.85,0,0,1,1.85-4.089,9.129,9.129,0,0,1,9.77,0,5.443,5.443,0,0,1,0,8.177,9.123,9.123,0,0,1-9.77,0A4.848,4.848,0,0,1,1952.78,444.96Zm36.62-18.8a10.412,10.412,0,0,0-13.88,0,10.018,10.018,0,0,0,0,13.683,9.516,9.516,0,0,0,6.94,2.65,10.555,10.555,0,0,0,2.3-.246l-7.06,10.519h3.24l9.4-14.012a9.72,9.72,0,0,0,1.77-5.752A9.137,9.137,0,0,0,1989.4,426.161Zm-6.94.144a6.679,6.679,0,0,1,4.91,1.849,7.221,7.221,0,0,1,0,9.7,7.43,7.43,0,0,1-9.81,0,7.221,7.221,0,0,1,0-9.7A6.656,6.656,0,0,1,1982.46,426.305Zm-36.7,66.073,0.74,2.465,6.45-1.931v25.6h2.87V489.748h-2.46Zm14.78,0,0.74,2.465,6.45-1.931v25.6h2.87V489.748h-2.46Zm22.74,7.889,7.06-10.519h-3.24l-9.4,14.012a9.716,9.716,0,0,0-1.76,5.752,9.169,9.169,0,0,0,2.7,6.842,10.412,10.412,0,0,0,13.88,0,9.991,9.991,0,0,0,0-13.683,9.517,9.517,0,0,0-6.94-2.651,10.622,10.622,0,0,0-2.3.247h0Zm-4.47,9.245a6.5,6.5,0,0,1,1.87-4.848,7.43,7.43,0,0,1,9.81,0,7.221,7.221,0,0,1,0,9.7,7.43,7.43,0,0,1-9.81,0A6.5,6.5,0,0,1,1978.81,509.512Zm-10.33,53.458a7.136,7.136,0,0,0-2.56-5.917,10.07,10.07,0,0,0-12.19,0,7.142,7.142,0,0,0-2.57,5.917,6.99,6.99,0,0,0,3.82,6.451,8.713,8.713,0,0,0-3.47,2.856,7.056,7.056,0,0,0-1.29,4.171,7.357,7.357,0,0,0,2.75,6.1,11.788,11.788,0,0,0,13.71,0,7.385,7.385,0,0,0,2.75-6.1,7.056,7.056,0,0,0-1.29-4.171,8.782,8.782,0,0,0-3.47-2.856,7,7,0,0,0,3.81-6.451h0Zm-2.87,0a4.619,4.619,0,0,1-1.7,3.822,6.831,6.831,0,0,1-8.17,0,5.258,5.258,0,0,1-.04-7.725,7.315,7.315,0,0,1,8.25,0,4.6,4.6,0,0,1,1.66,3.9h0Zm-12.52,13.478a4.851,4.851,0,0,1,1.85-4.089,9.129,9.129,0,0,1,9.77,0,5.443,5.443,0,0,1,0,8.177,9.123,9.123,0,0,1-9.77,0A4.848,4.848,0,0,1,1953.09,576.448Zm38.3,7.807v-2.794h-14.16l8.21-8.177a26.249,26.249,0,0,0,3.94-4.849,9.142,9.142,0,0,0,1.4-4.807,8.016,8.016,0,0,0-2.61-6.308,8.842,8.842,0,0,0-6.06-2.321,10.032,10.032,0,0,0-5.17,1.376,9.548,9.548,0,0,0-3.69,4.048l2.42,1.438a6.725,6.725,0,0,1,6.44-4.068,5.9,5.9,0,0,1,4.09,1.541,5.512,5.512,0,0,1,1.7,4.294q0,3.165-4.43,7.6l-10.35,10.437v2.589h18.27Z"></path></g><path id="Обхват_талии_Обхват_бедер_Длина_по_внутреннему_шву" data-name="Обхват талии Обхват бедер Длина по внутреннему шву" class="cls-2" d="M228.949,437.634a14.685,14.685,0,1,0-4.29,10.455,14.257,14.257,0,0,0,4.29-10.455h0Zm-25.737,0a10.821,10.821,0,0,1,3.151-7.913,11.187,11.187,0,0,1,15.654,0,11.46,11.46,0,0,1,0,15.785,11.19,11.19,0,0,1-15.654,0,10.77,10.77,0,0,1-3.151-7.872h0ZM250.417,449.7a9.732,9.732,0,0,0,.183-13.568,8.931,8.931,0,0,0-6.485-2.6,10.537,10.537,0,0,0-3.9.773,7.747,7.747,0,0,0-3.253,2.4,6.983,6.983,0,0,1,1.85-3.092,13.817,13.817,0,0,1,4.046-2.4q0.243-.123,1.3-0.549t1.362-.57l1.179-.549a10.2,10.2,0,0,0,1.179-.61q0.3-.2.976-0.631a3.827,3.827,0,0,0,.955-0.793q0.285-.366.671-0.875a4.107,4.107,0,0,0,.59-1.058,7.377,7.377,0,0,0,.325-1.2l-2.846-1.627a5.448,5.448,0,0,1-.63,1.648,4.31,4.31,0,0,1-1.281,1.3,12.848,12.848,0,0,1-1.545.936q-0.692.346-2.175,1t-2.338,1.058q-4.718,2.278-6.242,5.085t-1.524,8.014a10.437,10.437,0,0,0,2.927,7.649A10.918,10.918,0,0,0,250.417,449.7Zm-13.9-7.058a5.244,5.244,0,0,1,2.094-4.333,7.4,7.4,0,0,1,4.7-1.648,6.377,6.377,0,0,1,4.655,1.729,5.955,5.955,0,0,1,1.769,4.455,5.794,5.794,0,0,1-1.85,4.394,6.564,6.564,0,0,1-4.7,1.749,6.687,6.687,0,0,1-4.757-1.79,5.966,5.966,0,0,1-1.911-4.556h0Zm29.763-1.262,7.318-9.845h-4.147L264.2,438.61l-5.245-7.079h-4.188l7.359,9.886-7.806,10.455h4.147l5.733-7.689,5.692,7.689h4.148Zm27.607-4.312a5.173,5.173,0,0,0-1.667-4.007,6.734,6.734,0,0,0-4.716-1.526h-9.352v20.341h10.165a6.716,6.716,0,0,0,4.818-1.606,5.452,5.452,0,0,0,1.688-4.13,4.717,4.717,0,0,0-3.131-4.719,4.828,4.828,0,0,0,2.195-4.353h0Zm-3.456.244q0,2.727-3.09,2.726H281.6v-5.329h5.733q3.09,0,3.09,2.6h0ZM281.6,448.659v-5.493h6.506a3.561,3.561,0,0,1,2.378.712,2.457,2.457,0,0,1,.834,1.973,2.615,2.615,0,0,1-.834,2.075,3.492,3.492,0,0,1-2.378.733H281.6Zm34.683-13.629A8.626,8.626,0,0,0,308.6,431a9.752,9.752,0,0,0-7.278,3.113,11.07,11.07,0,0,0,0,15.174A9.751,9.751,0,0,0,308.6,452.4a8.625,8.625,0,0,0,7.685-4.027v3.5h3.537V431.531h-3.537v3.5Zm-12.361,11.859a7.526,7.526,0,0,1,0-10.374,7.361,7.361,0,0,1,10.287,0,7.523,7.523,0,0,1,0,10.374A7.361,7.361,0,0,1,303.925,446.889Zm19.8-15.358v3.418h6.952v16.923h3.538V434.949h6.912v-3.418h-17.4Zm30.006,0v3.418h6.953v16.923h3.538V434.949h6.912v-3.418h-17.4Zm37.326,3.5A8.626,8.626,0,0,0,383.374,431a9.752,9.752,0,0,0-7.278,3.113,11.07,11.07,0,0,0,0,15.174,9.751,9.751,0,0,0,7.278,3.112,8.625,8.625,0,0,0,7.685-4.027v3.5H394.6V431.531h-3.537v3.5ZM378.7,446.889a7.526,7.526,0,0,1,0-10.374,7.361,7.361,0,0,1,10.287,0,7.523,7.523,0,0,1,0,10.374A7.361,7.361,0,0,1,378.7,446.889Zm23.949-15.358v11.635q0,3.257-1.037,4.455a3.254,3.254,0,0,1-3.11.916v3.335a6.836,6.836,0,0,0,5.672-1.647q2.011-1.972,2.012-6.977v-8.3h8.01v16.923h3.538V431.531H402.647Zm24.762,14.28v-14.28h-3.5v20.341h2.846l11.263-14.279v14.279h3.5V431.531h-2.846Zm23.785,0v-14.28h-3.5v20.341h2.846l11.263-14.279v14.279h3.5V431.531h-2.846ZM228.949,502.725a14.685,14.685,0,1,0-4.29,10.456,14.255,14.255,0,0,0,4.29-10.456h0Zm-25.737,0a10.819,10.819,0,0,1,3.151-7.912,11.187,11.187,0,0,1,15.654,0,11.459,11.459,0,0,1,0,15.784,11.187,11.187,0,0,1-15.654,0,10.767,10.767,0,0,1-3.151-7.872h0Zm47.205,12.063a9.732,9.732,0,0,0,.183-13.568,8.932,8.932,0,0,0-6.485-2.6,10.537,10.537,0,0,0-3.9.773,7.749,7.749,0,0,0-3.253,2.4,6.972,6.972,0,0,1,1.85-3.092,13.8,13.8,0,0,1,4.046-2.4q0.243-.123,1.3-0.55t1.362-.569l1.179-.549a10.157,10.157,0,0,0,1.179-.611q0.3-.2.976-0.63a3.806,3.806,0,0,0,.955-0.794q0.285-.366.671-0.874a4.107,4.107,0,0,0,.59-1.058,7.377,7.377,0,0,0,.325-1.2l-2.846-1.627a5.432,5.432,0,0,1-.63,1.647,4.313,4.313,0,0,1-1.281,1.3,12.848,12.848,0,0,1-1.545.936q-0.692.346-2.175,1t-2.338,1.058q-4.718,2.279-6.242,5.086t-1.524,8.014a10.433,10.433,0,0,0,2.927,7.648A10.916,10.916,0,0,0,250.417,514.788Zm-13.9-7.059a5.242,5.242,0,0,1,2.094-4.332,7.4,7.4,0,0,1,4.7-1.648,6.373,6.373,0,0,1,4.655,1.729,5.955,5.955,0,0,1,1.769,4.455,5.79,5.79,0,0,1-1.85,4.393,6.56,6.56,0,0,1-4.7,1.75,6.691,6.691,0,0,1-4.757-1.79,5.966,5.966,0,0,1-1.911-4.557h0Zm29.763-1.261,7.318-9.845h-4.147L264.2,503.7l-5.245-7.079h-4.188l7.359,9.886-7.806,10.455h4.147l5.733-7.689,5.692,7.689h4.148Zm27.607-4.312a5.173,5.173,0,0,0-1.667-4.007,6.734,6.734,0,0,0-4.716-1.526h-9.352v20.341h10.165a6.712,6.712,0,0,0,4.818-1.607,5.448,5.448,0,0,0,1.688-4.129,4.717,4.717,0,0,0-3.131-4.719,4.828,4.828,0,0,0,2.195-4.353h0Zm-3.456.244q0,2.726-3.09,2.726H281.6V499.8h5.733q3.09,0,3.09,2.6h0ZM281.6,513.75v-5.492h6.506a3.561,3.561,0,0,1,2.378.712,2.457,2.457,0,0,1,.834,1.973,2.615,2.615,0,0,1-.834,2.075,3.492,3.492,0,0,1-2.378.732H281.6Zm34.683-13.628a8.626,8.626,0,0,0-7.685-4.028,9.754,9.754,0,0,0-7.278,3.112,11.071,11.071,0,0,0,0,15.175,9.751,9.751,0,0,0,7.278,3.112,8.626,8.626,0,0,0,7.685-4.028v3.5h3.537V496.623h-3.537v3.5Zm-12.361,11.859a7.526,7.526,0,0,1,0-10.374,7.359,7.359,0,0,1,10.287,0,7.523,7.523,0,0,1,0,10.374A7.361,7.361,0,0,1,303.925,511.981Zm19.8-15.358v3.417h6.952v16.924h3.538V500.04h6.912v-3.417h-17.4Zm48.75,18.165a9.732,9.732,0,0,0,.183-13.568,8.932,8.932,0,0,0-6.485-2.6,10.537,10.537,0,0,0-3.9.773,7.749,7.749,0,0,0-3.253,2.4,6.972,6.972,0,0,1,1.85-3.092,13.8,13.8,0,0,1,4.046-2.4q0.243-.123,1.3-0.55t1.362-.569l1.179-.549a10.157,10.157,0,0,0,1.179-.611q0.306-.2.976-0.63a3.814,3.814,0,0,0,.956-0.794q0.284-.366.67-0.874a4.107,4.107,0,0,0,.59-1.058,7.377,7.377,0,0,0,.325-1.2l-2.846-1.627a5.432,5.432,0,0,1-.63,1.647,4.313,4.313,0,0,1-1.281,1.3,12.848,12.848,0,0,1-1.545.936q-0.692.346-2.175,1t-2.338,1.058q-4.717,2.279-6.241,5.086t-1.525,8.014a10.433,10.433,0,0,0,2.927,7.648A10.916,10.916,0,0,0,372.477,514.788Zm-13.9-7.059a5.242,5.242,0,0,1,2.094-4.332,7.4,7.4,0,0,1,4.7-1.648,6.377,6.377,0,0,1,4.656,1.729,5.958,5.958,0,0,1,1.768,4.455,5.79,5.79,0,0,1-1.85,4.393,6.56,6.56,0,0,1-4.7,1.75,6.691,6.691,0,0,1-4.757-1.79,5.966,5.966,0,0,1-1.911-4.557h0Zm40.822,0.692a10.733,10.733,0,0,0,.122-1.587,10.973,10.973,0,0,0-2.826-7.587,9.35,9.35,0,0,0-7.3-3.153,10.247,10.247,0,0,0-7.685,3.051,10.528,10.528,0,0,0-2.968,7.649,10.4,10.4,0,0,0,3.029,7.668,10.638,10.638,0,0,0,7.868,3.031,9.932,9.932,0,0,0,8.945-4.6l-3.009-1.709a6.361,6.361,0,0,1-5.855,2.97,7.77,7.77,0,0,1-4.859-1.5,6.7,6.7,0,0,1-2.5-4.231h17.036Zm-5.733-7.486a6.787,6.787,0,0,1,2.277,4.394h-13.58a6.753,6.753,0,0,1,7.034-5.9A6.521,6.521,0,0,1,393.661,500.935Zm27.4-4.312h-15v9.438q0,4.842-1.951,7.526H401.63v8.829h3.5v-5.452h15.247v5.452h3.5v-8.829h-2.805V496.623Zm-11.507,9.438v-6.143h8.01v13.669h-9.433a17.423,17.423,0,0,0,1.423-7.526h0Zm37.651,2.36a10.733,10.733,0,0,0,.122-1.587,10.973,10.973,0,0,0-2.826-7.587,9.35,9.35,0,0,0-7.3-3.153,10.245,10.245,0,0,0-7.685,3.051,10.528,10.528,0,0,0-2.968,7.649,10.393,10.393,0,0,0,3.029,7.668,10.636,10.636,0,0,0,7.867,3.031q5.977,0,8.946-4.6l-3.009-1.709a6.362,6.362,0,0,1-5.855,2.97,7.768,7.768,0,0,1-4.859-1.5,6.7,6.7,0,0,1-2.5-4.231H447.21Zm-5.733-7.486a6.787,6.787,0,0,1,2.277,4.394H430.173a6.754,6.754,0,0,1,7.035-5.9A6.521,6.521,0,0,1,441.477,500.935Zm14.271-.813v-3.5h-3.537V525.1h3.537V513.465a8.626,8.626,0,0,0,7.685,4.028,9.751,9.751,0,0,0,7.278-3.112,11.071,11.071,0,0,0,0-15.175,9.754,9.754,0,0,0-7.278-3.112,8.626,8.626,0,0,0-7.685,4.028h0Zm2.074,11.859a7.523,7.523,0,0,1,0-10.374,7.359,7.359,0,0,1,10.287,0,7.526,7.526,0,0,1,0,10.374A7.361,7.361,0,0,1,457.822,511.981Zm-235.988,41.6H203.659v14.89q0,6.712-2.643,10.008h-2.48v9.031h3.781v-5.451H221.1v5.451h3.781v-9.031h-3.049v-24.9ZM207.44,568.549V557.118h10.612v21.358H205.285q2.156-3.457,2.155-9.927h0Zm24.111-6.834V573.35q0,3.255-1.037,4.455a3.254,3.254,0,0,1-3.11.915v3.336a6.835,6.835,0,0,0,5.672-1.648q2.013-1.973,2.013-6.977v-8.3h8.01v16.924h3.537V561.715H231.551Zm24.762,14.279V561.715h-3.5v20.341h2.846l11.263-14.28v14.28h3.5V561.715h-2.846Zm34.357-5.817H280.14v-8.462H276.6v20.341h3.538v-8.5h10.53v8.5h3.538V561.715H290.67v8.462Zm26.551-4.964a8.625,8.625,0,0,0-7.685-4.027,9.751,9.751,0,0,0-7.278,3.112,11.072,11.072,0,0,0,0,15.174,9.752,9.752,0,0,0,7.278,3.113,8.626,8.626,0,0,0,7.685-4.028v3.5h3.537V561.715h-3.537v3.5Zm-12.36,11.859a7.523,7.523,0,0,1,0-10.374,7.36,7.36,0,0,1,10.286,0,7.523,7.523,0,0,1,0,10.374A7.36,7.36,0,0,1,304.861,577.072Zm33.056-15.357v20.341h3.537V565.091h10.531v16.965h3.537V561.715H337.917Zm44.075,10.17a10.274,10.274,0,0,0-3.131-7.607,10.869,10.869,0,0,0-15.186,0,10.7,10.7,0,0,0,7.583,18.307,10.421,10.421,0,0,0,7.6-3.092A10.275,10.275,0,0,0,381.992,571.885Zm-15.817,5.167a7.475,7.475,0,0,1,0-10.333,7.312,7.312,0,0,1,10.206,0,7.242,7.242,0,0,1-5.123,12.408A6.91,6.91,0,0,1,366.175,577.052Zm-149.83,22.741a5.177,5.177,0,0,0-1.667-4.007,6.739,6.739,0,0,0-4.717-1.525h-9.352V614.6h10.165A6.717,6.717,0,0,0,215.592,613a5.45,5.45,0,0,0,1.688-4.13,4.718,4.718,0,0,0-3.131-4.719,4.829,4.829,0,0,0,2.2-4.353h0Zm-3.456.244q0,2.727-3.091,2.726h-5.733v-5.329H209.8q3.09,0,3.091,2.6h0Zm-8.824,11.351V605.9h6.506a3.559,3.559,0,0,1,2.379.712,2.456,2.456,0,0,1,.833,1.973,2.615,2.615,0,0,1-.833,2.074,3.49,3.49,0,0,1-2.379.733h-6.506Zm31.918-8.666H225.452v-8.461h-3.537V614.6h3.537v-8.5h10.531v8.5h3.538V594.261h-3.538v8.461Zm18.053,7.486-6.953-15.947h-3.74l8.823,20.381-0.326.733q-1.747,4.351-5.489,4.068v3.3a7.679,7.679,0,0,0,5.367-1.607,11.574,11.574,0,0,0,3.66-5.268l8.294-21.6h-3.781ZM265.3,594.261v3.417h6.953V614.6h3.537V597.678H282.7v-3.417H265.3Zm24.843,3.5v-3.5H286.6v28.477h3.538V611.1a8.623,8.623,0,0,0,7.684,4.028,9.754,9.754,0,0,0,7.279-3.113,11.072,11.072,0,0,0,0-15.174,9.753,9.753,0,0,0-7.279-3.112,8.622,8.622,0,0,0-7.684,4.027h0Zm2.073,11.859a7.526,7.526,0,0,1,0-10.374,7.361,7.361,0,0,1,10.287,0,7.523,7.523,0,0,1,0,10.374A7.361,7.361,0,0,1,292.215,609.618Zm40.457-3.56a10.73,10.73,0,0,0,.122-1.586,10.973,10.973,0,0,0-2.826-7.587,9.351,9.351,0,0,0-7.3-3.153,10.245,10.245,0,0,0-7.684,3.051,10.527,10.527,0,0,0-2.968,7.648,10.394,10.394,0,0,0,3.029,7.669,10.64,10.64,0,0,0,7.867,3.031q5.978,0,8.946-4.6l-3.009-1.708a6.362,6.362,0,0,1-5.855,2.97,7.768,7.768,0,0,1-4.859-1.506,6.7,6.7,0,0,1-2.5-4.231h17.037Zm-5.733-7.485a6.789,6.789,0,0,1,2.277,4.394H315.635a6.754,6.754,0,0,1,7.034-5.9A6.521,6.521,0,0,1,326.939,598.573Zm24.8,4.149H341.21v-8.461h-3.537V614.6h3.537v-8.5h10.531v8.5h3.537V594.261h-3.537v8.461Zm23.786,0H365v-8.461h-3.537V614.6H365v-8.5h10.531v8.5h3.537V594.261h-3.537v8.461Zm29.234,3.336a10.73,10.73,0,0,0,.122-1.586,10.973,10.973,0,0,0-2.826-7.587,9.35,9.35,0,0,0-7.3-3.153,10.247,10.247,0,0,0-7.685,3.051,10.527,10.527,0,0,0-2.968,7.648,10.4,10.4,0,0,0,3.029,7.669A10.642,10.642,0,0,0,395,615.131a9.93,9.93,0,0,0,8.945-4.6l-3.009-1.708a6.361,6.361,0,0,1-5.855,2.97,7.77,7.77,0,0,1-4.859-1.506,6.7,6.7,0,0,1-2.5-4.231h17.036Zm-5.733-7.485a6.78,6.78,0,0,1,2.277,4.394h-13.58a6.753,6.753,0,0,1,7.034-5.9A6.521,6.521,0,0,1,399.028,598.573Zm27.283-4.312-6.384,10.292-6.383-10.292h-3.782V614.6h3.5V599.834l6.465,10.415h0.447l6.465-10.415V614.6h3.456V594.261h-3.781Zm18.337,15.947L437.7,594.261h-3.74l8.823,20.381-0.325.733q-1.749,4.351-5.489,4.068v3.3a7.682,7.682,0,0,0,5.367-1.607,11.58,11.58,0,0,0,3.659-5.268l8.3-21.6H450.5ZM224.924,643.771H216.3V626.806h-3.537v16.965h-8.62V626.806h-3.538v20.342h27.852V626.806h-3.537v16.965Zm25.493-11.432a5.177,5.177,0,0,0-1.667-4.007,6.734,6.734,0,0,0-4.716-1.526h-9.352v20.342h10.165a6.717,6.717,0,0,0,4.818-1.607,5.452,5.452,0,0,0,1.688-4.13,4.717,4.717,0,0,0-3.131-4.719,4.83,4.83,0,0,0,2.195-4.353h0Zm-3.456.244q0,2.727-3.09,2.726h-5.733V629.98h5.733q3.09,0,3.09,2.6h0Zm-8.823,11.351v-5.493h6.506a3.561,3.561,0,0,1,2.378.712,2.457,2.457,0,0,1,.834,1.974,2.612,2.612,0,0,1-.834,2.074,3.487,3.487,0,0,1-2.378.733h-6.506Zm25.372-1.18-6.953-15.948h-3.741l8.823,20.382-0.325.732q-1.749,4.353-5.489,4.069v3.295a7.689,7.689,0,0,0,5.367-1.607,11.565,11.565,0,0,0,3.659-5.268l8.3-21.6h-3.781Z"></path><path id="A_B_C_копия_2" data-name="A | B | C | копия 2" class="cls-3" d="M137.679,420.6h-7.271l-15.524,31.243h6.558l2.765-5.757h19.672l2.766,5.757H153.2Zm-5.531,9.105a13.633,13.633,0,0,0,1.561-5.311v-0.089h0.669V424.4a13.615,13.615,0,0,0,1.561,5.311l5.576,11.516H126.572Zm46.525-10.89h-5.754v42.4h5.754v-42.4Zm-34.281,81.517a7.267,7.267,0,0,0,4.617-2.21,6.655,6.655,0,0,0,1.717-4.708,6.87,6.87,0,0,0-2.587-5.624q-2.588-2.1-7.717-2.1H116.958v31.243h23.419q5.932,0,8.7-2.187a7.454,7.454,0,0,0,2.766-6.2,7,7,0,0,0-1.963-5.177,8.545,8.545,0,0,0-5.487-2.277v-0.758Zm-4.907-9.641a5.666,5.666,0,0,1,3.747,1.093,4.052,4.052,0,0,1,0,5.937,5.66,5.66,0,0,1-3.747,1.093h-16.46V490.7h16.46Zm-16.46,21.245v-8.569h17.04a6.5,6.5,0,0,1,4.193,1.138,3.9,3.9,0,0,1,1.383,3.191,3.787,3.787,0,0,1-1.383,3.124,6.594,6.594,0,0,1-4.193,1.116h-17.04Zm56.652-28.029h-5.755v42.4h5.755v-42.4Zm-45.634,98.655q9.011,0,14.1-3.548a14.05,14.05,0,0,0,6.112-9.351h-6.2a9.342,9.342,0,0,1-4.327,5.535q-3.479,2.232-9.68,2.231a18.224,18.224,0,0,1-7.628-1.45,10.992,10.992,0,0,1-4.8-3.95,10.528,10.528,0,0,1,0-11.248,11.006,11.006,0,0,1,4.8-3.95,18.24,18.24,0,0,1,7.628-1.45q6.2,0,9.68,2.232a9.343,9.343,0,0,1,4.327,5.534h6.2a14.371,14.371,0,0,0-3.145-6.606,16.424,16.424,0,0,0-6.758-4.6,28.231,28.231,0,0,0-10.305-1.7,26.227,26.227,0,0,0-11,2.1,15.659,15.659,0,0,0-6.915,5.78,15.81,15.81,0,0,0,0,16.558,15.652,15.652,0,0,0,6.915,5.78,26.211,26.211,0,0,0,11,2.1h0ZM180.48,549h-5.755v42.4h5.755V549Z"></path></g><path id="Линия_1" data-name="Линия 1" class="cls-4" d="M-6,865v-1H2339v1H-6Z"></path></g></svg> 